<?xml version="1.0" encoding="utf-8"?>
<!-- Generator: Adobe Illustrator 16.0.0, SVG Export Plug-In . SVG Version: 6.00 Build 0)  -->
<!DOCTYPE svg PUBLIC "-//W3C//DTD SVG 1.1//EN" "http://www.w3.org/Graphics/SVG/1.1/DTD/svg11.dtd">
<svg version="1.1" xmlns="http://www.w3.org/2000/svg" xmlns:xlink="http://www.w3.org/1999/xlink" x="0px" y="0px" width="1920px"
	 height="1080px" viewBox="0 0 1920 1080" enable-background="new 0 0 1920 1080" xml:space="preserve">
<g id="Imgs">
</g>
<g id="Sky">
</g>
<g id="Clouds">
</g>
<g id="Buildings">
	<g>
		<g>
			<path fill="#00ABD6" d="M827.215,668.632l-1.893-131.844c0,0-3.535-12.839,9.609-13.86c13.145-1.02,39.063,0.278,39.063,0.278
				L876.408,696h-48.994L827.215,668.632z"/>
			<polygon fill="#00A1CC" points="825.023,546 857,546 857,696 826.219,696 			"/>
			<polygon fill="#00A1CC" points="859.678,546 875.213,546 876.408,696 860.259,696 			"/>
		</g>
		<g>
			<path fill="#00ABD6" d="M1061.03,708.846c0,2.638-11.103,8.154-13.742,8.154H909.866c-2.64,0-4.866-2.916-4.866-5.556V210.752
				c0-2.641,2.227-4.752,4.866-4.752h137.422c2.64,0,4.78,2.32,4.78,4.96L1061.03,708.846z"/>
			<path fill="#00A1CC" d="M1010.195,708.982c0,2.593-7.482,8.018-9.263,8.018h-92.626c-1.777,0-3.307-2.879-3.307-5.471V219.63
				c0-2.594,1.529-3.63,3.307-3.63h92.626c1.78,0,3.22,1.763,3.22,4.356L1010.195,708.982z"/>
			<path fill="#00A1CC" d="M1052.02,241.22c0,0.134-3.271,0.78-4.051,0.78h-30.939c-0.777,0-2.029-0.885-2.029-1.018v-25.239
				c0-0.135,1.252,0.257,2.029,0.257h33.33c0.778,0,1.406,0.053,1.406,0.186L1052.02,241.22z"/>
			<path fill="#00A1CC" d="M1052.02,271.157c0,0.133-3.271,0.843-4.051,0.843h-30.939c-0.777,0-2.029-1.009-2.029-1.144v-25.24
				c0-0.134,1.252,0.384,2.029,0.384h33.33c0.778,0,1.406,0.021,1.406,0.155L1052.02,271.157z"/>
			<path fill="#00A1CC" d="M1061.03,708.846c0,2.227-4.474,8.154-4.474,8.154h-39.441c-0.813,0-2.115-12.111-2.115-14.338V279.993
				c0-2.228,1.303-2.993,2.115-2.993h34.764c0.813,0,1.468,3.867,1.468,6.095L1061.03,708.846z"/>
		</g>
		<g>
			<path fill="#00BADF" d="M931.227,664.301l3.809-114.556c0,0,2.055-5.792,4.742-5.792c0,0-6.59-7.125-4.35-9.422
				c2.24-2.296,1.326-2.532,6.703-2.532s28.68,0,28.68,0s7.468,3.465,0,12.653l4.48,4.987c0,0,1.793,75.037,2.092,85.756
				s1.494,22.396,1.494,22.396l1.492,4.117L931.227,664.301z"/>
			<path fill="#00ABD7" d="M931.227,664.301l3.023-114.556c0,0,1.628-5.792,3.762-5.792c0,0-5.229-7.625-3.453-9.922
				c1.777-2.298,1.053-3.032,5.318-3.032s22.752,0,22.752,0s2.752,1.385,3.102,12.004l0.453,6.384c0,0,1.422,75.161,1.658,85.879
				c0.237,10.721,1.186,22.461,1.186,22.461l1.186,4.148L931.227,664.301z"/>
		</g>
		<g>
			<path fill="#00A1CC" d="M1269.553,631.606c0,2.638-6.92,7.394-9.561,7.394h-148.176c-2.64,0-4.816-2.589-4.816-5.228V330.248
				c0-2.639,2.156-4.779,4.797-4.779l142.212-2.391c2.641,0,4.784,2.252,4.784,4.893L1269.553,631.606z"/>
			<path fill="#008CAD" d="M1124.862,631.606c0,2.638-1.045,7.394-1.329,7.394h-15.98c-0.285,0-0.553-2.589-0.553-5.228V330.248
				c0-2.639,0.547-4.779,0.83-4.779l16.17-0.25c0,0,0,0,0,2.64L1124.862,631.606z"/>
			<line fill="none" stroke="#00ABD6" stroke-miterlimit="10" x1="1107.037" y1="334.63" x2="1258.798" y2="331.443"/>
		</g>
		<line fill="none" x1="1200.074" y1="422.344" x2="1199.994" y2="422.177"/>
		<g>
			<path fill="#00ABD6" d="M1207.813,435.805l-10.754-19.917c0,0-3.585-8.364,5.377-7.965c8.963,0.398,40.828-0.014,40.828-0.014
				s7.967-2.775,7.17,5.988l-7.967,16.729c0,0,5.18,3.187,6.375,8.365c1.193,5.179,7.965,184.026,7.965,184.026l-48.594,27.483
				l-4.383-192.788C1203.83,457.712,1200.244,437,1207.813,435.805z"/>
			<path fill="#008CAD" d="M1206.529,435.805l-9.551-19.917c0,0-3.184-8.364,4.775-7.965c7.959,0.398,36.256-0.014,36.256-0.014
				s7.076-2.775,6.367,5.988l-7.074,16.729c0,0,4.599,3.187,5.659,8.365c1.062,5.179,7.073,184.026,7.073,184.026l-43.15,27.483
				l-3.893-192.788C1202.992,457.712,1199.808,437,1206.529,435.805z"/>
			<line fill="none" stroke="#326E81" stroke-miterlimit="10" x1="1199.994" y1="422.177" x2="1242.168" y2="419.117"/>
		</g>
		<g>
			<g>
				<path fill="#00ABD6" d="M1188.295,622.522c0,2.638-2.141,5.478-4.781,5.478h-22.703c-2.641,0-4.78-2.84-4.78-5.478l2.39-156.142
					c0-2.64,2.141-4.38,4.779-4.38h16.73c2.639,0,4.779,1.74,4.779,4.38L1188.295,622.522z"/>
				<path fill="#008CAD" d="M1181.303,623.107c0,2.646-1.676,4.893-3.744,4.893h-17.785c-2.067,0-3.743-2.246-3.743-4.893
					l1.872-156.617c0-2.648,1.677-4.491,3.743-4.491h13.106c2.065,0,3.742,1.843,3.742,4.491L1181.303,623.107z"/>
			</g>
			<line fill="none" stroke="#326E81" stroke-miterlimit="10" x1="1157.775" y1="476.814" x2="1178.632" y2="474.023"/>
			<line fill="none" stroke="#326E81" stroke-miterlimit="10" x1="1159.219" y1="487.586" x2="1178.632" y2="485.197"/>
		</g>
		<g>
			<polygon fill="#00ABD6" points="1286.283,536.979 1278.316,415.491 1340.057,411.506 1349.217,533.394 			"/>
			<polygon fill="#00A1CC" points="1284.814,536.979 1278.316,417.996 1328.664,414.094 1336.135,533.469 			"/>
			<polygon fill="#00A1CC" points="1332,420 1341.469,420 1340.248,414 1332,414 			"/>
			<path fill="#00A1CC" d="M1332,424h7.811c0,0,1.848,3.615,0.154,3.662c-1.689,0.051-7.965-0.271-7.965-0.271V424z"/>
			<polygon fill="#00A1CC" points="1331.691,432 1341.252,432 1349.217,534 1341.252,534 			"/>
		</g>
		<g>
			<path fill="#00ABD6" d="M1269.553,537.377l5.178-19.119l-7.566-40.248c0,0,0.397-4.564,7.566-5.261
				c7.171-0.696,108.346-3.584,108.346-3.584s3.187,5.825,0,13.916c-3.188,8.091,12.744,42.348,12.744,42.348l-128.656,22.705
				L1269.553,537.377z"/>
			<line fill="#00A1CC" stroke="#326E81" stroke-miterlimit="10" x1="1268.769" y1="486.54" x2="1384.078" y2="479.75"/>
		</g>
		<path fill="#00A1CC" d="M1376.701,501.908c0,0,6.793-2.68,7.377-3.99c0.585-1.312-24.902-211.918-24.902-211.918h-2.391
			L1376.701,501.908z"/>
		<path fill="#00A1CC" d="M1417.331,476.814l-56.562-190.779c0,0,5.576-5.577,5.975-3.984
			c0.398,1.594,56.562,192.192,56.562,192.192l-5.178,5.507L1417.331,476.814z"/>
		<path fill="#00A1CC" d="M1384.088,496l24.162-49.097l-32.371-21.108l16.186-34.022l-22.93-22.883l9.559-31.823l-15.049-13.964
			l6.791-17.536l-9.666-10.761l-1.195,2.386l7.967,8.364l-7.34,17.524c0,0,17.299,13.943,16.104,14.737
			c-1.195,0.797-11.913,30.668-11.913,30.668l23.862,23.504l-17.818,35.423c0,0,34.15,20.266,33.354,21.86
			c-0.798,1.592-23.9,46.728-23.9,46.728H1384.088z"/>
		<polygon fill="#00A1CC" points="1491,420.258 1491,424 1362.52,269.979 1361.975,268.061 		"/>
		<polygon fill="#00A1CC" points="1453.977,449.348 1459.951,447.356 1364.679,271.243 1364.164,270.29 		"/>
		<path fill="#00A1CC" d="M1445.215,451.762c-0.797-1.592-11.155-22.306-11.155-22.306s-3.185-9.162,12.747-9.56
			c15.934-0.399,55.861,0,55.861,0l8.668,21.51L1445.215,451.762z"/>
		<g>
			<path fill="#00C7F4" d="M995,634.967v-77.674l15.906-31.368L982,484.699v-14.639l-1.115-8.365c0,0,0.191-4.48,4.972-5.377
				c4.78-0.896,153.051-2.689,153.051-2.689s2.139,2.391,1.84,6.273c-0.3,3.885,0.053,20.613,0.053,20.613l-27.203,46.007
				l12.554,23.302l1.643,83.649L995,634.967z"/>
			<path fill="#00C2E2" d="M992,634.967v-77.674l14.938-31.368L980,484.699v-14.639l-0.066-8.365c0,0,0.666-4.48,5.133-5.377
				c4.468-0.896,143.266-2.689,143.266-2.689s2.121,2.391,1.842,6.273c-0.279,3.885,0.111,20.613,0.111,20.613l-25.391,46.007
				l11.745,23.302l0.493,83.649L992,634.967z"/>
			<path fill="#00A7CE" d="M992,634.967v-77.674l14.938-31.368L980,484.699v-14.639l-0.066-8.365c0,0,0.666-4.48,5.133-5.377
				c4.468-0.896,85.907-1.494,85.907-1.494s2.12,2.391,1.843,6.273c-0.281,3.884,0.109,20.613,0.109,20.613l-16.084,40.33
				l6.576,28.382l1.641,83.673L992,634.967z"/>
			<line fill="none" stroke="#008CAD" stroke-miterlimit="10" x1="980.668" y1="471.554" x2="1140.785" y2="467.969"/>
		</g>
		<polygon fill="#00A1CC" points="1357,286.035 1367.243,283.414 1362.635,270.137 1360.77,265 1357,265 		"/>
	</g>
</g>
<g id="Mountains">
</g>
<g id="City">
</g>
<g id="Aspas_2_">
</g>
<g id="Rock">
</g>
<g id="Ground">
</g>
<g id="Floating_forms">
</g>
<g id="Logo">
</g>
<g id="All">
</g>
</svg>
