<?xml version="1.0" encoding="utf-8"?>
<!-- Generator: Adobe Illustrator 16.0.0, SVG Export Plug-In . SVG Version: 6.00 Build 0)  -->
<!DOCTYPE svg PUBLIC "-//W3C//DTD SVG 1.1//EN" "http://www.w3.org/Graphics/SVG/1.1/DTD/svg11.dtd">
<svg version="1.1" xmlns="http://www.w3.org/2000/svg" xmlns:xlink="http://www.w3.org/1999/xlink" x="0px" y="0px" width="192px"
	 height="224.667px" viewBox="0 0 192 224.667" enable-background="new 0 0 192 224.667" xml:space="preserve">
<g id="Imgs" display="none">
</g>
<g id="Sky">
</g>
<g id="Clouds">
</g>
<g id="Buldings">
</g>
<g id="Mountains">
</g>
<g id="City">
</g>
<g id="Bushes">
</g>
<g id="Aspas_2_">
	<g>
		<path fill="#FFFFFF" d="M92.69,112.875c0.125,0.375,4.25,3.5,4.25,4s-0.582,22.375-0.582,22.375l-32.793,38.875
			c0,0-8.25-1.5-7.125-4S92.69,112.875,92.69,112.875z"/>
		<path fill="#FFFFFF" d="M57.69,47.25c0,0,2-3.25,3.5-2.5s40.375,52.375,40.375,52.375L100.69,115l-9,0.75L57.69,47.25z"/>
		<path fill="#FFFFFF" d="M96.358,111.625L175.94,109c0,0,0.375,5.625,0,6s-61.625,11.5-61.75,11.125S96.358,115.75,96.358,115.75"
			/>
		<circle fill="#4D8E99" cx="96.358" cy="113" r="6"/>
	</g>
</g>
<g id="Rock">
</g>
<g id="Ground">
</g>
<g id="All">
</g>
</svg>
