<?xml version="1.0" encoding="utf-8"?>
<!-- Generator: Adobe Illustrator 16.0.0, SVG Export Plug-In . SVG Version: 6.00 Build 0)  -->
<!DOCTYPE svg PUBLIC "-//W3C//DTD SVG 1.1//EN" "http://www.w3.org/Graphics/SVG/1.1/DTD/svg11.dtd">
<svg version="1.1" xmlns="http://www.w3.org/2000/svg" xmlns:xlink="http://www.w3.org/1999/xlink" x="0px" y="0px"
	 width="134.792px" height="141.271px" viewBox="0 0 134.792 141.271" enable-background="new 0 0 134.792 141.271"
	 xml:space="preserve">
<g id="Imgs" display="none">
</g>
<g id="Sky">
</g>
<g id="Clouds">
</g>
<g id="Buldings">
</g>
<g id="Mountains">
</g>
<g id="City">
</g>
<g id="Bushes">
</g>
<g id="Aspas_2_">
	<g>
		<path fill="#FFFFFF" d="M0.346,76.48c0,0-0.25-2.875,0-3s51.25-8.75,51.25-8.75l13,8.209l-1.875,5.667L0.346,76.48z"/>
		<path fill="#FFFFFF" d="M90.471,16.855l3.25,2.75l-17,47.667c0,0-8,6.001-8.375,5.667s-9.5-1.271-9.5-1.271L90.471,16.855z"/>
		<path fill="#FFFFFF" d="M89.971,125.855l4.75-3.125L78.096,81.48l-10.625-6.375c0,0-5.771,0.697-6.136,1.474
			S89.971,125.855,89.971,125.855z"/>
		<circle fill="#4D8E99" cx="67.679" cy="70.939" r="5.667"/>
	</g>
</g>
<g id="Rock">
</g>
<g id="Ground">
</g>
<g id="All">
</g>
</svg>
