<?xml version="1.0" encoding="utf-8"?>
<!-- Generator: Adobe Illustrator 16.0.0, SVG Export Plug-In . SVG Version: 6.00 Build 0)  -->
<!DOCTYPE svg PUBLIC "-//W3C//DTD SVG 1.1//EN" "http://www.w3.org/Graphics/SVG/1.1/DTD/svg11.dtd">
<svg version="1.1" xmlns="http://www.w3.org/2000/svg" xmlns:xlink="http://www.w3.org/1999/xlink" x="0px" y="0px" width="1440px"
	 height="900px" viewBox="0 0 1440 900" enable-background="new 0 0 1440 900" xml:space="preserve">
<g id="Imgs" display="none">
</g>
<g id="Sky">
</g>
<g id="Clouds">
</g>
<g id="Buldings">
</g>
<g id="Mountains">
</g>
<g id="City">
	<g>
		<defs>
			<rect id="SVGID_15_" x="-1729" width="1440" height="900"/>
		</defs>
		<clipPath id="SVGID_8_">
			<use xlink:href="#SVGID_15_"  overflow="visible"/>
		</clipPath>
		<g clip-path="url(#SVGID_8_)">
			<path fill="#326E81" d="M1518.027,661.98l21.95-17.043c0,0,56.097-34.132,75.61-34.132c19.512,0,53.658,3.666,57.316,0.008
				s52.439-91.46,108.537-110.972s85.366-18.291,137.805,6.1c0,0,18.293-25.608,57.316-49.999
				c39.025-24.39,67.073-26.829,102.439-18.292c35.365,8.537,35.367,8.537,35.367,8.537l84.145-74.391c0,0-4.877-3.658,31.707-6.098
				c36.586-2.438,79.27-41.463,110.977-52.438s49.998-39.024,75.609-48.78s84.304-64.635,111.134-70.732
				c26.828-6.098,73.06,0,103.06,23.171V899H1191V678.992l106.275-20.609l215.854,7.316"/>
			<g opacity="0.67">
				<image overflow="visible" width="1512" height="780" xlink:href="1F8DD662.png"  transform="matrix(1 0 0 1 1155 156)">
				</image>
			</g>
		</g>
	</g>
</g>
<g id="Bushes">
	<g>
		<defs>
			<rect id="SVGID_17_" width="1440" height="900"/>
		</defs>
		<clipPath id="SVGID_9_">
			<use xlink:href="#SVGID_17_"  overflow="visible"/>
		</clipPath>
		<path clip-path="url(#SVGID_9_)" fill="#DAB539" d="M1440,474.047c-1-1.321-86.2,1.32-104.493,75.301s-12.169-5.284-17.046,0
			c-4.879,5.284-51.982-6.628-65.479,11.238c-13.496,17.867-23.526,7.305-44.258,0.676c-20.731-6.63-24.387-45.122-40.24-33.803
			c-15.854,11.32-12.193,9.998-15.853,25.852s-42.32,11.106-65.853,27.773s-6.996,7.567-29.268,19.786
			c-22.273,12.218-124.668,27.177-143.975,14.056s-10.902-37.586-27.977-42.335c-17.072-4.748-29.27-12.675-36.586-12.675
			s6.099-22.459-7.316,0s-14.757,22.992-15.915,34.615s2.378,10.303,0,18.229s6.778-7.311-25.849-12.242s-5.798-16.82-32.627-4.932
			s-18.586-7.927-32.927,14.531c-14.341,22.457-9.756,7.927-20.731,25.101c-10.976,17.173-73.185,34.088-77.461,19.767
			c-4.276-14.322-3.028-27.692-15.223-35.619s-20.731-10.571-26.829-11.891c-6.098-1.32-7.726-6.604-17.277-1.32
			s-19.341,14.237-21.747,21.137c-2.406,6.898-6.322,3.954-8.536,14.484s-6.098,22.41-6.098,22.41l581.707-31.611
			c0,0,224.337-23.779,230.435-23.779s87.42,10.57,87.42,10.57V474.047z"/>
		<path clip-path="url(#SVGID_9_)" fill="#AC972C" d="M1440,488.664c-1-1.22-86.2,1.219-104.493,69.512s-12.169-4.878-17.046,0
			c-4.879,4.878-51.982-6.118-65.479,10.375s-23.526,6.743-44.258,0.623s-24.387-41.652-40.24-31.203s-12.193,9.229-15.853,23.863
			s-42.32,10.253-65.853,25.639s-6.996,6.985-29.268,18.265c-22.273,11.279-124.668,25.088-143.975,12.976
			s-10.902-34.696-27.977-39.08c-17.072-4.384-29.27-11.701-36.586-11.701s6.099-20.732-7.316,0s-14.757,21.225-15.915,31.954
			s2.378,9.511,0,16.827s6.778-6.748-25.849-11.301s-5.798-15.527-32.627-4.553s-18.586-7.317-32.927,13.414
			s-9.756,7.317-20.731,23.171s-73.185,31.468-77.461,18.247s-3.028-25.563-15.223-32.881s-20.731-9.758-26.829-10.977
			s-7.726-6.097-17.277-1.219s-19.341,13.144-21.747,19.512s-6.322,3.65-8.536,13.371s-6.098,20.688-6.098,20.688l581.707-29.181
			c0,0,224.337-21.951,230.435-21.951s87.42,9.757,87.42,9.757V488.664z"/>
		<path clip-path="url(#SVGID_9_)" fill="#002440" d="M1440.107,549.547c-0.317-1.22-44.737-8.492-67.908,7.363
			c-23.171,15.854-26.855,22.699-26.855,22.699l-24.404-5.592c0,0-49.055-5.451-64.641,5.609l-4.881-16.366l-15.343,28.044
			c0,0-3.301-25.681-10.27-11.673s-9.757,11.675-9.757,11.675l-7.318-22.133c0,0-9.127,17.235-9.756,22.278
			s-26.829-35.715-26.829-35.715l-6.098,13.652c0,0-29.268-9.764-47.561,10.243c0,0-20.063,3.594-21.951,17.567
			c0,0-19.434-2.554-39.024,8.537c0,0-35.514-14.945-59.756,0c0,0-27.868,3.297-37.805,9.756c0,0-25.966-7.229-36.764,7.971
			c0,0-10.797-10.409-19.334-0.653c0,0-17.074-36.237-37.806-37.631s-18.293,25.436-20.731,31.533c0,0-13.414-28.049-41.463-13.415
			s-25.61,20.166-25.61,20.166l-18.292,7.883c-2.439-10.976-8.538-13.415-10.977,0c0,0-7.316-36.586-8.536-19.513
			s-6.774,28.73-6.774,28.73L720,635.005c0,0-6.533-42.308-33.362-41.275S638,614.486,640,653.404V664
			c0,0,780.384-68.669,799.433-58.588L1440.107,549.547z"/>
		<path clip-path="url(#SVGID_9_)" fill="#002440" d="M513.652,649.534c-3.643,0.16,26.785-14.529,47.518-13.31
			c0,0,13.415-13.414,29.269-13.414s32.62,5.091,49.847,30.594c0,0-26.084,16.836-57.164,8.43S521.221,649.201,513.652,649.534z"/>
	</g>
</g>
<g id="Aspas_2_">
</g>
<g id="Rock">
</g>
<g id="Ground">
</g>
<g id="All">
</g>
</svg>
