<?xml version="1.0" encoding="utf-8"?>
<!-- Generator: Adobe Illustrator 16.0.0, SVG Export Plug-In . SVG Version: 6.00 Build 0)  -->
<!DOCTYPE svg PUBLIC "-//W3C//DTD SVG 1.1//EN" "http://www.w3.org/Graphics/SVG/1.1/DTD/svg11.dtd">
<svg version="1.1" xmlns="http://www.w3.org/2000/svg" xmlns:xlink="http://www.w3.org/1999/xlink" x="0px" y="0px" width="1440px"
	 height="900px" viewBox="0 0 1440 900" enable-background="new 0 0 1440 900" xml:space="preserve">
<g id="Imgs" display="none">
</g>
<g id="Sky">
</g>
<g id="Clouds">
</g>
<g id="Buldings">
</g>
<g id="Mountains">
</g>
<g id="City">
	<g>
		<defs>
			<rect id="SVGID_15_" width="1440" height="900"/>
		</defs>
		<clipPath id="SVGID_8_">
			<use xlink:href="#SVGID_15_"  overflow="visible"/>
		</clipPath>
		<path clip-path="url(#SVGID_8_)" fill="#326E81" d="M0,524.024c0,0,107.358,17.072,169.554,64.634s87.885,74.391,87.885,74.391
			s-134.265,31.707-146.46,36.585S0,710.609,0,710.609V524.024z"/>
		<path clip-path="url(#SVGID_8_)" fill="#002440" d="M-0.158,602.439c0.316-2.439,31.986-17.257,66.133-0.184
			s74.43,25.52,89.064,35.275c14.633,9.756,23.19,14.588,23.19,14.588s12.204-12.336,24.399-9.229s32.932,26.268,32.932,26.268
			s-10.973,18.652-14.631,18.652S18.493,715,18.493,715H0L-0.158,602.439z"/>
		<path clip-path="url(#SVGID_8_)" fill="#002440" d="M513.652,649.534c-3.643,0.16,26.785-14.529,47.518-13.31
			c0,0,13.415-13.414,29.269-13.414s32.62,5.091,49.847,30.594c0,0-26.084,16.836-57.164,8.43S521.221,649.201,513.652,649.534z"/>
		<path clip-path="url(#SVGID_8_)" fill="#DAB539" d="M0.058,678.902c0,0,67.137-14.634,84.21-15.854s11.016-9.756,39.064-6.098
			s156.116,11.291,201.238,10.523s63.426,6.865,87.815,0s89.03-22.719,123.176-16.621s67.075,7.316,96.343,3.658
			c29.27-3.658,102.44-15.853,198.782-24.39s175.612-9.756,237.806-15.854c62.195-6.098,247.563-39.022,306.099-34.145
			s65.409,6.098,65.409,6.098V900H-0.101L0.058,678.902z"/>
		<path clip-path="url(#SVGID_8_)" fill="#716730" d="M-0.269,692.089c0,0,65.102-13.183,112.663-14.402s352.44-6.098,391.464-9.756
			S311.511,692.817,261,719.646c0,0,134.319-16.35,187.979-11.472s212.195,2.438,212.195,2.438s-206.098,28.049-300,28.049
			s-209.755-3.659-274.39,15.854S0.047,771.357,0.047,771.357L-0.269,692.089z"/>
		<path clip-path="url(#SVGID_8_)" fill="#716730" d="M435.561,750.859c-6.055,0.721,134.146-23.171,167.073-24.391
			s76.83-6.098,123.171,0s167.073-12.195,204.878-10.976s90.245-2.556,140.244-0.059s60.976-0.874,60.976-0.874
			s-59.758,26.542-104.879,26.542s-132.926,10.977-212.194,9.757s-230.488,6.098-251.22,8.536c0,0-10.975-2.439,1.22-7.317
			S486.78,744.763,435.561,750.859z"/>
		<path clip-path="url(#SVGID_8_)" fill="#716730" d="M914.829,767.932c0,0,41.463-14.633,52.438-17.072
			s242.683,8.536,237.805,8.536s-187.805,18.292-197.561,14.634s-3.658-11.52-3.658-11.52S948.976,775.248,914.829,767.932z"/>
		<path clip-path="url(#SVGID_8_)" fill="#716730" d="M1019.707,780.127c0,0,73.17-8.535,107.316-7.316s84.146-4.879,101.22-13.415
			s20.731-13.415,20.731-13.415l12.195,25.61c0,0-51.219,15.854-101.219,15.854S1041.658,780.127,1019.707,780.127z"/>
		<path clip-path="url(#SVGID_8_)" fill="#716730" d="M1180,811.834c4,0,75.951-14.635,111.316-15.854s37.976-14.633,42.854-12.194
			s5.842,13.876,5.842,13.876L1180,822.811V811.834z"/>
		<path clip-path="url(#SVGID_8_)" fill="#AC972C" d="M392.455,685.237C544.5,657.5,633.146,667.053,717,665.834
			s339.951-3.659,376.536,0s250.001,8.329,285.366-1.933s57.779-17.579,57.779-18.799s13.879,23.31,0,25.069
			c-13.877,1.76-109,16.395-188.268,20.053c-79.269,3.658-391.463,7.318-482.927,19.513s-213.065,1.434-276.829,0
			c-65.849-1.48-117.338-2.965-178.049,5.159c-61.681,8.254-67.285,8.046-56.171,3.664c22.739-8.965,54.575-17.841,86.282-23.938
			S392.455,685.237,392.455,685.237z"/>
		<path clip-path="url(#SVGID_8_)" fill="#AC972C" d="M975.805,624.029c0,0,152.438-13.414,174.39-13.414s60.977-3.658,103.659,0
			s128.049,6.911,131.707,5.895s60.289-7.521,60.289-7.521s-172.484,23.577-222.484,23.577S1011.171,627.688,975.805,624.029z"/>
		<path clip-path="url(#SVGID_8_)" fill="#004E47" d="M66.75,745.75c0,0,79.75-3.75,101.5-3.75s74.75,0,74.75,0
			s-2.75-10.75-24.25-9.75c0,0-4-9.25-13.75-11s-15.75-1.125-21.5,2.625c0,0-6.5-10.563-17.25-12.063s-16.75-2.531-27,4.969
			c0,0-17.25-26.266-38-23.766c0,0-25.25,1.742-36,23.492c0,0-18.25-35.004-51-36.754c0,0-9.617,2.248-13.934,14.498
			S0,747.691,0,747.691L66.75,745.75z"/>
		<path clip-path="url(#SVGID_8_)" fill="#004E47" d="M367.5,736.75c0,0,7.75-12,25.5-9c0,0,25.75-21.25,50-12.5
			c0,0,4.75-2.75,8.5-0.25c0,0-2.75-11.5,3.75-13.25c0,0,2-31.25,15.25-30.25c0,0,10.5,4.227,12.5,32.613c0,0,5.5-5.637,14.25,0
			c0,0,6,2.887,7.75,8.887c0,0,8.25-0.5,13,3.75s5.5,6.5,5.5,6.5s8.25-2.5,14.5-1.25s19,5,19,5l-21.75,3.75
			C535.25,730.75,381.75,737.75,367.5,736.75z"/>
		<path clip-path="url(#SVGID_8_)" fill="#00493B" d="M756.783,701.711c0,0,2.321,1.102,4.571,3.269c0,0,4.136-3.637,8.698,0.01
			c0,0,1.515-7.328,8.432-3.911c0,0,6.516-24.328,16.516-23.078v46l-39.45-0.667L756.783,701.711z"/>
		<path clip-path="url(#SVGID_8_)" fill="#003831" d="M645.5,712.875c0,0,7-10.613,13.25-8.775c0,0,2.75-2.232,5.75-0.182
			c0,0,3-8.168,7.5-7.168V710l-13.25,6.5L645.5,712.875z"/>
		<g clip-path="url(#SVGID_8_)">
			<polygon fill="#8B859A" points="671.5,682 672,726 691,727 691,683 681.5,669 			"/>
			<polygon fill="#FFE2D0" points="756,727 691,727 691,683 757,683 			"/>
			<path fill="#004760" d="M684,693.75c0,0.69-0.56,1.25-1.25,1.25h-0.5c-0.69,0-1.25-0.56-1.25-1.25v-8.5
				c0-0.69,0.56-1.25,1.25-1.25h0.5c0.69,0,1.25,0.56,1.25,1.25V693.75z"/>
			<path fill="#DDC4B6" d="M726,695.75c0,0.69-0.56,1.25-1.25,1.25h-0.5c-0.69,0-1.25-0.56-1.25-1.25v-7.5
				c0-0.69,0.56-1.25,1.25-1.25h0.5c0.69,0,1.25,0.56,1.25,1.25V695.75z"/>
			<path fill="#8B859A" d="M730,695.75c0,0.69-0.56,1.25-1.25,1.25h-0.5c-0.69,0-1.25-0.56-1.25-1.25v-7.5
				c0-0.69,0.56-1.25,1.25-1.25h0.5c0.69,0,1.25,0.56,1.25,1.25V695.75z"/>
			<path fill="#8B859A" d="M727,726c0,1.104-0.896,1-2,1h-0.5c-1.104,0-1.5,0.104-1.5-1v-13c0-1.104,0.896-2,2-2l0,0
				c1.104,0,2,0.896,2,2V726z"/>
			<path opacity="0.7" fill="#8B859A" d="M707.75,727c0.75,0,12.5-10.879,24.5-6.627c0,0,8.371-8.224,11.751-10.122
				c6.083-3.417,12.402-0.996,12.402-0.996L756,727H707.75z"/>
			<g>
				<g>
					<path fill="#004760" d="M670.375,678.625c0,0-2.125,5.563,1.5,3.438l9.563-14.031L691,682h66l4.25-0.5L751.5,664H682
						L670.375,678.625z"/>
					
						<line fill="none" stroke="#002440" stroke-linecap="round" stroke-miterlimit="10" x1="694.171" y1="664.479" x2="705" y2="681.358"/>
					
						<line fill="none" stroke="#002440" stroke-linecap="round" stroke-linejoin="bevel" stroke-miterlimit="10" x1="723.285" y1="664.479" x2="733.367" y2="681.358"/>
					
						<line fill="none" stroke="#002440" stroke-linecap="round" stroke-linejoin="bevel" stroke-miterlimit="10" x1="743.09" y1="664.913" x2="753.711" y2="681.358"/>
					<path fill="none" stroke="#002440" stroke-linecap="round" stroke-miterlimit="10" d="M671,682
						c0.107-0.157,0.099-0.163,10.438-13.969"/>
				</g>
				<polyline fill="none" stroke="#002440" stroke-linecap="round" stroke-miterlimit="10" points="681.583,668.281 
					685.147,673.647 691,682.5 757,682.5 761.25,681.5 				"/>
				
					<line fill="none" stroke="#002440" stroke-linecap="round" stroke-miterlimit="10" x1="755.55" y1="671.269" x2="685.916" y2="673.273"/>
			</g>
		</g>
		<path clip-path="url(#SVGID_8_)" fill="#004E47" d="M599.5,729.5l92.25,2c0,0-2.25-5.5-11.25-9c0,0-2.75-11.5-13.75-15.5
			s-18.25,0.75-20.25,5.25c0,0-15-2.75-22.25,1.25c0,0-5.25,3.25-7,7.25C617.25,720.75,601.5,724.5,599.5,729.5z"/>
		<path clip-path="url(#SVGID_8_)" fill="#005A4B" d="M726.167,730.166c0.083-0.25,5.75-3.582,10.083-3.166
			c0,0,3.249-14.334,19.083-11.167c0,0-2.166-10.417,9.084-10.25S777.167,712,777.5,714c0,0,3.166,0.25,3.833,4.833
			s-0.75,6.333-2,6.833c0,0,2.166,3.417-0.25,4.917L726.167,730.166z"/>
		<g clip-path="url(#SVGID_8_)">
			<polygon fill="#8B859A" points="835,733 793.25,730.917 794,676 836.25,676.417 			"/>
			<path fill="#FFE2D0" d="M862.833,654.583l-26.583,22.834L835,733l5.583,0.946L861,734l19.75-11.917c0,0,2.834-49,2.5-49
				S862.833,654.583,862.833,654.583z"/>
			<polygon fill="#004760" points="863.583,653.75 819.75,651.5 790.916,677 836.25,677 			"/>
			<polyline fill="none" stroke="#002440" stroke-width="2" stroke-miterlimit="10" points="790.791,676.751 836,677.417 
				836.453,677.109 861.813,654.751 862.771,654.125 883.184,672.583 			"/>
			<line fill="none" stroke="#002440" stroke-miterlimit="10" x1="806.961" y1="662.811" x2="849.314" y2="665.771"/>
			<line fill="none" stroke="#002440" stroke-miterlimit="10" x1="823.333" y1="675.391" x2="848.519" y2="652.977"/>
			<line fill="none" stroke="#002440" stroke-miterlimit="10" x1="802" y1="675.391" x2="828.138" y2="651.931"/>
		</g>
		<g clip-path="url(#SVGID_8_)">
			<g>
				<g>
					<polygon fill="#8B859A" points="928.908,682.765 862.524,675.602 859.567,732.214 926.476,735.709 					"/>
					<polygon fill="#FFE2D0" points="999.667,731.334 928,734.167 928,681 967.333,654.834 998.867,678.25 					"/>
					<path fill="#004760" d="M843.667,676.667L928,680.501l38.833-24c0,0,2.333-1.333-1-2S891,652.667,891,652.667l-47.333,23.334"
						/>
					<g>
						<g>
							<line fill="none" stroke="#002440" stroke-miterlimit="10" x1="844" y1="676.667" x2="927.667" y2="679.834"/>
							<line fill="none" stroke="#002440" stroke-miterlimit="10" x1="927.667" y1="679.834" x2="967.333" y2="654.834"/>
							<line fill="none" stroke="#002440" stroke-miterlimit="10" x1="967.333" y1="654.834" x2="1001" y2="678.25"/>
						</g>
						<line fill="none" stroke="#002440" stroke-miterlimit="10" x1="873.333" y1="661.501" x2="947.832" y2="667.244"/>
						<line fill="none" stroke="#002440" stroke-miterlimit="10" x1="902.674" y1="679.35" x2="941.277" y2="653.642"/>
						<line fill="none" stroke="#002440" stroke-miterlimit="10" x1="866.826" y1="677.531" x2="905.097" y2="652.834"/>
					</g>
				</g>
				<path opacity="0.7" fill="#8B859A" d="M850.5,676.542c-0.667,0.667-10.917,8.563-10.917,8.563l2.811,1.365l-1.123,46.016
					L861,734v-56.689L850.5,676.542z"/>
			</g>
			<g>
				<polygon fill="#002440" points="871.594,683.344 877.727,683.202 877.06,695.535 871,695.334 				"/>
				<rect x="885" y="684" fill="#002440" width="5" height="12"/>
				<polygon fill="#002440" points="897,684 897,696 901,696 902,684 898,684 				"/>
				<path fill="#002440" d="M906,684c0,0.668,0,12,0,12h4l0.833-12H906z"/>
				<polygon fill="#002440" points="915.833,684 915,696 921,696 921,684 				"/>
				<rect x="898" y="712" fill="#002440" width="6" height="15"/>
				<polygon fill="#002440" points="914,712 914,726 921,726 921,711 				"/>
				<line fill="none" stroke="#8B859A" stroke-miterlimit="10" x1="874.363" y1="683.28" x2="873.903" y2="695.431"/>
				<line fill="none" stroke="#8B859A" stroke-miterlimit="10" x1="871.135" y1="692.624" x2="877.214" y2="692.686"/>
				<line fill="none" stroke="#8B859A" stroke-miterlimit="10" x1="871.395" y1="687.373" x2="877.492" y2="687.534"/>
				<line fill="none" stroke="#8B859A" stroke-miterlimit="10" x1="887.281" y1="684" x2="887.5" y2="696"/>
				<line fill="none" stroke="#8B859A" stroke-miterlimit="10" x1="885" y1="693" x2="890" y2="693.031"/>
				<line fill="none" stroke="#8B859A" stroke-miterlimit="10" x1="885" y1="687.5" x2="890" y2="687.5"/>
				<line fill="none" stroke="#8B859A" stroke-miterlimit="10" x1="899.5" y1="684" x2="899.125" y2="696"/>
				<line fill="none" stroke="#8B859A" stroke-miterlimit="10" x1="897" y1="687.125" x2="901.729" y2="687.254"/>
				<line fill="none" stroke="#8B859A" stroke-miterlimit="10" x1="897" y1="692.624" x2="901.276" y2="692.686"/>
				<line fill="none" stroke="#8B859A" stroke-miterlimit="10" x1="908.416" y1="684" x2="907.969" y2="696"/>
				<line fill="none" stroke="#8B859A" stroke-miterlimit="10" x1="906" y1="692.624" x2="910.232" y2="692.654"/>
				<line fill="none" stroke="#8B859A" stroke-miterlimit="10" x1="910.588" y1="687.534" x2="906" y2="687.373"/>
				<line fill="none" stroke="#8B859A" stroke-miterlimit="10" x1="900.688" y1="712" x2="900.844" y2="727"/>
				<line fill="none" stroke="#8B859A" stroke-miterlimit="10" x1="898" y1="723.813" x2="904" y2="723.875"/>
				<line fill="none" stroke="#8B859A" stroke-miterlimit="10" x1="898" y1="716.5" x2="904" y2="716.5"/>
				<line fill="none" stroke="#8B859A" stroke-miterlimit="10" x1="914" y1="723.281" x2="921" y2="723.125"/>
				<line fill="none" stroke="#8B859A" stroke-miterlimit="10" x1="914" y1="716.188" x2="921" y2="716.063"/>
				<line fill="none" stroke="#8B859A" stroke-miterlimit="10" x1="917.342" y1="711.522" x2="917.375" y2="726"/>
				<line fill="none" stroke="#8B859A" stroke-miterlimit="10" x1="918.25" y1="684" x2="917.833" y2="696"/>
				<line fill="none" stroke="#8B859A" stroke-miterlimit="10" x1="915" y1="692.5" x2="921" y2="692.5"/>
				<line fill="none" stroke="#8B859A" stroke-miterlimit="10" x1="915.594" y1="687.453" x2="921" y2="687.5"/>
			</g>
		</g>
		<g clip-path="url(#SVGID_8_)">
			<path fill="#002440" d="M801,683.75c0,0,1.313-1.406,2.188-1.078s2.813-0.125,2.813-0.125V696l-5-1V683.75z"/>
			<polygon fill="#002440" points="816,695.375 821.188,696 822.156,682.547 816,682.5 			"/>
			<path fill="#002440" d="M829.188,696.227c0.375-0.5,5.031,0.113,5.031,0.113L835,683h-5L829.188,696.227z"/>
			<path fill="#002440" d="M828,713c0,0,5-0.375,5,0s0,11,0,11h-6L828,713z"/>
			<polygon fill="#002440" points="814,712.833 821,713 821,724 814,724.375 			"/>
			<path fill="#002440" d="M801,713.5c0,0,4.75-1.084,5-0.667S806,724,806,724l-5.75-0.625L801,713.5z"/>
			<line fill="none" stroke="#8B859A" stroke-miterlimit="10" x1="803.5" y1="713" x2="803.181" y2="723.693"/>
			<line fill="none" stroke="#8B859A" stroke-miterlimit="10" x1="800.469" y1="720.5" x2="806" y2="721"/>
			<line fill="none" stroke="#8B859A" stroke-miterlimit="10" x1="801" y1="716.5" x2="806" y2="716.5"/>
			<line fill="none" stroke="#8B859A" stroke-miterlimit="10" x1="817.5" y1="713" x2="817.5" y2="724"/>
			<line fill="none" stroke="#8B859A" stroke-miterlimit="10" x1="814" y1="721.5" x2="821" y2="721"/>
			<line fill="none" stroke="#8B859A" stroke-miterlimit="10" x1="814" y1="716.5" x2="821" y2="716.5"/>
			<line fill="none" stroke="#8B859A" stroke-miterlimit="10" x1="830.25" y1="712.737" x2="830" y2="723.693"/>
			<line fill="none" stroke="#8B859A" stroke-miterlimit="10" x1="827" y1="721" x2="833" y2="720.5"/>
			<line fill="none" stroke="#8B859A" stroke-miterlimit="10" x1="827.73" y1="715.964" x2="833" y2="715.875"/>
			<line fill="none" stroke="#8B859A" stroke-miterlimit="10" x1="831.625" y1="696" x2="833" y2="683"/>
			<line fill="none" stroke="#8B859A" stroke-miterlimit="10" x1="829.409" y1="692.619" x2="834.428" y2="692.768"/>
			<line fill="none" stroke="#8B859A" stroke-miterlimit="10" x1="829.738" y1="687.257" x2="834.729" y2="687.631"/>
			<line fill="none" stroke="#8B859A" stroke-miterlimit="10" x1="821.861" y1="686.633" x2="816" y2="686.25"/>
			<line fill="none" stroke="#8B859A" stroke-miterlimit="10" x1="816" y1="691.75" x2="821.475" y2="692.007"/>
			<line fill="none" stroke="#8B859A" stroke-miterlimit="10" x1="819.078" y1="682.5" x2="818.737" y2="695.705"/>
			<line fill="none" stroke="#8B859A" stroke-miterlimit="10" x1="803.188" y1="682.672" x2="803.34" y2="695.468"/>
			<line fill="none" stroke="#8B859A" stroke-miterlimit="10" x1="801" y1="691.5" x2="806" y2="691.5"/>
			<line fill="none" stroke="#8B859A" stroke-miterlimit="10" x1="801" y1="686.633" x2="806" y2="686.25"/>
		</g>
		<path clip-path="url(#SVGID_8_)" fill="#004E47" d="M835,733.667L861.667,735c0,0,2-6.999-1.667-7.499c0,0-2.39-6-6.861-5
			c0,0-6.428,0.833-4.533,7.333c0,0-3.772-1.667-4.605,1c0,0-9-1.833-9,2.167"/>
		<g clip-path="url(#SVGID_8_)">
			<rect x="977" y="711" fill="#004760" width="9" height="21"/>
			<rect x="976" y="684" fill="#FFCEAD" width="11" height="11"/>
			<rect x="986" y="684" fill="#8B859A" width="2" height="11"/>
		</g>
		<path opacity="0.7" clip-path="url(#SVGID_8_)" fill="#8B859A" d="M953.513,733.158l46.154-1.824c0,0,0-32.666-0.5-32.166
			s-1.668,3.167-10.834,10s-17.666,11.666-22.666,13.833S954.513,730.658,953.513,733.158z"/>
		<path clip-path="url(#SVGID_8_)" fill="#00352F" d="M999.236,710.875c0,0,31.764-0.75,36.764,1.625V673
			c0,0-10.875-0.875-13.125,14.375c0,0-7.875-3.885-11.75,5.37c0,0-4.375-0.745-5,4.005c0,0-7.04-0.916-7.03,0.751
			S998.876,711,998.876,711"/>
		<g clip-path="url(#SVGID_8_)">
			<path fill="#8B859A" d="M1036,662v51c0,0,82,1.375,82.5,1.5s-1.875-55.5-1.875-55.5L1036,662z"/>
			<path fill="#FFE2D0" d="M1183,713.375c0-0.5,2.75-58.125,2.75-58.125L1155.333,619l-38.708,40l1.875,55.5L1183,713.375z"/>
			<g>
				<path fill="#002440" d="M1046,684h9v16c0,0-8.375,0.25-9,0S1046,684,1046,684z"/>
				<polygon fill="#002440" points="1063.938,713.563 1062.875,685 1069,685 1069,715 				"/>
				<polygon fill="#002440" points="1085.875,714.5 1084.875,686 1090,686 1089.375,715 				"/>
				<path fill="#002440" d="M1099.875,684c0,0.25-0.375,17.875,0,18.25s8.5-1.125,8.5-1.125l0.75-17.125H1099.875z"/>
				<line fill="none" stroke="#8B859A" stroke-miterlimit="10" x1="1050.5" y1="684" x2="1050.5" y2="700"/>
				<line fill="none" stroke="#8B859A" stroke-miterlimit="10" x1="1104.5" y1="684" x2="1104.5" y2="702"/>
				<line fill="none" stroke="#8B859A" stroke-miterlimit="10" x1="1099.709" y1="696.991" x2="1108.572" y2="696.634"/>
				<line fill="none" stroke="#8B859A" stroke-miterlimit="10" x1="1099.779" y1="689.621" x2="1108.89" y2="689.376"/>
				<line fill="none" stroke="#8B859A" stroke-miterlimit="10" x1="1045.723" y1="695.625" x2="1055" y2="695.75"/>
				<line fill="none" stroke="#8B859A" stroke-miterlimit="10" x1="1045.839" y1="688.87" x2="1055" y2="689.376"/>
			</g>
			<g>
				<polygon fill="#FFCEAD" points="1133,652 1133,664 1144.875,663.25 1145.625,652.625 				"/>
				<polygon fill="#8B859A" points="1143.601,652.521 1143.656,663.383 1145.52,663.25 1145.813,652.625 				"/>
				<path fill="#FFCEAD" d="M1158.438,651.875c0,0.875-0.594,11.688-0.094,11.563c0.389-0.097,0.365-0.128,10.656,0.063V653
					L1158.438,651.875z"/>
				<path fill="#8B859A" d="M1167.307,652.819c0,0.875,0.031,10.618,0.031,10.618l1.662,0.063V653L1167.307,652.819z"/>
				<path fill="#FFCEAD" d="M1133.188,687.813c-0.375,0.75,0.094,12.656,0.719,12.281s11.094-1.469,11.094-1.469V688
					L1133.188,687.813z"/>
				<path fill="#8B859A" d="M1143.16,687.971c-0.059,0.75-0.404,10.846-0.018,10.854c0.421,0.01,1.857-0.2,1.857-0.2V688
					L1143.16,687.971z"/>
			</g>
			<path fill="#004760" d="M1024.75,662.25c0.667,0,94.083-2.082,94.083-2.082l36.5-41.168H1064L1024.75,662.25z"/>
			<polyline fill="none" stroke="#002440" stroke-miterlimit="10" points="1024.75,662.25 1118.833,660.168 1119.162,659.797 
				1155.333,619 			"/>
			<line fill="none" stroke="#002440" stroke-miterlimit="10" x1="1155.333" y1="619" x2="1186.667" y2="656.25"/>
			<line fill="none" stroke="#002440" stroke-miterlimit="10" x1="1045.723" y1="639.141" x2="1140.688" y2="635.519"/>
			<line fill="none" stroke="#002440" stroke-miterlimit="10" x1="1133.054" y1="619" x2="1096.663" y2="660.658"/>
			<line fill="none" stroke="#002440" stroke-miterlimit="10" x1="1108.572" y1="619" x2="1072.061" y2="660.658"/>
			<line fill="none" stroke="#002440" stroke-miterlimit="10" x1="1081.5" y1="619" x2="1046.473" y2="661.61"/>
		</g>
		<path opacity="0.7" clip-path="url(#SVGID_8_)" fill="#8B859A" d="M1118.875,716.17c0,0,15.059-10.962,27.688-8.581
			c0,0,2.274-5.927,9.642-2.951c0,0,17.795-22.294,27.795-5.928v14.877L1118.875,716.17z"/>
		<path clip-path="url(#SVGID_8_)" fill="#005A4B" d="M1195,716l-62,2.17c0,0,14.25-9.21,26.25-7.21"/>
		<path clip-path="url(#SVGID_8_)" fill="#005A4B" d="M1133,718.17c0,0,14.25-9.21,26.25-7.21c0,0,2.25-4.979,9.25-2.479
			c0,0,17-18.73,26.5-4.98V716L1133,718.17z"/>
		<path clip-path="url(#SVGID_8_)" fill="#0F6853" d="M133.5,751.5c0,0,85.5,2.5,114,10s53.5,1.5,69,4.5s65,5.5,66.5,6
			s118.5-15,118.5-15l-48.5-1c0,0-4-6-31-8.25S185.5,739.5,133.5,751.5z"/>
		<path clip-path="url(#SVGID_8_)" fill="#0F6853" d="M645.375,811c-3.406,0.203,26.5-7,46.25-5.5s120.35,6,156.831,5.5
			s190.083,2.314,228.798-2.843s86.73-11.657,86.73-11.657l21.758,20c0,0,16.254-2.5,43.754-4s43.502-11,59.002-9.5
			s41.501-4,50.501-6.5S1348,794,1348,794l92,4v102H879l-1.786-25c0,0-49.792-29.5-70.253-33.5S653.75,810.5,645.375,811z"/>
		<path clip-path="url(#SVGID_8_)" fill="#004E47" d="M1151.188,825c-2.688,6-2.9,6.5,6.956,5.5s35.856-4.094,45.856-2.547
			s20.5,1.953,33.5,0s58-8.453,72.5-8.453s46-6.5,60-7.5s69.682-5,69.682-5l0.318-12.5l-94-2.5c0,0-20,3.5-32.5,7
			s-21.172,2.438-43.172,5.938s-80.086,10.563-84.586,11.563S1151.188,825,1151.188,825z"/>
		<path clip-path="url(#SVGID_8_)" fill="#00352F" d="M1440,696c-0.318,0.5-41-25.648-60.5,14.676c0,0-44.152-20.176-58.576,15.324
			s2.576,28.5,2.576,28.5l82,14.5h34.5V696z"/>
		<path clip-path="url(#SVGID_8_)" fill="#004E47" d="M859.139,860c-2.007,0.322,18.588,22,18.588,22s100.648-7.5,139.711-5.5
			S1278,871,1314.5,867s125.182-17.5,125.182-17.5l0.318-40c0,0-55.5,10.5-93.5,17s-239.879,26-274.439,24.5
			S890.277,855,859.139,860z"/>
		<path clip-path="url(#SVGID_8_)" fill="#004E47" d="M968,747.5c0,0,22.187,4,44.187,5s41.782,5,53.845,4.5
			s43.016-2.914,60.516,0.043s53.477-0.457,68.477,0s21.488-1.043,21.488-1.043s-11.006-11-32.506-8.5c0,0-19.878-18.5-38.191-9.5
			c0,0-25.313-26-34.313-12c0,0-13.431-20.373-34.216-17.687s-22.341,3.964-30.813,14.075c0,0-12.973-4.389-15.973,4.611
			c0,0-19.313-6.5-26.313,10.5c0,0-29.187-8-36.187,8V747.5z"/>
		<path clip-path="url(#SVGID_8_)" fill="#004E47" d="M1211.5,738.5L1248,749l13,21h20c0,0,21,8.5,32.5,9s24.5-2,28.5,5.5
			s1.887,7.88,1.887,7.88L1440,794.5V755c0,0-2-41-25-28c0,0-11,11-16,23.5c0,0-14-15-28,2c0,0-22.5-20.5-45.25-14
			c0,0-1.008-4.327-3.527-9.846c-4.189-9.178-12.559-21.652-27.422-22.999c0,0-19.801-5.405-25.801,17.47
			c0,0-26.5-12.309-30.5,10.033C1238.5,733.158,1218,722.5,1211.5,738.5z"/>
		<g id="Aspas" display="none" clip-path="url(#SVGID_8_)">
			<polyline display="inline" fill="#FFFFFF" points="774,502 781,502 786,515.25 770,563 764,563 774,502.167 774,502 			"/>
			<path display="inline" fill="#FFFFFF" d="M727.5,457.5c0,0-0.875-2.625,1.5-1.875s48.25,29.875,48.375,30.25
				s4.958,11.25,4.958,11.25l-4.708,7.5L727.5,457.5z"/>
			<path display="inline" fill="#FFFFFF" d="M841.25,472.875l0.625,5.5c0,0-44,25.125-44.875,25.125s-20.125-2.75-20.125-2.75
				l1.458-4.25L841.25,472.875z"/>
			<polygon display="inline" fill="#FFFFFF" points="952,442.625 957.625,448.125 953.75,469.125 907.5,509.75 900.25,503.5 			"/>
			<polygon display="inline" fill="#FFFFFF" points="927.688,362.438 931.906,359.531 966.203,427.828 961.875,448 954,448 			"/>
			<path display="inline" fill="#FFFFFF" d="M960.188,440.813c0.375,0.25,86.469,13.906,86.469,13.906L1045.5,460H976
				l-18.375-13.125L960.188,440.813z"/>
			<path display="inline" fill="#FFFFFF" d="M1058,485.875c0,0-0.25-2.875,0-3s51.25-8.75,51.25-8.75l13,8.209l-1.875,5.667
				L1058,485.875z"/>
			<path display="inline" fill="#FFFFFF" d="M1148.125,426.25l3.25,2.75l-17,47.667c0,0-8,6.001-8.375,5.667s-9.5-1.271-9.5-1.271
				L1148.125,426.25z"/>
			<path display="inline" fill="#FFFFFF" d="M1147.625,535.25l4.75-3.125l-16.625-41.25l-10.625-6.375c0,0-5.771,0.697-6.136,1.474
				S1147.625,535.25,1147.625,535.25z"/>
			<path display="inline" fill="#FFFFFF" d="M1281,447.875c0.125,0.375,4.25,3.5,4.25,4s-0.583,22.375-0.583,22.375l-32.792,38.875
				c0,0-8.25-1.5-7.125-4S1281,447.875,1281,447.875z"/>
			<path display="inline" fill="#FFFFFF" d="M1246,382.25c0,0,2-3.25,3.5-2.5s40.375,52.375,40.375,52.375L1289,450l-9,0.75
				L1246,382.25z"/>
			<path display="inline" fill="#FFFFFF" d="M1284.667,446.625L1364.25,444c0,0,0.375,5.625,0,6s-61.625,11.5-61.75,11.125
				s-17.833-10.375-17.833-10.375"/>
		</g>
	</g>
</g>
<g id="Bushes">
</g>
<g id="Aspas_2_">
</g>
<g id="Rock">
</g>
<g id="Ground">
</g>
<g id="All">
</g>
</svg>
