<?xml version="1.0" encoding="utf-8"?>
<!-- Generator: Adobe Illustrator 16.0.0, SVG Export Plug-In . SVG Version: 6.00 Build 0)  -->
<!DOCTYPE svg PUBLIC "-//W3C//DTD SVG 1.1//EN" "http://www.w3.org/Graphics/SVG/1.1/DTD/svg11.dtd">
<svg version="1.1" xmlns="http://www.w3.org/2000/svg" xmlns:xlink="http://www.w3.org/1999/xlink" x="0px" y="0px" width="1440px"
	 height="900px" viewBox="0 0 1440 900" enable-background="new 0 0 1440 900" xml:space="preserve">
<g id="Imgs" display="none">
</g>
<g id="Sky">
</g>
<g id="Clouds">
</g>
<g id="Buldings">
</g>
<g id="Mountains">
</g>
<g id="City">
</g>
<g id="Bushes">
</g>
<g id="Aspas_2_">
</g>
<g id="Rock">
</g>
<g id="Ground">
	<g>
		<defs>
			<rect id="SVGID_21_" y="-1" width="1441" height="1801"/>
		</defs>
		<clipPath id="SVGID_8_">
			<use xlink:href="#SVGID_21_"  overflow="visible"/>
		</clipPath>
		<path clip-path="url(#SVGID_8_)" fill="#001420" d="M438.086,408.997l-18-52.5l16-10.5l39,66l-5-86l14-1l9,82l7-86l13,82l28-77
			l17,9c0,0-9,24-10,28s21-16,23-20s5,5,5,5l-35,61c0,0,13-5,14-8s14-26,14-26l25,23l32,14l20,13l-31.122-39.087l-25.878-32.502
			l21-23.411l41,56c0,0-33-74-33-77s16-6,16-6s70,137,57,113s-48-121-48-121l17-7l61.333,126.667c0,0-146,48.667-150.667,48.667
			s-145.333-10-145.333-10L438.086,408.997z"/>
		<path clip-path="url(#SVGID_8_)" fill="#001420" d="M29.086,421.997l-18-52.5l16-10.5l39,66l-5-86l14-1l9,82l7-86l13,82l28-77
			l17,9c0,0-9,24-10,28s21-16,23-20s5,5,5,5l-35,61c0,0,13-5,14-8s14-26,14-26l25,23l32,14l20,13l-31.122-39.087l-25.878-32.502
			l21-23.411l41,56c0,0-33-74-33-77s16-6,16-6s70,137,57,113s-48-121-48-121l17-7l61.333,126.667c0,0-146,48.667-150.667,48.667
			s-145.333-10-145.333-10L29.086,421.997z"/>
		<path clip-path="url(#SVGID_8_)" fill="#001420" d="M1082.086,408.997l-18-52.5l16-10.5l39,66l-5-86l14-1l9,82l7-86l13,82l28-77
			l17,9c0,0-9,24-10,28s21-16,23-20s5,5,5,5l-35,61c0,0,13-5,14-8s14-26,14-26l25,23l32,14l20,13l-31.121-39.087l-25.879-32.502
			l21-23.411l41,56c0,0-33-74-33-77s16-6,16-6s70,137,57,113s-48-121-48-121l17-7l61.334,126.667c0,0-146,48.667-150.667,48.667
			s-145.333-10-145.333-10L1082.086,408.997z"/>
		<path clip-path="url(#SVGID_8_)" fill="#001420" d="M418.086,418.247l-21.5-45.125l-6.75,32.938l-34.875,6.969
			c0,0-7.48-16.016-10.48-17.516S332,390.997,332,395.497s0,9.5,0,9.5l-15-2V383h-12v18.997c0,0-7.75-34.75-11.75-28.875
			S278,385.997,278,385.997v20l-39.207,2l-14.854-28c0,0-29.927,33-29.927,30s25.037-53.5,25.037-53.5l-16.982-41.5l-34.991,81
			l16.004-108c-6-4-45.998,137-45.998,137l18.001-172c0,0-14.999-20-17.999-14s-13,38-13,38l-10-39.123c0,0-27,24.123-27,27.123
			s33,138,33,138l-49-110l-21,19c0,0,21.5,61,39.75,82.5c1.941,2.287-66.426-45.25-85.422-37.25L0,356.044V1799h1441.086
			l-0.635-1368.502l0.635-117.25c0,0-34,10.874-43,42.874l-33-57.063l-21,13.969l25,65.984l11,34.988l-25,0.998l-24-69.001
			c0,0-16-3.001-17,0.999s-19,59-19,61s-51-152-47-163s-48,27.501-48,27.501s32,115.502,46,134.502h-15l-65-101.752l-7,14.875
			c0,0,24,72.937,29,81.937s-6-11.031-17-1.031l-41-42.016l-6,37.992l-50-30.503l-14,40.498H1041v-51.003l-17.207-3l-6.854,41
			l-8.927-39l-5.963,37l-16.982-30c-9,3-8.991,23-8.991,23s-9.782-19.846-11.996-17c-3.5,4.5-3.248,10.5-2.123,15.375
			s3.126,8.625,3.126,8.625l2.001,11l-22-7l2,10l-13-8l15-10l-21-37c0,0-56,10-81,41l61-61l-21-21l-26,30l17-32c-9-6-57,69-57,69
			l-10-5l34-83l-6-9l-50,83l-6-3l39-86l-19-15c0,0-37,61-42,92l-10-13l-2-78l-53,7c0,0,10,61,16,85l-35-80l-12,6c0,0,28,95,38,123"
			/>
		<g id="Florcitas" clip-path="url(#SVGID_8_)">
			<g>
				<g>
					<path fill="#FFFFFF" d="M98.306,324.599c-1.17,2.854-1.306,6.935,2.022,8.36c0.875,0.375,1.922,0.125,2.204-0.896
						c0.819-2.971,0.896-7.03-3.113-7.232c-0.817-0.041-1.501,0.714-1.5,1.5c0.002,1.795,0.119,3.439,0.871,5.091
						c0.453,0.996,2.127,0.966,2.59,0c0.973-2.029,1.312-3.762,0.333-5.848c-0.502-1.071-2.038-0.877-2.59,0
						c-1.433,2.274-2.172,7.269,1.962,6.924c1.914-0.159,1.929-3.161,0-3c-0.512,0.043-0.377-0.092-0.176,0.188
						c-0.098-0.137-0.045-0.433-0.022-0.587c0.108-0.734,0.436-1.391,0.826-2.012c-0.864,0-1.727,0-2.59,0
						c0.471,1.006,0.125,1.863-0.333,2.82c0.864,0,1.727,0,2.59,0c-0.51-1.121-0.46-2.374-0.462-3.577c-0.5,0.5-1,1-1.5,1.5
						c1.295,0.065,0.419,2.713,0.22,3.436c0.735-0.299,1.469-0.598,2.204-0.896c-2.035-0.872-1.31-3.348-0.644-4.974
						C101.933,323.605,99.03,322.834,98.306,324.599L98.306,324.599z"/>
				</g>
			</g>
			<g>
				<g>
					<path fill="#FFFFFF" d="M96.306,343.932c-0.193,0.55-0.44,1.079-0.612,1.638c-0.251,0.817-0.229,1.665-0.055,2.493
						c0.232,1.104,1.76,1.448,2.507,0.662c0.789-0.831,1.429-1.878,1.719-2.996c0.487-1.874-2.406-2.668-2.893-0.797
						c-0.027,0.103-0.205,0.588-0.109,0.362c-0.206,0.485-0.476,0.928-0.839,1.31c0.836,0.221,1.671,0.441,2.507,0.662
						c-0.181-0.861,0.389-1.746,0.667-2.537c0.271-0.771-0.301-1.64-1.048-1.845C97.322,342.655,96.577,343.16,96.306,343.932
						L96.306,343.932z"/>
				</g>
			</g>
			<g>
				<g>
					<path fill="#FFFFFF" d="M106.025,347.391c-0.541-0.67-0.299-1.11-0.351-0.536c-0.032,0.351,0.065,0.701,0.223,1.012
						c0.357,0.7,1.125,0.937,1.855,0.964c0.516,0.02,1.045-0.298,1.295-0.743c0.613-1.091,1.148-2.329,0.872-3.601
						c-0.279-1.284-1.539-1.752-2.701-1.575c-0.911,0.138-1.703,0.919-2.169,1.662c-0.647,1.032-0.708,2.337-0.411,3.489
						c0.204,0.792,1.067,1.262,1.845,1.048c0.797-0.219,1.252-1.054,1.048-1.845c-0.029-0.113-0.112-0.681-0.058-0.195
						c-0.021-0.182-0.018-0.365-0.007-0.547c0.02-0.32-0.064,0.371-0.008,0.063c0.015-0.08,0.036-0.158,0.058-0.236
						c0.021-0.075,0.048-0.148,0.076-0.222c-0.162,0.434-0.078,0.188-0.026,0.085c0.055-0.106,0.121-0.206,0.19-0.303
						c-0.301,0.424-0.028,0.054,0.077-0.046c0.254-0.239-0.326,0.202,0.04-0.021c0.361-0.221-0.305,0.091-0.007-0.005
						c0.356-0.115-0.258,0.012-0.109,0.003c0.301-0.018-0.442-0.124-0.096-0.009c-0.435-0.146-0.335-0.155-0.211-0.073
						c-0.333-0.222-0.155-0.068-0.389-0.386c0.165,0.223-0.108-0.426-0.024-0.036c-0.114-0.523-0.026-0.198-0.036-0.02
						c-0.015,0.29,0.068-0.396,0.011-0.09c-0.016,0.088-0.041,0.175-0.064,0.261c-0.027,0.098-0.061,0.193-0.094,0.288
						c-0.022,0.063-0.17,0.399-0.023,0.066c-0.111,0.25-0.242,0.491-0.375,0.729c0.432-0.248,0.864-0.495,1.295-0.743
						c-0.304-0.022-0.197,0.02,0.322,0.126c0.408,1.104,0.607,1.426,0.595,0.966c0-0.092,0.015-0.186,0.02-0.277
						c0.026-0.541-0.218-0.972-0.543-1.375c-0.515-0.637-1.589-0.532-2.121,0C105.402,345.893,105.512,346.756,106.025,347.391
						L106.025,347.391z"/>
				</g>
			</g>
			<g>
				<g>
					<path fill="#FFFFFF" d="M98.919,353.664c0.008,1.188,0.117,2.405,0.894,3.353c0.832,1.014,2.297,0.606,2.95-0.336
						c0.464-0.669,0.498-1.668,0.233-2.415c-0.427-1.205-1.37-1.905-2.512-2.382c-0.92-0.385-1.899,0.565-1.899,1.446
						c0,0.556,0,1.111,0,1.667c0,1.935,3,1.935,3,0c0-0.556,0-1.111,0-1.667c-0.633,0.482-1.266,0.964-1.899,1.446
						c-0.361-0.15,0.067,0.052,0.135,0.091c0.375,0.216-0.148-0.164,0.15,0.104c0.085,0.076,0.334,0.391,0.04,0.004
						c0.075,0.099,0.135,0.208,0.189,0.318c-0.214-0.436-0.074-0.172-0.038-0.04c0.098,0.36-0.018-0.391-0.004-0.034
						c0.015,0.393,0.05-0.211,0.023-0.071c-0.069,0.355,0.115-0.207,0.057-0.088c-0.125,0.258,0.249-0.284,0.119-0.138
						c-0.102,0.098-0.028,0.043,0.222-0.165c-0.158,0.115,0.426-0.15,0.24-0.101c0.37-0.099,0.65-0.039,0.936,0.111
						c0.247,0.204,0.316,0.258,0.209,0.161c-0.162-0.149,0.243,0.349,0.114,0.146c-0.188-0.293,0.107,0.311,0.014,0.058
						c-0.051-0.139-0.082-0.283-0.112-0.427c-0.014-0.069-0.026-0.14-0.036-0.209c0.066,0.408,0.006-0.019,0-0.088
						c-0.021-0.247-0.024-0.496-0.026-0.744c-0.005-0.817-0.678-1.5-1.5-1.5C99.606,352.164,98.914,352.847,98.919,353.664
						L98.919,353.664z"/>
				</g>
			</g>
			<g>
				<g>
					<path fill="#FFFFFF" d="M109.973,360.599c-0.319,1.649-0.37,3.455,1.113,4.547c0.954,0.702,2.423,0.389,3.32-0.243
						c1.054-0.742,1.811-1.904,1.504-3.236c-0.385-1.674-2.386-2.084-3.824-2.169c-0.479-0.028-1.09,0.297-1.295,0.743
						c-0.411,0.896-0.537,1.775-0.538,2.757c-0.002,1.935,2.998,1.935,3,0c0-0.527-0.032-0.895,0.128-1.243
						c-0.432,0.248-0.864,0.495-1.295,0.743c0.149,0.009,0.297,0.021,0.445,0.036c-0.452-0.047-0.012,0.001,0.085,0.02
						c0.112,0.021,0.222,0.049,0.331,0.079c0.128,0.035,0.548,0.219,0.051-0.002c0.075,0.033,0.147,0.074,0.218,0.117
						c0.294,0.178-0.283-0.261-0.054-0.036c0.219,0.215-0.205-0.299-0.092-0.122c0.161,0.253-0.132-0.406-0.053-0.125
						c0.059,0.209-0.038-0.486-0.027-0.196c0.013,0.345,0.063-0.321,0.026-0.15c-0.012,0.057-0.031,0.111-0.051,0.166
						c0.191-0.523,0.108-0.247,0.031-0.114c-0.032,0.056-0.069,0.107-0.106,0.158c0.328-0.453,0.141-0.182,0.043-0.079
						c-0.046,0.049-0.096,0.095-0.146,0.14c-0.245,0.219,0.331-0.236,0.062-0.046c-0.111,0.078-0.23,0.145-0.353,0.204
						c-0.208,0.101,0.427-0.164,0.128-0.057c-0.076,0.027-0.155,0.047-0.233,0.064c-0.307,0.069,0.393-0.039,0.167-0.021
						c-0.075,0.007-0.151,0.003-0.226-0.004c0.549,0.048,0.329,0.052,0.184,0.01c-0.159-0.046,0.42,0.223,0.12,0.042
						c-0.183-0.111,0.344,0.303,0.127,0.091c-0.225-0.218,0.225,0.347,0.055,0.064c-0.171-0.285,0.119,0.33,0.034,0.1
						c-0.038-0.103-0.062-0.21-0.083-0.317c-0.049-0.243,0.038,0.43,0.009,0.02c-0.01-0.147-0.007-0.296-0.002-0.443
						c0.005-0.136,0.018-0.271,0.032-0.404c-0.047,0.445,0.037-0.193,0.057-0.294c0.155-0.802-0.214-1.615-1.048-1.845
						C111.077,359.347,110.128,359.795,109.973,360.599L109.973,360.599z"/>
				</g>
			</g>
			<g>
				<g>
					<path fill="#FFFFFF" d="M61.124,348.24c-0.979,2.15-2.357,5.514,0.141,7.181c1.73,1.155,4.259-0.129,5.649-1.235
						c1.495-1.189,2.778-3.273,1.574-5.119c-1.334-2.046-5.073-2.548-7.147-1.536c-4.515,2.201-0.932,9.068,1.615,11.372
						c1.442,1.306,3.683,1.759,4.774-0.234c1.558-2.849,0.203-6.79-2.485-8.342c-1.972-1.139-4.275-0.623-5.914,0.791
						c-1.989,1.716-1.943,4.545-0.946,6.727c2.002,4.379,8.981,5.292,10.82,0.32c1.557-4.211-1.442-9.418-6.118-9.334
						c-5.424,0.098-6.885,7.299-2.757,10.129c1.6,1.098,3.099-1.504,1.514-2.59c-1.563-1.071-1.229-3.125,0.217-4.145
						c1.681-1.187,3.39,0.257,4.158,1.718c0.692,1.315,0.558,3.062-0.476,4.132c-1.576,1.632-3.964-0.341-4.767-1.744
						c-0.938-1.641,0.334-3.95,2.295-3.571c1.789,0.346,2.187,2.369,1.972,3.894c-0.026,0.182-0.174,0.63-0.148,0.602
						c0.27-0.301,0.645-0.081,0.482-0.153c-0.645-0.288-1.152-0.928-1.558-1.482c-0.877-1.199-1.992-3.111-1.771-4.676
						c0.215-1.523,2.994-0.945,3.764-0.206c-0.135-0.13-0.067,0.18-0.376,0.549c-0.468,0.56-1.126,1.037-1.802,1.313
						c-0.514,0.209-1.083,0.136-0.966,0.313c-0.412-0.623,0.58-2.565,0.849-3.157C64.51,348.008,61.925,346.481,61.124,348.24
						L61.124,348.24z"/>
				</g>
			</g>
			<g>
				<g>
					<path fill="#FFFFFF" d="M162.639,398.599c-0.901,2.335-0.167,5.278,1.817,6.837c1.566,1.23,5.15,1.841,5.867-0.724
						c0.558-1.996-1.064-3.826-2.525-4.935c-1.505-1.142-3.536-1.096-5.317-0.842c-1.258,0.179-2.279,0.975-2.391,2.285
						c-0.087,1.02,0.778,1.961,1.505,2.549c1.74,1.409,4.194,2.625,6.482,2.572c1.266-0.028,2.322-0.662,2.75-1.877
						c0.469-1.328-0.358-2.922-0.997-4.033c-1.308-2.274-3.833-2.893-5.919-1.263c-1.792,1.399-1.604,4.34-0.369,6.005
						c1.139,1.536,3.034,2.546,4.97,2.244c2.143-0.334,2.953-2.488,2.742-4.421c-0.284-2.599-2.073-6.55-5.315-5.026
						c-2.143,1.007-3.496,4.125-3.357,6.391c0.088,1.425,0.862,2.69,2.298,3.073c1.813,0.482,3.8-0.581,5.298-1.476
						c1.659-0.989,0.151-3.584-1.514-2.59c-0.688,0.41-1.381,0.794-2.137,1.033c-0.148,0.047-0.3,0.082-0.451,0.115
						c-0.447,0.1,0.281-0.013-0.135,0.02c-0.117,0.009-0.234,0.004-0.351-0.002c0.409,0.021,0.02-0.011-0.097-0.049
						c0.128,0.042,0.225,0.146,0.086-0.003c0.272,0.291,0.105,0.136,0.04,0.022c-0.157-0.275,0.117,0.336,0.014,0.027
						c-0.158-0.472-0.033,0.119-0.057-0.273c-0.009-0.144,0.06-0.874,0.001-0.473c0.167-1.142,0.381-1.581,1.041-2.524
						c0.224-0.321-0.198,0.235,0.047-0.059c0.07-0.084,0.146-0.164,0.222-0.243c0.073-0.076,0.151-0.146,0.23-0.216
						c0.263-0.234-0.268,0.186,0.013-0.006c0.405-0.275-0.113-0.017,0.213-0.116c0.3-0.091-0.376,0.022-0.068,0.002
						c0.4-0.028-0.231-0.066,0.013-0.003c0.01,0.002-0.082-0.055-0.023-0.001c0.047,0.043,0.28,0.322,0.069,0.045
						c0.081,0.106,0.149,0.222,0.218,0.336c0.345,0.576,0.537,1.364,0.708,2.15c0.081,0.373,0.062,0.759-0.038,1.123
						c-0.027,0.099-0.265,0.234-0.039,0.14c-0.456,0.19-0.964,0.012-1.558-0.354c-0.547-0.339-0.884-0.888-1.028-1.5
						c-0.116-0.491,0.191-1.487,0.857-1.372c0.692,0.119,1.064,1.223,1.321,1.788c-0.023-0.051,0.133,0.444,0.168,0.604
						c0.004,0.017-0.04,0.205-0.008,0.087c0.07-0.255,0.13-0.289,0.363-0.377c-0.397,0.149,0.023,0.033-0.124,0.047
						c-0.169,0.016-0.34,0.007-0.509-0.003c-0.436-0.027,0.114,0.027-0.163-0.021c-0.202-0.035-0.401-0.085-0.599-0.138
						c-0.427-0.111-0.843-0.265-1.252-0.431c0.294,0.119-0.216-0.104-0.266-0.127c-0.204-0.097-0.405-0.201-0.604-0.31
						c-0.377-0.203-0.739-0.433-1.088-0.682c-0.214-0.151,0.164,0.144-0.152-0.121c-0.133-0.111-0.257-0.232-0.377-0.356
						c-0.3-0.311,0.121,0.217-0.094-0.112c-0.216-0.331,0.071,0.313-0.018-0.033c0.108,0.42-0.172,0.857-0.326,0.956
						c0.135-0.07,0.095-0.059-0.12,0.037c0.098-0.041,0.201-0.067,0.302-0.095c0.344-0.094,0.246-0.057,0.409-0.072
						c1.212-0.113,2.254-0.1,3.19,0.739c0.373,0.334,0.738,0.771,0.895,1.227c0.099,0.288,0.025-0.021,0.185-0.197
						c0.313-0.155,0.336-0.187,0.067-0.093c-0.118,0.033-0.334,0.018-0.462-0.004c-1.835-0.311-2.219-2.663-1.661-4.106
						C166.23,397.588,163.328,396.813,162.639,398.599L162.639,398.599z"/>
				</g>
			</g>
			<g>
				<g>
					<path fill="#FFFFFF" d="M174.791,405.24c-1.214,2.346-3.521,13.247,1.322,13.164c2.955-0.05,4.186-4.412,4.271-6.688
						c0.087-2.344-0.998-6.474-4.163-5.587c-2.857,0.802-4.223,5.329-3.668,7.914c0.47,2.188,2.815,3.609,4.964,3.161
						c2.542-0.529,3.559-3.082,3.301-5.448c-0.229-2.099-1.815-7.257-4.89-6.184c-3.527,1.231-3.175,8.416-1.469,10.849
						c0.574,0.819,2.092,1.122,2.59,0c1.066-2.398,1.201-4.829,1.205-7.424c0.003-1.935-2.997-1.935-3,0
						c-0.003,2,0.034,4.045-0.795,5.91c0.864,0,1.727,0,2.59,0c-0.983-1.402-0.869-3.466-0.553-5.068
						c0.071-0.361,0.165-0.747,0.312-1.085c0.244-0.562,0.493-0.387-0.158-0.31c-0.406-0.195-0.46-0.171-0.162,0.071
						c0.133,0.177,0.251,0.363,0.354,0.56c0.418,0.709,0.669,1.508,0.88,2.298c0.206,0.77,0.408,2.756-0.807,2.911
						c-1.167,0.148-1.648-0.984-1.509-1.99c0.16-1.148,0.752-2.289,1.525-3.136c0.337-0.369-0.159-0.241-0.069-0.106
						c0.229,0.34,0.308,0.766,0.4,1.156c0.316,1.336,0.153,4.598-1.396,5.217c0.497-0.198,0.862,0.521,0.724,0.152
						c-0.101-0.268-0.165-0.569-0.202-0.853c-0.127-0.985-0.09-1.994-0.033-2.982c0.093-1.611,0.272-3.53,1.026-4.988
						C178.269,405.039,175.68,403.521,174.791,405.24L174.791,405.24z"/>
				</g>
			</g>
			<g>
				<g>
					<path fill="#FFFFFF" d="M159.359,410.27c-1.264,1.371-2.504,3.145-2.116,5.111c0.266,1.347,1.414,2.35,2.728,2.629
						c3.607,0.768,5.776-2.952,4.28-6.039c-1.017-2.098-3.559-2.869-5.544-1.694c-2.135,1.263-2.514,4.028-1.567,6.128
						c0.87,1.93,3.258,2.457,5.063,1.679c2.065-0.892,3.232-3.31,2.75-5.472c-0.365-1.639-2.091-2.849-3.742-2.674
						c-1.931,0.206-3.298,1.92-3.552,3.78c-0.238,1.741,0.332,3.951,2.187,4.579c1.964,0.665,3.776-0.964,4.441-2.677
						c0.622-1.6-0.073-3.596-1.214-4.77c-1.367-1.406-3.357-1.159-4.712,0.086c-1.454,1.336-1.622,3.712-0.004,4.979
						c1.813,1.421,4.18,0.959,5.791-0.525c1.426-1.313-0.701-3.429-2.121-2.121c-0.496,0.457-1.301,0.794-1.856,0.258
						c-0.03-0.028,0.195-0.368,0.167-0.323c0.181-0.295,0.379-0.355,0.499-0.324c0.328,0.085,0.62,0.883,0.65,1.277
						c0.026,0.354-0.052,0.6-0.232,0.897c-0.071,0.117-0.566,0.342-0.412,0.42c-0.388-0.196-0.253-1.273-0.149-1.648
						c0.082-0.293,0.286-0.647,0.544-0.822c0.193-0.132,0.33-0.114,0.468-0.047c0.523,0.256,0.436,0.955,0.196,1.434
						c-0.337,0.673-0.891,1.093-1.556,1.073c-1.017-0.03-0.979-2.413,0.267-2.771c0.588-0.169,1.027,0.652,1.131,1.104
						c0.028,0.119,0.016,0.696,0.037,0.565c-0.023,0.142-0.07,0.277-0.117,0.412c0.125-0.356-0.279,0.314-0.017,0.002
						c-0.04,0.047-0.342,0.3-0.064,0.092c-0.098,0.073-0.207,0.13-0.314,0.187c0.368-0.192-0.628,0.092-0.177,0.046
						c-0.121,0.013-0.242,0.009-0.363,0.005c-0.398-0.013,0.31,0.068-0.076-0.015c-0.065-0.014-0.434-0.146-0.088,0.001
						c-0.078-0.033-0.483-0.305-0.185-0.069c-0.09-0.071-0.166-0.157-0.242-0.242c0.29,0.328-0.073-0.238,0.094,0.161
						c-0.026-0.062-0.105-0.445-0.059-0.089c-0.018-0.137-0.009-0.276-0.001-0.414c0.02-0.338,0.658-1.317,1.108-1.831
						c0.067-0.072,0.134-0.146,0.2-0.218C162.789,410.971,160.672,408.844,159.359,410.27L159.359,410.27z"/>
				</g>
			</g>
			<g>
				<g>
					<path fill="#FFFFFF" d="M164.124,398.907c-1.041,1.783-1.939,5.277,1.024,5.817c0.991,0.181,1.861-0.13,2.616-0.769
						c1.015-0.856,0.886-2.415,0.686-3.573c-0.565-3.283-3.319-4.632-6.122-2.681c-2.471,1.72-2.331,5.429,0.337,6.837
						c2.638,1.393,5.712-0.97,5.916-3.729c0.171-2.314-1.916-3.879-4.097-3.574c-5.114,0.713-4.681,9.721,0.789,9.52
						c4.772-0.175,6.009-6.979,1.709-8.94c-1.938-0.885-4.34-0.55-5.983,0.8c-1.898,1.559-1.958,3.981-0.954,6.068
						c1.068,2.221,3.883,2.735,6.007,1.952c2.39-0.882,3.939-3.121,3.854-5.667c-0.074-2.245-1.588-4.427-3.959-4.514
						c-2.847-0.105-3.362,3.17-2.975,5.273c0.35,1.901,3.24,1.094,2.893-0.797c-0.036-0.196-0.1-1.52,0.071-1.494
						c0.932,0.14,0.998,1.511,0.97,2.213c-0.066,1.634-2.959,3.36-4.115,1.779c-1.25-1.71,0.299-3.106,2.017-3.109
						c1.517-0.004,2.707,2.08,1.289,3.101c-1.444,1.04-2.409-0.281-2.172-1.72c0.13-0.787,0.509-1.554,1.358-1.521
						c0.4,0.016,0.336,0.523,0.177,0.855c-0.415,0.871-1.348,1.286-1.9,0.345c-0.432-0.736,1.187-2.182,1.649-1.454
						c0.368,0.579,0.362,1.414,0.376,2.07c-0.004-0.193,0.32-0.267,0.026-0.188c0.226-0.061,0.419,0.116,0.443,0.328
						c-0.068-0.598,0.378-1.234,0.66-1.717C167.692,398.747,165.099,397.237,164.124,398.907L164.124,398.907z"/>
				</g>
			</g>
			<g>
				<g>
					<path fill="#FFFFFF" d="M88.123,414.172c-11.337,3.813-7.869,21.027,4.021,20.804c10.936-0.205,12.639-14.127,13.186-22.312
						c-2.192,2.192-4.385,4.385-6.577,6.577c-1.299-0.082-0.809-0.45-0.084,0.723c1.02,1.649,1.923,3.299,3.196,4.784
						c2.476,2.889,7.193,5.28,11.08,4.043c4.499-1.433,6.726-5.729,5.314-10.245c-0.474-1.516-1.306-2.967-2.113-4.326
						c-0.436-0.733-0.887-1.458-1.323-2.191c-0.121-0.204-0.911-2.318-0.461-0.854c-1.334-4.338-6.092-6.218-10.068-4.096
						c-1.721,0.919-3.604,1.765-5.363,1.84c-1.681,0.073-0.565-0.222-0.236,0.07c-0.483-0.429-0.606-1.891-0.728-2.464
						c-2.182,2.864-4.365,5.729-6.547,8.594c0.436,0.078,0.831,0.01,1.185-0.205c5.249,0.982,9.508-3.062,8.4-8.399
						c-0.5-2.405-1.734-4.11-3.784-5.449c-5.8-3.788-12.97,3.649-9.399,9.399c1.582,2.547,3.459,4.483,6.474,5.153
						c3.123,0.694,5.658-0.922,6.747-3.83c1.082-2.891,0.369-5.782-1.357-8.259c-3.133,3.134-6.266,6.267-9.399,9.399
						c0.109,0.063,0.217,0.126,0.326,0.189c-1.051-1.367-2.102-2.733-3.153-4.1c0.163,0.363,0.289,0.739,0.376,1.127
						c2.195-2.882,4.39-5.763,6.584-8.644c-1.03-0.137-1.968-0.041-3,0.039c-4.571,0.351-7.49,4.049-6.547,8.594
						c1.196,5.764,4.732,10.579,10.632,12.042c5.388,1.335,11.001-0.787,15.707-3.262c-3.356-1.365-6.712-2.73-10.068-4.096
						c0.516,1.717,1.34,3.323,2.228,4.874c0.424,0.74,0.864,1.472,1.288,2.212c0.808,1.412,0.087-0.441,0.396-2
						c0.593-1.019,1.186-2.036,1.78-3.054c-0.073,0.088-0.146,0.176-0.219,0.264c1.016-0.593,2.033-1.185,3.049-1.777
						c0.906-0.413,1.607-0.337,2.104,0.229c0.751,0.336-0.583-0.714-0.259-0.268c-0.801-1.102-1.49-2.274-2.317-3.359
						c-2.742-3.595-5.901-5.462-10.441-5.854c-3.805-0.328-6.277,3.256-6.577,6.577c-0.275,3.047-0.575,6.456-2.052,9.332
						c-0.592,1.154-0.457,0.296,0.92-0.254c0.801-0.206,1.464-0.007,1.991,0.598c0.506,1.077,0.583,1.077,0.231,0
						c-0.383-1.464-0.665-3.172-0.559-4.676C92.868,415.383,90.261,413.453,88.123,414.172L88.123,414.172z"/>
				</g>
			</g>
			<g>
				<g>
					<path fill="#FFE2D0" d="M565.419,415.743c3.391,0.342,0.603-0.007-0.476-0.274c1.335,2.352,2.669,4.701,4.004,7.053
						c0.201-1.428-1.351,0.101-0.12,0.017c1.181-0.081,1.856,0.018,2.917,0.558c1.561,0.793,2.468,1.945,4.226,2.57
						c2.737,0.974,5.94-0.339,8.412-1.388c3.072-1.303,3.716-5.771,2.194-8.369c-1.843-3.146-5.299-3.497-8.369-2.194
						c-1.325,0.106-0.575,0.369,2.25,0.789c-0.581-0.499-1.181-0.975-1.799-1.427c-1.204-0.77-2.528-1.336-3.886-1.784
						c-2.073-0.685-4.54-0.802-6.7-0.554c-5.688,0.653-10.27,4.193-10.385,10.258c-0.083,4.418,4.912,7.048,8.626,4.95
						c2.331-1.316,3.469-3.264,3.361-5.95C569.573,417.5,567.801,415.983,565.419,415.743L565.419,415.743z"/>
				</g>
			</g>
			<g>
				<g>
					<path fill="#FFE2D0" d="M577.707,411.997c0.045-0.718,0.112-1.36,0.284-2.057c0.266-1.074-0.266,0.339,0.219-0.539
						c-0.313,0.568,0.204-0.187,0.359-0.313c-0.934,0.388-1.869,0.774-2.802,1.161c1.084,0.003,2.271-0.253,3.219-0.806
						c0.344-0.201,1.001-0.369,1.965-0.514c1.863-0.279-3.573-0.247,0.409,0.104c0.666,0.059,1.329-0.022,1.953-0.266
						c1.583-0.618,2.69-1.448,3.614-2.895c3.463-5.425-5.459-10.646-8.609-5.032c1.351-1.064,1.649-1.383,0.895-0.958
						c-0.483,0.252-1.038,0.795-1.477,1.194c0.677-0.395,1.354-0.789,2.031-1.184c-1.555,0.446-3.065,0.553-4.538,1.323
						c-2.125,1.11-3.129,2.718-3.425,5.068c0.181-0.666,0.361-1.333,0.541-2c-1.716,2.226-1.991,4.981-1.879,7.711
						C570.658,416.686,577.416,416.641,577.707,411.997L577.707,411.997z"/>
				</g>
			</g>
			<g>
				<g>
					<path fill="#FFE2D0" d="M572.108,405.072c-0.347-1.261-0.847-2.304-1.622-3.345c-0.646-0.867-1.124-1.797-1.685-2.712
						c-1.281-2.093-4.017-2.88-6.171-1.618c-2.176,1.274-2.782,4.005-1.618,6.171c1.234,2.298,3.719,4.284,5.983,5.434
						C569.654,410.353,572.956,408.151,572.108,405.072L572.108,405.072z"/>
				</g>
			</g>
			<g>
				<g>
					<path fill="#FFE2D0" d="M594.021,375.273c-2.841-0.924-5.859-2.444-8.093-4.455c-2.81-2.529-3.417-5.66-4.704-8.996
						c-2.377-6.164-11.381-5.41-11.693,1.583c-0.267,5.982,4.735,11.286,8.938,14.873c4.537,3.872,10.807,6.938,16.393,3.421
						C597.492,380.041,596.936,376.221,594.021,375.273L594.021,375.273z"/>
				</g>
			</g>
			<g>
				<g>
					<path fill="#FFE2D0" d="M597.481,379.969c-1.105-5.972-3.719-11.496-5.169-17.386c-0.659-2.676-1.096-5.42-1.582-8.132
						c-0.087-0.487-0.574-2.452-0.482-3.056c-0.149,0.983-5.805,4.713-7.591,2.177c1.722,2.445-0.097,8.239-0.248,11.074
						c-0.292,5.453,1.179,11.256,5.511,14.85c4.062,3.369,10.731,2.491,12.209-3.224c1.077-4.163-0.076-13.784,4.28-16.019
						c-2.927-0.378-5.854-0.756-8.781-1.133c-0.645-0.739,0.708-1.612-0.748,0.24c-1.574,2.002-3.454,3.766-5.148,5.665
						c-4.072,4.564-8.407,12.68-2.295,17.619c4.076,3.295,9.059,1.938,10.988-2.9c1.594-4,4.617-6.933,8.011-11.469
						c4.741-6.335,4.631-13.405-0.56-19.403c-2.199-2.54-6.019-2.537-8.781-1.133c-10.081,5.126-8.551,15.404-11.053,24.647
						c4.069-1.074,8.14-2.148,12.209-3.224c-1.059-0.897-0.973-0.281-1.121-1.982c-0.147-1.692,0.057-3.432,0.208-5.115
						c0.303-3.376,0.715-6.82-0.029-10.177c-1.543-6.959-6.879-12.393-14.307-11.233c-9.497,1.482-6.336,14.906-5.016,20.75
						c1.941,8.593,5.912,18.328,13.813,22.93C594.928,386.158,598.077,383.189,597.481,379.969L597.481,379.969z"/>
				</g>
			</g>
			<g>
				<g>
					<path fill="#FFE2D0" d="M644.988,408.171c-9.828,4.76-13.158,24.084-1.269,28.197c8.259,2.857,13.953-5.002,14.852-12.007
						c-0.066-0.419-0.003-0.799,0.188-1.138c0.937-2.548-0.669-2.12-4.819,1.282c1.916,1.014,3.524,1.841,5.724,2.043
						c4.604,0.421,7.911-3.044,9.853-6.793c-3.396,0.891-6.793,1.781-10.189,2.672c4.653,2.881,10.889,2.481,13.637-2.833
						c2.161-4.178,1.094-8.875,0.393-13.27c-0.679-4.252-5.606-6.012-9.275-5.266c-3.091,0.629-5.704,2.495-8.289,4.197
						c-4.523,2.978,0.409-1.499,2.297,3.438c-0.493-1.288-0.081-2.711-0.074-4.052c0.035-6.8-10.207-10.257-13.372-3.621
						c-3.11,6.519-1.58,15.06,4.66,19.111c3.32,2.156,7.784,1.317,11.109-0.26c2.53-1.199,4.992-3.744,7.677-4.272
						c-3.091-1.755-6.183-3.511-9.275-5.266c0.036,0.238,0.361,2.521,0.245,1.546c0.063,0.571,0.099,1.146,0.109,1.721
						c-0.271,3.714,2.287,2.369,7.675-4.035c-3.289-1.869-8.443-1.034-10.189,2.672c-1.893,3.008-0.103,3.019,5.369,0.033
						c-1.05-0.533-2.05-1.118-3.187-1.48c-2.696-0.857-5.559-0.706-8.088,0.594c-4.912,2.524-5.794,7.099-6.551,12.057
						c-0.577,1.784-0.004,1.418,1.718-1.101c1.817-0.6,3.715,1.319,4.275,2.824c-0.566-1.521-0.062,0.817-0.066-1.048
						c-0.002-0.848,0.132-1.705,0.204-2.549c0.214-2.52,1.103-6.18,1.733-7.958C653.602,409.278,648.452,406.494,644.988,408.171
						L644.988,408.171z"/>
				</g>
			</g>
			<g>
				<g>
					<path fill="#FFE2D0" d="M644.868,360.535c-1.048,0.661-1.847,1.424-2.498,2.482c0.245-0.316,0.49-0.634,0.735-0.951
						c-0.356,0.448-0.785,0.863-1.024,1.388c-0.529,1.165-0.695,1.606-0.759,2.925c-0.07,1.452,0.608,3.048,1.612,4.052
						c0.656,0.655,1.567,1.182,2.461,1.428c1.203,0.331,1.795,0.156,3.004-0.016c1.248-0.178,2.487-1.344,3.094-2.379
						c0.633-1.082,1.016-2.774,0.521-3.989c-0.209-0.517-0.332-1.084-0.664-1.538c-0.477-0.806-1.117-1.446-1.923-1.923
						c-0.726-0.425-0.939-0.387-1.457-0.603c0.418,0.176,0.836,0.353,1.254,0.528c-0.057-0.026-0.11-0.059-0.161-0.097
						c0.347,0.269,0.694,0.536,1.041,0.804c-0.075-0.063-0.138-0.124-0.2-0.2c0.259,0.336,0.519,0.672,0.779,1.008
						c-0.057-0.083-0.103-0.164-0.144-0.256c0.162,0.384,0.324,0.767,0.485,1.15c-0.03-0.066-0.049-0.136-0.059-0.207
						c0.056,0.417,0.112,0.833,0.168,1.25c0.002-0.08,0.009-0.16,0.021-0.24c-0.055,0.412-0.11,0.823-0.166,1.234
						c0.033-0.178,0.081-0.345,0.144-0.514c-0.151,0.358-0.303,0.717-0.454,1.076c0.061-0.138,0.126-0.269,0.2-0.4
						c0.972-1.725,0.726-3.913-0.687-5.325C648.833,359.862,646.531,359.486,644.868,360.535L644.868,360.535z"/>
				</g>
			</g>
			<g>
				<g>
					<path fill="#FFE2D0" d="M642.747,350.526c0.006,0.039,0.012,0.077,0.018,0.116c-0.053-0.396-0.106-0.792-0.16-1.188
						c-0.001,0.042-0.002,0.083-0.003,0.125c0.053-0.393,0.105-0.786,0.159-1.179c-0.02,0.136-0.045,0.27-0.07,0.404
						c-0.206,0.767-0.206,1.532,0,2.299c0.298,1.08,1.021,2.017,1.987,2.583c1.607,0.941,3.953,0.759,5.238-0.676
						c0.087-0.098,0.172-0.194,0.253-0.297c0.715-0.908,0.82-1.089,1.257-2.188c0.422-1.063,0.101-2.521-0.454-3.468
						c-0.802-1.368-2.299-2.229-3.886-2.229c-1.188,0-2.342,0.478-3.182,1.318c-0.558,0.562-0.944,1.223-1.158,1.985
						C642.532,348.932,642.532,349.729,642.747,350.526L642.747,350.526z"/>
				</g>
			</g>
			<g>
				<g>
					<path fill="#FFE2D0" d="M636.412,333.321c-0.438,0.919-0.709,1.555-0.695,2.598c0.017,1.325,0.551,2.5,1.454,3.451
						c1.14,1.2,2.816,1.493,4.372,1.147c0.807-0.18,1.311-0.612,1.924-1.121c-0.294,0.227-0.588,0.454-0.882,0.682
						c0.788-0.601,1.104-0.74,1.616-1.614c0.464-0.791,0.571-1.558,0.627-2.455c-0.054,0.403-0.108,0.806-0.162,1.208
						c0.007-0.027,0.015-0.056,0.022-0.084c-0.154,0.363-0.307,0.728-0.46,1.091c0.014-0.025,0.027-0.051,0.041-0.075
						c-0.239,0.31-0.478,0.619-0.717,0.929c0.02-0.022,0.041-0.046,0.061-0.068c-0.311,0.24-0.623,0.481-0.934,0.722
						c0.028-0.021,0.056-0.04,0.084-0.061c1.018-0.732,1.789-1.523,2.133-2.773c0.439-1.597-0.023-3.345-1.193-4.515
						c-0.867-0.866-2.056-1.359-3.282-1.359C638.893,331.022,637.098,331.881,636.412,333.321L636.412,333.321z"/>
				</g>
			</g>
			<g>
				<g>
					<path fill="#FFE2D0" d="M653.519,333.855c-2.062,0.469-3.767,2.557-3.647,4.702c0.147,2.643,2.011,4.506,4.654,4.653
						c2.146,0.12,4.234-1.586,4.703-3.647c0.372-1.636,0.017-3.305-1.193-4.515C656.823,333.838,655.155,333.483,653.519,333.855
						L653.519,333.855z"/>
				</g>
			</g>
			<g>
				<g>
					<path fill="#FFE2D0" d="M759.419,343.164c2.453,0,4.5-2.047,4.5-4.5s-2.047-4.5-4.5-4.5s-4.5,2.047-4.5,4.5
						S756.966,343.164,759.419,343.164L759.419,343.164z"/>
				</g>
			</g>
			<g>
				<g>
					<path fill="#FFE2D0" d="M745.571,329.815c-0.037,0.031-0.074,0.063-0.11,0.095c0.304-0.234,0.607-0.469,0.91-0.704
						c-0.027,0.014-0.055,0.027-0.083,0.041c0.757-0.205,1.514-0.41,2.271-0.614c-0.02-0.003-0.039-0.005-0.059-0.007
						c1.061,0.439,2.122,0.879,3.182,1.317c-0.814-0.932-2.034-1.295-3.222-1.363c-1.269-0.073-2.249,0.567-3.182,1.318
						c-0.879,0.707-1.318,2.102-1.318,3.182c0,1.256,0.512,2.26,1.318,3.183c0.865,0.989,2.049,1.234,3.281,1.37
						c1.291,0.141,2.464-0.669,3.375-1.454c1.86-1.602,1.638-4.727,0-6.363c-0.84-0.841-1.993-1.318-3.182-1.318
						C747.49,328.497,746.502,329.013,745.571,329.815L745.571,329.815z"/>
				</g>
			</g>
			<g>
				<g>
					<path fill="#FFE2D0" d="M747.323,320.408c-0.099,0.657-0.18,1.317-0.268,1.976c-0.166,1.236,0.4,2.552,0.965,3.602
						c0.467,0.867,1.132,1.657,1.748,2.406c0.898,1.096,2.264,1.851,3.594,2.272c1.509,0.479,2.719,0.299,4.234,0.066
						c1.114-0.313,2.083-0.877,2.903-1.692c0.816-0.821,1.38-1.789,1.692-2.903c0.397-1.687,0.321-3.575-0.663-5.071
						c-0.96-1.459-2.217-2.552-3.933-3.024c-1.066-0.293-1.276-0.173-1.99-0.248c0.584,0.078,1.169,0.157,1.754,0.235
						c-0.124-0.025-0.234-0.06-0.353-0.106c0.528,0.223,1.056,0.445,1.584,0.668c-0.306-0.153-0.599-0.295-0.875-0.499
						c0.442,0.342,0.885,0.684,1.328,1.025c-0.29-0.231-0.55-0.486-0.801-0.76c-1.005-1.089-2.185-1.661-3.568-2.12
						c-1.482-0.492-3.284-0.172-4.605,0.603C748.864,317.543,747.542,318.962,747.323,320.408L747.323,320.408z"/>
				</g>
			</g>
			<g>
				<g>
					<path fill="#FFE2D0" d="M762.753,313.427c5.713,0,5.713-8.859,0-8.859S757.04,313.427,762.753,313.427L762.753,313.427z"/>
				</g>
			</g>
			<g>
				<g>
					<path fill="#FFE2D0" d="M774.9,326.991c0.009-0.086,0.033-0.168,0.071-0.245c-0.168,0.399-0.337,0.798-0.505,1.197
						c0.464-0.891,0.846-1.872,0.767-2.904c-0.003-0.888-0.227-1.716-0.672-2.482c-0.438-0.739-1.025-1.328-1.765-1.765
						c-1.455-0.853-3.519-0.953-4.965,0c-0.835,0.55-1.465,1.089-1.977,1.962c-0.529,0.902-0.723,1.876-0.761,2.91
						c-0.081,2.207,1.583,4.241,3.665,4.813c1.289,0.354,2.694,0.173,3.847-0.503C773.649,329.363,774.664,328.215,774.9,326.991
						L774.9,326.991z"/>
				</g>
			</g>
			<g>
				<g>
					<path fill="#FFE2D0" d="M880.086,353.164c2.453,0,4.5-2.047,4.5-4.5s-2.047-4.5-4.5-4.5s-4.5,2.047-4.5,4.5
						S877.633,353.164,880.086,353.164L880.086,353.164z"/>
				</g>
			</g>
			<g>
				<g>
					<path fill="#FFE2D0" d="M862.884,372.997c-0.077,1.021,0.286,1.781,0.688,2.679c0.548,1.222,1.823,1.756,2.957,2.221
						c0.8,0.215,1.601,0.215,2.401,0c0.765-0.215,1.429-0.603,1.993-1.162c1.408-1.408,1.771-3.752,0.707-5.473
						c-0.022-0.036-0.043-0.071-0.066-0.106c0.153,0.362,0.307,0.726,0.46,1.089c-0.201-0.489-0.385-0.973-0.651-1.424
						c0.153,0.363,0.307,0.726,0.459,1.089c-0.013-0.039-0.026-0.078-0.039-0.118c-0.631-1.931-2.282-3.329-4.373-3.329
						c-1.198,0-2.36,0.481-3.207,1.328C863.313,370.688,862.977,371.761,862.884,372.997L862.884,372.997z"/>
				</g>
			</g>
			<g>
				<g>
					<path fill="#FFE2D0" d="M884.874,382.542c-0.018-0.015-0.035-0.028-0.054-0.043c0.25,0.323,0.5,0.646,0.749,0.97
						c-0.011-0.016-0.021-0.03-0.033-0.046c0.158,0.375,0.316,0.75,0.475,1.125c-0.026-0.063-0.042-0.127-0.067-0.189
						c-0.209-0.745-0.586-1.393-1.132-1.941c-0.891-0.892-1.9-1.162-3.112-1.289c-0.018-0.002-0.036-0.004-0.053-0.006
						c0.396,0.054,0.793,0.106,1.19,0.16c-0.447-0.108-0.909-0.143-1.367-0.191c-0.929-0.098-1.711,0.337-2.519,0.687
						c-0.734,0.435-1.319,1.019-1.753,1.753c-0.442,0.763-0.664,1.585-0.667,2.467c0,2.173,1.491,4.136,3.588,4.712
						c2.114,0.582,4.411-0.355,5.519-2.245c0.442-0.763,0.664-1.585,0.667-2.467C886.306,384.834,885.832,383.297,884.874,382.542
						L884.874,382.542z"/>
				</g>
			</g>
			<g>
				<g>
					<path fill="#FFE2D0" d="M883.933,369.909c-0.027,0.074-0.052,0.149-0.076,0.225c-0.562,1.756,0.068,3.81,1.345,5.086
						c0.652,0.647,1.421,1.096,2.307,1.345c0.927,0.249,1.853,0.249,2.779,0c0.072-0.029,0.145-0.057,0.219-0.081
						c0.905-0.254,1.691-0.713,2.357-1.375c0.663-0.667,1.121-1.452,1.375-2.357c0.506-1.84-0.027-3.852-1.375-5.199
						s-3.36-1.881-5.199-1.375C885.775,366.697,884.56,368.115,883.933,369.909L883.933,369.909z"/>
				</g>
			</g>
			<g>
				<g>
					<path fill="#FFE2D0" d="M899.086,384.727c2.76,0,5.063-2.303,5.063-5.063s-2.303-5.063-5.063-5.063s-5.063,2.303-5.063,5.063
						S896.326,384.727,899.086,384.727L899.086,384.727z"/>
				</g>
			</g>
			<g>
				<g>
					<path fill="#FFE2D0" d="M1003.282,383.658c-3.67-0.848-7.788-2.205-11.32-0.338c-3.813,2.016-3.645,6.778-1.252,9.72
						c2.702,3.322,6.644,3.442,10.539,2.884c-1.187,0.948-2.238-0.11-3.155-3.175c0.104,0.882,0.037,1.813,0.051,2.7
						c0.037,2.334,0.581,4.613,1.84,6.587c2.87,4.497,8.59,4.08,11.537,0c0.74-1.025,1.263-2.1,1.757-3.259
						c0.25-0.587,0.517-1.144,0.834-1.695c-1.533,2.662-5.244,1.423-2.474,2.375c5.272,1.812,11.087-5.121,7.565-9.841
						c-1.64-2.197-3.547-3.68-5.802-5.227c-0.357-0.245-1.973-1.392-1.777-1.233c-0.356-0.297-0.692-0.615-1.009-0.954
						c0.881,0.889,0.392,5.139,0.779,2.978c1.168-6.516-5.546-10.129-10.579-6.158c-4.386,3.46-2.497,9.052,0.306,12.675
						c1.068,1.381,2.807,2.391,4.211,3.388c0.636,0.45,1.288,0.879,1.933,1.318c0.401,0.272,1.087,0.93,0.37-0.024
						c2.521-3.28,5.043-6.561,7.565-9.841c-3.688-1.254-7.886-1.233-10.872,1.617c-2.141,2.044-2.672,4.807-4.345,7.138
						c3.846,0,7.691,0,11.537,0c-0.087-0.129-0.263-1.807-0.322-2.543c-0.192-2.388-0.823-5.11-2.648-6.823
						c-1.765-1.656-4.037-2.928-6.548-2.86c-1.118,0.029-2.213,0.21-3.319,0.366c-1.957,0.277,0.099,0.149,0.779,0.856
						c0.323,2.5,0.645,5,0.967,7.5c0.075-0.134,0.142-0.271,0.203-0.411c-1.203,0.926-2.406,1.851-3.608,2.775
						c2.167-0.422,4.139-1.214,6.258-1.816C1007.44,391.155,1007.725,384.684,1003.282,383.658L1003.282,383.658z"/>
				</g>
			</g>
			<g>
				<g>
					<path fill="#FFE2D0" d="M62.823,350.598c-0.971,0.452-1.878,1.098-2.713,1.76c-1.674,1.327-1.639,3.718-1.353,5.594
						c0.498,3.266,3.907,5.056,6.846,5.374c3.545,0.384,6.218-2.354,7.338-5.407c1.206-3.288,0.035-7.524-2.523-9.857
						c-2.735-2.493-7.567-4.16-10.865-1.634c-1.556,1.193-2.381,2.159-3.112,4.089c-0.786,2.073-0.02,4.737,1.49,6.247
						c1.589,1.589,3.67,1.977,5.829,1.54c1.472-0.297,2.841-1.49,3.581-2.753c0.266-0.453,1.044-1.403-0.408,0.441
						c0.041-0.04,0.081-0.081,0.122-0.122c-0.581,0.599-1.273,1.009-2.077,1.231c0.837-0.301-1.793,0.132-0.869,0.125
						c0.933-0.007-1.719-0.315-0.777-0.088c0.467,0.112,1.234,0.554-0.576-0.278c0.424,0.194,0.803,0.48,1.186,0.742
						c-1.432-0.981-0.803-0.634-0.448-0.273c0.603,0.611-0.807-1.31-0.208-0.18c-0.124-0.287-0.248-0.575-0.371-0.862
						c0.136,0.515,0.11,0.286-0.077-0.687c0.022,0.439-0.148,1.352,0.121-0.434c-0.063,0.416-0.419,1.191,0.287-0.477
						c-0.169,0.4-0.698,0.896,0.428-0.465c-0.477,0.575,1.167-0.8,0.55-0.4c-0.616,0.398,1.353-0.487,0.65-0.279
						c-0.713,0.212,1.48-0.129,0.731-0.102c-1,0.036,1.263,0.248,0.555,0.076c-0.4-0.098-0.962-0.464,0.586,0.269
						c-0.406-0.192-0.956-0.775,0.335,0.318c-0.117-0.1-0.241-0.189-0.356-0.291c-0.702-0.619,0.596,0.912,0.264,0.343
						c0.616,1.057,0.358,0.965,0.241,0.491c-0.145-0.583-0.864-2.349-0.188-0.592c-0.266-0.691,0.36-0.563-0.069,1.13
						c-0.229,0.906,0.008,0.028,0.183-0.261c0.736-1.214,0.499-2.841-0.495-3.834C65.581,350.017,64.129,349.99,62.823,350.598
						L62.823,350.598z"/>
				</g>
			</g>
			<g>
				<g>
					<path fill="#FFE2D0" d="M44.419,353.302c4.262,0,4.262-6.609,0-6.609S40.157,353.302,44.419,353.302L44.419,353.302z"/>
				</g>
			</g>
			<g>
				<g>
					<path fill="#FFE2D0" d="M34.086,374.916c1.955,0,3.586-1.631,3.586-3.586s-1.631-3.586-3.586-3.586s-3.586,1.631-3.586,3.586
						S32.131,374.916,34.086,374.916L34.086,374.916z"/>
				</g>
			</g>
			<g>
				<g>
					<path fill="#FFE2D0" d="M83.838,416.766c-7.048,9.327-0.472,23.034,11.817,21.021c11.348-1.859,13.399-16.064,4.586-22.255
						c-3.641-2.558-11.964-3.691-15.736-0.943c-5.637,4.108-5.388,11.396,1.563,13.902c4.457,1.607,12.493-2.141,13.219-7.116
						c0.574-3.929,0.009-6.655-1.693-10.218c-1.439-3.014-1.618-6.951-2.287-10.208c-2.074,2.724-4.148,5.446-6.222,8.169
						c2.923-0.051,2.678,5.326,3.63,7.547c1.238,2.889,5.065,5.308,8.183,5.044c3.3-0.279,5.419-2.045,7.152-4.725
						c0.502-0.777,0.88-1.652,1.315-2.468c0.462-0.69,0.496-0.805,0.101-0.345c-2.775,3.446-6.775-0.334-5.514-3.093
						c-1.157,2.533-3.257,4.453-4.092,7.179c-1.055,3.442-0.24,7.813,2.362,10.416c2.53,2.53,5.676,2.747,9.01,2.223
						c1.37-0.216,2.736-1.021,3.979-1.585c0.546-0.265,1.09-0.534,1.631-0.808c1.592-0.796,0.26,0.072-1.216-0.335
						c8.599,2.372,11.441-9.849,3.586-13.008c2.173,1.988,2.446,2.037,0.819,0.147c-0.662-0.835-1.451-1.424-2.404-1.896
						c-2.639-1.304-6.331-0.868-7.792,2.043c-2.93,5.84,0.242,10.515,5.792,12.713c1.195-4.336,2.391-8.672,3.586-13.008
						c-3.071-0.83-5.598,0.084-8.378,1.326c-0.816,0.365-1.596,0.89-2.413,1.215c-2.583,0.582-1.145,1.574,4.313,2.976
						c0.664,1.881-0.776,2.715,0.671,0.476c4.148-6.421,5.72-14.302-2.62-18.246c-6.961-3.292-11.168,1.896-14.213,7.366
						c2.59-4.653,8.121,2.46,7.391-2.272c-0.39-2.525-1.399-5.115-3.261-6.952c-3.165-3.121-7.114-5-11.616-4.837
						c-4.321,0.157-7.165,3.986-6.222,8.169c0.893,3.964,1.332,8.329,3.188,11.992c0.502,1.915,1.332,1.656,2.489-0.777
						c0.857,3.355,1.664,6.724,2.42,10.104c0.933-0.118,2.577-0.056,3.327,0.628c-0.951-0.866,0.024-0.194-1.18-0.136
						c-2.668,0.129-2.971-4.986-2.395-6.526C92.337,415.324,86.185,413.659,83.838,416.766L83.838,416.766z"/>
				</g>
			</g>
			<g>
				<g>
					<path fill="#FFE2D0" d="M139.752,349.32c4.716,0,4.716-7.313,0-7.313S135.037,349.32,139.752,349.32L139.752,349.32z"/>
				</g>
			</g>
			<g>
				<g>
					<path fill="#FFE2D0" d="M147.419,329.76c5.713,0,5.713-8.859,0-8.859S141.706,329.76,147.419,329.76L147.419,329.76z"/>
				</g>
			</g>
			<g>
				<g>
					<path fill="#FFE2D0" d="M154.419,330.564c1.763,0,3.234-1.472,3.234-3.234s-1.471-3.234-3.234-3.234s-3.234,1.472-3.234,3.234
						S152.656,330.564,154.419,330.564L154.419,330.564z"/>
				</g>
			</g>
			<g>
				<g>
					<path fill="#FFE2D0" d="M51.419,385.723c3.945,0,3.945-6.117,0-6.117S47.475,385.723,51.419,385.723L51.419,385.723z"/>
				</g>
			</g>
			<g>
				<g>
					<path fill="#FFE2D0" d="M29.086,407.251c5.486,0,5.486-8.508,0-8.508S23.6,407.251,29.086,407.251L29.086,407.251z"/>
				</g>
			</g>
			<g>
				<g>
					<path fill="#FFE2D0" d="M505.592,381.49c-0.046-0.036-0.092-0.074-0.136-0.113c-0.757-0.657-1.68-0.984-2.681-0.709
						c-0.926,0.255-1.67,0.998-1.924,1.925c-0.261,0.948,0.014,1.985,0.708,2.681c0.805,0.805,2.356,1.157,3.339,0.431
						c0.234-0.174,0.465-0.354,0.693-0.534C506.626,384.353,506.607,382.312,505.592,381.49L505.592,381.49z"/>
				</g>
			</g>
			<g>
				<g>
					<path fill="#FFE2D0" d="M497.086,369.407c4.398,0,4.398-6.82,0-6.82S492.688,369.407,497.086,369.407L497.086,369.407z"/>
				</g>
			</g>
			<g>
				<g>
					<path fill="#FFE2D0" d="M509.086,360.021c2.012,0,3.691-1.679,3.691-3.691s-1.679-3.691-3.691-3.691s-3.691,1.679-3.691,3.691
						S507.074,360.021,509.086,360.021L509.086,360.021z"/>
				</g>
			</g>
			<g>
				<g>
					<path fill="#FFE2D0" d="M513.752,374.88c1.572,0,2.883-1.312,2.883-2.883s-1.311-2.883-2.883-2.883s-2.883,1.312-2.883,2.883
						S512.181,374.88,513.752,374.88L513.752,374.88z"/>
				</g>
			</g>
			<g>
				<g>
					<path fill="#F8AD3B" d="M586.277,375.473c0.546,0.454,1.093,0.907,1.639,1.361c0.948,0.789,1.895,1.313,3.17,1.313
						c1.512,0,3.162-0.838,3.871-2.221c0.727-1.416,1.211-2.962,1.164-4.572c-0.036-1.22-0.327-2.112-0.83-3.198
						c-0.097-0.209-0.202-0.391-0.334-0.579c0.157,0.225-1.633-2.398-0.448-0.553c0.221,0.818,0.442,1.636,0.663,2.453
						c-0.002-0.049-0.005-0.099-0.007-0.147c-0.112-2.272-1.469-4.275-3.729-4.897c-2.708-0.745-5.461,0.895-6.248,3.547
						c-0.543,1.833-0.46,4.039,0.279,5.808c0.26,0.929,0.73,1.734,1.409,2.419c1.023,1.022,2.428,1.604,3.875,1.604
						c2.912,0,5.581-2.493,5.481-5.48c-0.029-0.867-0.094-1.766-0.358-2.594c-0.253-0.796-0.669-1.504-0.996-2.262
						c0.183,0.434,0.367,0.868,0.55,1.303c-0.029-0.076-0.058-0.153-0.086-0.229c-0.861-2.303-2.667-4.003-5.258-4.003
						c-2.775,0-5.712,2.486-5.452,5.452c0.102,1.163,0.184,1.997,0.782,3.018c0.797,1.362,1.919,1.962,3.326,2.532
						c1.766,0.715,3.85-0.2,5.151-1.362c1.154-1.029,1.743-2.667,1.646-4.188c-3.57,0.483-7.14,0.966-10.71,1.449
						c0.28,0.806,0.651,1.573,0.997,2.351c-0.184-0.435-0.368-0.87-0.551-1.306c0.064,0.169,0.108,0.331,0.145,0.507
						c-0.065-0.484-0.13-0.97-0.195-1.454c0.034,0.264,0.045,0.52,0.048,0.786c3.589-0.485,7.178-0.972,10.766-1.457
						c-0.373-0.954-0.883-1.799-1.276-2.727c0.179,0.424,0.357,0.847,0.536,1.271c-0.108-0.303-0.156-0.611-0.202-0.929
						c0.062,0.461,0.124,0.921,0.186,1.381c-0.084-0.634-0.115-1.275-0.297-1.89c-1.183,2.083-2.365,4.165-3.547,6.248
						c0.056-0.021,0.112-0.043,0.168-0.064c-0.861,0-1.723,0-2.583,0c0.076,0.023,0.152,0.047,0.228,0.071
						c-0.702-0.409-1.403-0.818-2.105-1.228c0.317,0.25,0.769,0.834-0.083-0.293c0.243,0.412,0.185,0.232-0.176-0.541
						c0.049,0.136,0.086,0.274,0.114,0.416c-0.092-0.87-0.127-1.06-0.107-0.567c-0.025,0.479,0.008,0.308,0.101-0.518
						c-0.046,0.329-0.146,0.648-0.229,0.969c1.838-1.044,3.677-2.088,5.515-3.132c-0.712-0.17-1.424-0.339-2.136-0.508
						c-1.743-0.413-3.563,0.249-4.486,1.826C584.816,372.092,584.921,374.348,586.277,375.473L586.277,375.473z"/>
				</g>
			</g>
			<g>
				<g>
					<path fill="#F8AD3B" d="M655.556,410.658c-2.403,0.36-4.993,2.077-5.395,4.66c-0.198,1.273-0.294,2.36,0.116,3.619
						c0.312,0.955,0.778,1.565,1.155,2.426c-0.201-0.477-0.402-0.953-0.604-1.43c0.045,0.108,0.083,0.219,0.115,0.332
						c0.807,2.57,3.056,4.422,5.809,4.422c2.604,0,5.197-1.827,5.809-4.422c0.002-0.013,0.006-0.025,0.012-0.037
						c-0.203,0.48-0.405,0.96-0.607,1.44c0.959-1.886,1.823-3.598,1.912-5.771c0.106-2.596-1.414-4.906-3.533-6.261
						c-1.774-1.134-3.917-1.151-5.926-0.984c-1.085,0.004-2.096,0.277-3.034,0.821c-1.373,0.804-2.306,2.083-2.763,3.593
						c-0.915,3.021-0.267,5.969,1.794,8.328c0.757,0.867,2.396,1.816,3.529,1.969c1.431,0.192,2.284,0.321,3.721-0.074
						c1.393-0.383,2.009-0.922,3.114-1.79c0.764-0.769,1.292-1.675,1.584-2.719c0.438-1.59,0.212-3.324-0.621-4.747
						c-0.547-0.926-1.285-1.663-2.21-2.211c-1.542-0.903-3.046-0.903-4.747-0.621c-0.145,0.024-0.284,0.061-0.429,0.087
						c0.552-0.074,1.103-0.147,1.654-0.222c-0.22,0.021-0.438,0.014-0.658-0.008c0.553,0.074,1.105,0.148,1.658,0.223
						c-0.127-0.024-0.239-0.058-0.358-0.107c0.494,0.208,0.989,0.417,1.483,0.626c-0.076-0.037-0.148-0.081-0.215-0.133
						c0.417,0.323,0.835,0.646,1.253,0.969c-0.105-0.09-0.19-0.181-0.275-0.29c0.321,0.416,0.643,0.832,0.964,1.248
						c-0.056-0.081-0.104-0.166-0.145-0.255c0.206,0.489,0.413,0.979,0.619,1.467c-0.088-0.217-0.14-0.427-0.174-0.658
						c0.073,0.54,0.145,1.08,0.217,1.62c-0.023-0.291-0.016-0.569,0.013-0.859c-0.072,0.534-0.144,1.068-0.216,1.603
						c0.013-0.083,0.025-0.166,0.037-0.249c-1.399,1.4-2.799,2.8-4.198,4.199c0.155-0.038,0.312-0.073,0.469-0.104
						c-0.53,0.071-1.06,0.143-1.589,0.214c0.501-0.053,0.996-0.078,1.498-0.029c-0.531-0.071-1.062-0.143-1.593-0.214
						c0.255,0.035,0.497,0.089,0.735,0.187c-0.478-0.201-0.956-0.403-1.434-0.604c0.092,0.044,0.176,0.091,0.26,0.147
						c-0.405-0.313-0.81-0.626-1.215-0.938c0.094,0.073,0.173,0.15,0.247,0.244c-0.313-0.405-0.626-0.811-0.939-1.216
						c0.046,0.069,0.084,0.138,0.119,0.214c-0.202-0.479-0.404-0.957-0.606-1.436c0.038,0.104,0.063,0.206,0.08,0.315
						c-0.071-0.532-0.144-1.065-0.215-1.599c0.013,0.146,0.01,0.287-0.006,0.433c0.072-0.533,0.144-1.067,0.215-1.601
						c-0.046,0.316-0.142,0.616-0.261,0.911c0.203-0.479,0.405-0.96,0.608-1.439c-0.678,1.597-1.622,2.871-1.662,4.719
						c3.742-1.014,7.483-2.027,11.226-3.04c-0.881-1.558-1.969-2.422-3.363-3.468c0.386,0.299,0.772,0.597,1.158,0.895
						c-0.076-0.065-0.141-0.13-0.203-0.21c0.292,0.379,0.585,0.758,0.878,1.137c-0.017-0.027-0.033-0.055-0.049-0.082
						c0.188,0.444,0.375,0.889,0.563,1.333c-0.031-0.061-0.052-0.123-0.065-0.189c0.065,0.487,0.131,0.976,0.197,1.464
						c-0.031-0.259-0.029-0.524,0.002-0.783c-0.061,0.449-0.121,0.898-0.181,1.348c0.05-0.297,0.121-0.584,0.202-0.874
						c0.431-1.546-0.026-3.247-1.157-4.378C658.696,410.577,657.199,410.411,655.556,410.658L655.556,410.658z"/>
				</g>
			</g>
			<g>
				<g>
					<path fill="#F8AD3B" d="M94.655,416.463c-0.957,2.15-1.357,4.524-0.415,6.779c1.189,2.848,3.091,4.734,5.991,5.818
						c6.232,2.33,12.138-5.001,8.791-10.643c-2.36-3.978-7.797-4.269-11.499-2.188c-2.662,1.495-3.997,4.565-3.298,7.526
						c0.309,1.309,1.082,2.42,1.986,3.384c1.447,1.544,3.159,2.1,5.209,2.303c2.412,0.238,4.611-1.845,5.25-3.998
						c0.39-1.313,0.303-2.304,0.089-3.626c-0.274-1.687-1.976-3.107-3.536-3.536c-2.393-0.658-4.319,0.489-5.717,2.326
						c0.388-0.438,0.776-0.875,1.164-1.313c2.199,0.283,4.399,0.567,6.598,0.851c-0.521-0.665-1.206-1.12-1.908-1.582
						c0.834,0.682,1.054,0.846,0.662,0.493c-0.616-0.563,0.87,1.295,0.495,0.635c0.429,0.723,0.642,1.505,0.64,2.347
						c0.062,0.835-0.225,1.565-0.607,2.275c-0.779,0.94-0.992,1.22-0.642,0.839c0.498-0.533-1.335,0.938-0.693,0.54
						c0.483-0.301-1.686,0.566-0.48,0.23c1.084-0.302-1.655,0.121-0.527,0.061c1.277-0.068-1.131-0.234-0.555-0.118
						c0.461,0.093,1.108,0.501-0.791-0.372c0.672,0.31-1.231-1.059-0.697-0.563c-0.692-0.984-0.906-1.256-0.643-0.813
						c-0.154-0.359-0.309-0.719-0.463-1.078c-0.117-1.247-0.166-1.594-0.148-1.041c0.204-1.213,0.241-1.519,0.111-0.918
						c0.138-0.311,0.276-0.621,0.414-0.932c-0.27,0.474-0.085,0.251,0.554-0.667c0.748-0.864,1.555-1.064,2.667-1.125
						c-0.188,0.01-0.384-0.013-0.572-0.025c1.751,0.114,1.186,0.182,0.655,0.024c-0.505-0.181-0.278-0.082,0.678,0.298
						c-0.21-0.097-0.407-0.22-0.602-0.343c-0.126-0.091-0.256-0.176-0.388-0.257c-0.787-0.5,1.015,0.866,0.293,0.25
						c-0.933-0.798,0.519,0.958-0.119-0.098c-0.459-0.76,0.374,1.11,0.119,0.244c-0.251-0.856,0.057,1.14,0.055,0.212
						c-0.003-1.939-1.328-3.688-3.2-4.204C97.853,413.984,95.438,414.704,94.655,416.463L94.655,416.463z"/>
				</g>
			</g>
		</g>
	</g>
</g>
<g id="All">
</g>
</svg>
