<?xml version="1.0" encoding="utf-8"?>
<!-- Generator: Adobe Illustrator 16.0.0, SVG Export Plug-In . SVG Version: 6.00 Build 0)  -->
<!DOCTYPE svg PUBLIC "-//W3C//DTD SVG 1.1//EN" "http://www.w3.org/Graphics/SVG/1.1/DTD/svg11.dtd">
<svg version="1.1" xmlns="http://www.w3.org/2000/svg" xmlns:xlink="http://www.w3.org/1999/xlink" x="0px" y="0px" width="1440px"
	 height="899.999px" viewBox="0 0 1440 899.999" enable-background="new 0 0 1440 899.999" xml:space="preserve">
<g id="Imgs" display="none">
</g>
<g id="Sky">
</g>
<g id="Clouds">
</g>
<g id="Buldings">
</g>
<g id="Mountains">
</g>
<g id="City">
</g>
<g id="Bushes">
</g>
<g id="Aspas_2_">
</g>
<g id="Rock">
</g>
<g id="Ground">
	<g>
		<defs>
			<rect id="SVGID_21_" y="373" width="1441" height="1801"/>
		</defs>
		<clipPath id="SVGID_8_">
			<use xlink:href="#SVGID_21_"  overflow="visible"/>
		</clipPath>
		<path clip-path="url(#SVGID_8_)" fill="#001420" d="M438.086,782.997l-18-52.5l16-10.5l39,66l-5-86l14-1l9,82l7-86l13,82l28-77
			l17,9c0,0-9,24-10,28s21-16,23-20s5,5,5,5l-35,61c0,0,13-5,14-8s14-26,14-26l25,23l32,14l20,13l-31.122-39.087l-25.878-32.502
			l21-23.411l41,56c0,0-33-74-33-77s16-6,16-6s70,137,57,113s-48-121-48-121l17-7l61.333,126.667c0,0-146,48.667-150.667,48.667
			s-145.333-10-145.333-10L438.086,782.997z"/>
		<path clip-path="url(#SVGID_8_)" fill="#001420" d="M29.086,795.997l-18-52.5l16-10.5l39,66l-5-86l14-1l9,82l7-86l13,82l28-77
			l17,9c0,0-9,24-10,28s21-16,23-20s5,5,5,5l-35,61c0,0,13-5,14-8s14-26,14-26l25,23l32,14l20,13l-31.122-39.087l-25.878-32.502
			l21-23.411l41,56c0,0-33-74-33-77s16-6,16-6s70,137,57,113s-48-121-48-121l17-7l61.333,126.667c0,0-146,48.667-150.667,48.667
			s-145.333-10-145.333-10L29.086,795.997z"/>
		<path clip-path="url(#SVGID_8_)" fill="#001420" d="M1082.086,782.997l-18-52.5l16-10.5l39,66l-5-86l14-1l9,82l7-86l13,82l28-77
			l17,9c0,0-9,24-10,28s21-16,23-20s5,5,5,5l-35,61c0,0,13-5,14-8s14-26,14-26l25,23l32,14l20,13l-31.121-39.087l-25.879-32.502
			l21-23.411l41,56c0,0-33-74-33-77s16-6,16-6s70,137,57,113s-48-121-48-121l17-7l61.334,126.667c0,0-146,48.667-150.667,48.667
			s-145.333-10-145.333-10L1082.086,782.997z"/>
		<path clip-path="url(#SVGID_8_)" fill="#001420" d="M419.086,792.247l-21.5-45.125l-6.75,32.938l-34.875,6.969
			c0,0-7.48-16.016-10.48-17.516S333,764.997,333,769.497s0,9.5,0,9.5l-15-2V757h-12v18.997c0,0-7.75-34.75-11.75-28.875
			S279,759.997,279,759.997v20l-39.207,2l-14.854-28c0,0-29.927,33-29.927,30s25.037-53.5,25.037-53.5l-16.982-41.5l-34.991,81
			l16.004-108c-6-4-45.998,137-45.998,137l18.001-172c0,0-15-20-18-14s-13,38-13,38l-10-39.123c0,0-27,24.123-27,27.123
			s33,138,33,138l-49-110l-21,19c0,0,21.5,61,39.75,82.5c1.941,2.287-66.426-45.25-85.422-37.25L1,730.044V2173h1441.086
			l-0.635-1368.502l0.635-117.25c0,0-34,10.874-43,42.874l-33-57.063l-21,13.969l25,65.984l11,34.988l-25,0.998l-24-69.001
			c0,0-16-3.001-17,0.999s-19,59-19,61s-51-152-47-163s-48,27.501-48,27.501s32,115.502,46,134.502h-15l-65-101.752l-7,14.875
			c0,0,24,72.937,29,81.937s-6-11.031-17-1.031l-41-42.016l-6,37.992l-50-30.503l-14,40.498H1042v-51.003l-17.207-3l-6.854,41
			l-8.927-39l-5.963,37l-16.982-30c-9,3-8.991,23-8.991,23s-9.782-19.846-11.996-17c-3.5,4.5-3.248,10.5-2.123,15.375
			s3.126,8.625,3.126,8.625l2.001,11l-22-7l2,10l-13-8l15-10l-21-37c0,0-56,10-81,41l61-61l-21-21l-26,30l17-32c-9-6-57,69-57,69
			l-10-5l34-83l-6-9l-50,83l-6-3l39-86l-19-15c0,0-37,61-42,92l-10-13l-2-78l-53,7c0,0,10,61,16,85l-35-80l-12,6c0,0,28,95,38,123"
			/>
		<g id="Florcitas" clip-path="url(#SVGID_8_)">
			<g>
				<g>
					<path fill="#FFFFFF" d="M98.306,698.599c-1.17,2.854-1.306,6.935,2.022,8.36c0.875,0.375,1.922,0.125,2.204-0.896
						c0.819-2.971,0.896-7.03-3.113-7.232c-0.817-0.041-1.501,0.714-1.5,1.5c0.002,1.795,0.119,3.439,0.871,5.091
						c0.453,0.996,2.127,0.966,2.59,0c0.973-2.028,1.312-3.762,0.333-5.848c-0.502-1.071-2.038-0.878-2.59,0
						c-1.433,2.274-2.172,7.269,1.962,6.924c1.914-0.159,1.929-3.161,0-3c-0.512,0.043-0.377-0.092-0.176,0.188
						c-0.098-0.137-0.045-0.433-0.022-0.587c0.108-0.734,0.436-1.391,0.826-2.012c-0.864,0-1.727,0-2.59,0
						c0.471,1.006,0.125,1.863-0.333,2.82c0.864,0,1.727,0,2.59,0c-0.51-1.121-0.46-2.374-0.462-3.577c-0.5,0.5-1,1-1.5,1.5
						c1.295,0.065,0.419,2.713,0.22,3.436c0.735-0.299,1.469-0.598,2.204-0.896c-2.035-0.872-1.31-3.348-0.644-4.974
						C101.933,697.605,99.03,696.834,98.306,698.599L98.306,698.599z"/>
				</g>
			</g>
			<g>
				<g>
					<path fill="#FFFFFF" d="M96.306,717.932c-0.193,0.55-0.44,1.079-0.612,1.638c-0.251,0.817-0.229,1.665-0.055,2.493
						c0.232,1.104,1.76,1.448,2.507,0.662c0.789-0.831,1.429-1.878,1.719-2.996c0.487-1.874-2.406-2.668-2.893-0.797
						c-0.027,0.103-0.205,0.588-0.109,0.362c-0.206,0.485-0.476,0.928-0.839,1.31c0.836,0.221,1.671,0.441,2.507,0.662
						c-0.181-0.861,0.389-1.746,0.667-2.537c0.271-0.771-0.301-1.64-1.048-1.845C97.322,716.655,96.577,717.16,96.306,717.932
						L96.306,717.932z"/>
				</g>
			</g>
			<g>
				<g>
					<path fill="#FFFFFF" d="M106.025,721.391c-0.541-0.67-0.299-1.11-0.351-0.537c-0.032,0.352,0.065,0.702,0.223,1.013
						c0.357,0.7,1.125,0.937,1.855,0.964c0.516,0.02,1.045-0.298,1.295-0.743c0.613-1.091,1.148-2.329,0.872-3.601
						c-0.279-1.284-1.539-1.752-2.701-1.575c-0.911,0.138-1.703,0.919-2.169,1.662c-0.647,1.032-0.708,2.337-0.411,3.489
						c0.204,0.792,1.067,1.262,1.845,1.048c0.797-0.219,1.252-1.054,1.048-1.845c-0.029-0.113-0.112-0.681-0.058-0.195
						c-0.021-0.182-0.018-0.365-0.007-0.547c0.02-0.32-0.064,0.371-0.008,0.063c0.015-0.08,0.036-0.158,0.058-0.236
						c0.021-0.075,0.048-0.148,0.076-0.222c-0.162,0.434-0.078,0.188-0.026,0.085c0.055-0.106,0.121-0.206,0.19-0.303
						c-0.301,0.424-0.028,0.054,0.077-0.046c0.254-0.239-0.326,0.202,0.04-0.021c0.361-0.221-0.305,0.091-0.007-0.005
						c0.356-0.115-0.258,0.012-0.109,0.003c0.301-0.018-0.442-0.124-0.096-0.009c-0.435-0.146-0.335-0.155-0.211-0.073
						c-0.333-0.222-0.155-0.068-0.389-0.386c0.165,0.223-0.108-0.426-0.024-0.036c-0.114-0.523-0.026-0.198-0.036-0.02
						c-0.015,0.29,0.068-0.396,0.011-0.09c-0.016,0.088-0.041,0.175-0.064,0.262c-0.027,0.097-0.061,0.192-0.094,0.287
						c-0.022,0.063-0.17,0.399-0.023,0.066c-0.111,0.25-0.242,0.491-0.375,0.729c0.432-0.248,0.864-0.495,1.295-0.743
						c-0.304-0.022-0.197,0.02,0.322,0.126c0.408,1.104,0.607,1.426,0.595,0.966c0-0.092,0.015-0.186,0.02-0.277
						c0.026-0.541-0.218-0.972-0.543-1.375c-0.515-0.637-1.589-0.532-2.121,0C105.402,719.893,105.512,720.756,106.025,721.391
						L106.025,721.391z"/>
				</g>
			</g>
			<g>
				<g>
					<path fill="#FFFFFF" d="M98.919,727.664c0.008,1.188,0.117,2.405,0.894,3.353c0.832,1.014,2.297,0.606,2.95-0.336
						c0.464-0.669,0.498-1.668,0.233-2.415c-0.427-1.205-1.37-1.905-2.512-2.382c-0.92-0.384-1.899,0.565-1.899,1.446
						c0,0.556,0,1.111,0,1.667c0,1.935,3,1.935,3,0c0-0.556,0-1.111,0-1.667c-0.633,0.482-1.266,0.964-1.899,1.446
						c-0.361-0.15,0.067,0.052,0.135,0.091c0.375,0.216-0.148-0.164,0.15,0.104c0.085,0.076,0.334,0.391,0.04,0.004
						c0.075,0.099,0.135,0.208,0.189,0.318c-0.214-0.436-0.074-0.172-0.038-0.04c0.098,0.36-0.018-0.392-0.004-0.034
						c0.015,0.393,0.05-0.211,0.023-0.071c-0.069,0.355,0.115-0.207,0.057-0.089c-0.125,0.259,0.249-0.283,0.119-0.137
						c-0.102,0.098-0.028,0.043,0.222-0.165c-0.158,0.115,0.426-0.149,0.24-0.101c0.37-0.099,0.65-0.039,0.936,0.111
						c0.247,0.204,0.316,0.258,0.209,0.161c-0.162-0.149,0.243,0.349,0.114,0.146c-0.188-0.293,0.107,0.311,0.014,0.057
						c-0.051-0.138-0.082-0.282-0.112-0.426c-0.014-0.069-0.026-0.14-0.036-0.209c0.066,0.408,0.006-0.019,0-0.088
						c-0.021-0.247-0.024-0.496-0.026-0.744c-0.005-0.817-0.678-1.5-1.5-1.5C99.606,726.164,98.914,726.847,98.919,727.664
						L98.919,727.664z"/>
				</g>
			</g>
			<g>
				<g>
					<path fill="#FFFFFF" d="M109.973,734.599c-0.319,1.649-0.37,3.455,1.113,4.547c0.954,0.702,2.423,0.389,3.32-0.243
						c1.054-0.742,1.811-1.904,1.504-3.236c-0.385-1.674-2.386-2.084-3.824-2.169c-0.479-0.028-1.09,0.297-1.295,0.743
						c-0.411,0.896-0.537,1.775-0.538,2.757c-0.002,1.935,2.998,1.935,3,0c0-0.527-0.032-0.895,0.128-1.243
						c-0.432,0.248-0.864,0.495-1.295,0.743c0.149,0.009,0.297,0.021,0.445,0.036c-0.452-0.047-0.012,0.001,0.085,0.02
						c0.112,0.021,0.222,0.049,0.331,0.079c0.128,0.035,0.548,0.219,0.051-0.002c0.075,0.033,0.147,0.074,0.218,0.117
						c0.294,0.178-0.283-0.261-0.054-0.036c0.219,0.215-0.205-0.299-0.092-0.122c0.161,0.253-0.132-0.407-0.053-0.125
						c0.059,0.209-0.038-0.486-0.027-0.196c0.013,0.345,0.063-0.321,0.026-0.15c-0.012,0.057-0.031,0.111-0.051,0.166
						c0.191-0.523,0.108-0.247,0.031-0.114c-0.032,0.056-0.069,0.107-0.106,0.158c0.328-0.453,0.141-0.182,0.043-0.079
						c-0.046,0.049-0.096,0.095-0.146,0.14c-0.245,0.22,0.331-0.236,0.062-0.046c-0.111,0.078-0.23,0.145-0.353,0.204
						c-0.208,0.101,0.427-0.164,0.128-0.057c-0.076,0.027-0.155,0.047-0.233,0.064c-0.307,0.069,0.393-0.039,0.167-0.021
						c-0.075,0.006-0.151,0.002-0.226-0.005c0.549,0.048,0.329,0.052,0.184,0.01c-0.159-0.046,0.42,0.223,0.12,0.042
						c-0.183-0.111,0.344,0.303,0.127,0.091c-0.225-0.218,0.225,0.347,0.055,0.064c-0.171-0.285,0.119,0.33,0.034,0.1
						c-0.038-0.103-0.062-0.21-0.083-0.317c-0.049-0.243,0.038,0.43,0.009,0.02c-0.01-0.147-0.007-0.296-0.002-0.443
						c0.005-0.136,0.018-0.271,0.032-0.404c-0.047,0.445,0.037-0.193,0.057-0.294c0.155-0.802-0.214-1.615-1.048-1.845
						C111.077,733.347,110.128,733.795,109.973,734.599L109.973,734.599z"/>
				</g>
			</g>
			<g>
				<g>
					<path fill="#FFFFFF" d="M61.124,722.24c-0.979,2.15-2.357,5.514,0.141,7.181c1.73,1.155,4.259-0.129,5.649-1.235
						c1.495-1.189,2.778-3.273,1.574-5.119c-1.334-2.046-5.073-2.548-7.147-1.536c-4.515,2.201-0.932,9.068,1.615,11.372
						c1.442,1.306,3.683,1.759,4.774-0.234c1.558-2.85,0.203-6.79-2.485-8.342c-1.972-1.139-4.275-0.623-5.914,0.791
						c-1.989,1.716-1.943,4.545-0.946,6.727c2.002,4.379,8.981,5.292,10.82,0.32c1.557-4.211-1.442-9.418-6.118-9.334
						c-5.424,0.098-6.885,7.299-2.757,10.129c1.6,1.098,3.099-1.504,1.514-2.59c-1.563-1.072-1.229-3.125,0.217-4.145
						c1.681-1.187,3.39,0.257,4.158,1.718c0.692,1.315,0.558,3.062-0.476,4.132c-1.576,1.632-3.964-0.341-4.767-1.744
						c-0.938-1.641,0.334-3.95,2.295-3.571c1.789,0.346,2.187,2.369,1.972,3.894c-0.026,0.182-0.174,0.631-0.148,0.602
						c0.27-0.301,0.645-0.081,0.482-0.154c-0.645-0.287-1.152-0.927-1.558-1.481c-0.877-1.199-1.992-3.11-1.771-4.676
						c0.215-1.523,2.994-0.946,3.764-0.206c-0.135-0.13-0.067,0.18-0.376,0.549c-0.468,0.56-1.126,1.037-1.802,1.313
						c-0.514,0.209-1.083,0.136-0.966,0.313c-0.412-0.623,0.58-2.565,0.849-3.157C64.51,722.008,61.925,720.481,61.124,722.24
						L61.124,722.24z"/>
				</g>
			</g>
			<g>
				<g>
					<path fill="#FFFFFF" d="M162.639,772.599c-0.901,2.335-0.167,5.278,1.817,6.837c1.566,1.23,5.15,1.841,5.867-0.724
						c0.558-1.996-1.064-3.826-2.525-4.935c-1.505-1.141-3.536-1.096-5.317-0.842c-1.258,0.178-2.279,0.975-2.391,2.285
						c-0.087,1.02,0.778,1.961,1.505,2.549c1.74,1.409,4.194,2.625,6.482,2.572c1.266-0.028,2.322-0.662,2.75-1.877
						c0.469-1.328-0.358-2.922-0.997-4.033c-1.308-2.274-3.833-2.893-5.919-1.263c-1.792,1.399-1.604,4.34-0.369,6.005
						c1.139,1.536,3.034,2.546,4.97,2.244c2.143-0.334,2.953-2.488,2.742-4.421c-0.284-2.599-2.073-6.55-5.315-5.026
						c-2.143,1.007-3.496,4.125-3.357,6.391c0.088,1.425,0.862,2.69,2.298,3.073c1.813,0.482,3.8-0.581,5.298-1.476
						c1.659-0.989,0.151-3.584-1.514-2.59c-0.688,0.41-1.381,0.794-2.137,1.033c-0.148,0.047-0.3,0.082-0.451,0.115
						c-0.447,0.1,0.281-0.013-0.135,0.02c-0.117,0.009-0.234,0.004-0.351-0.002c0.409,0.021,0.02-0.011-0.097-0.049
						c0.128,0.042,0.225,0.146,0.086-0.003c0.272,0.291,0.105,0.136,0.04,0.022c-0.157-0.275,0.117,0.336,0.014,0.027
						c-0.158-0.472-0.033,0.119-0.057-0.273c-0.009-0.144,0.06-0.874,0.001-0.473c0.167-1.142,0.381-1.581,1.041-2.524
						c0.224-0.321-0.198,0.235,0.047-0.059c0.07-0.084,0.146-0.164,0.222-0.243c0.073-0.076,0.151-0.146,0.23-0.216
						c0.263-0.234-0.268,0.186,0.013-0.006c0.405-0.275-0.113-0.017,0.213-0.116c0.3-0.091-0.376,0.022-0.068,0.002
						c0.4-0.028-0.231-0.066,0.013-0.003c0.01,0.002-0.082-0.055-0.023-0.001c0.047,0.043,0.28,0.322,0.069,0.045
						c0.081,0.106,0.149,0.222,0.218,0.336c0.345,0.576,0.537,1.364,0.708,2.15c0.081,0.373,0.062,0.758-0.038,1.123
						c-0.027,0.099-0.265,0.234-0.039,0.14c-0.456,0.19-0.964,0.012-1.558-0.354c-0.547-0.339-0.884-0.888-1.028-1.5
						c-0.116-0.491,0.191-1.487,0.857-1.373c0.692,0.12,1.064,1.224,1.321,1.789c-0.023-0.051,0.133,0.444,0.168,0.604
						c0.004,0.017-0.04,0.205-0.008,0.088c0.07-0.256,0.13-0.29,0.363-0.378c-0.397,0.149,0.023,0.034-0.124,0.047
						c-0.169,0.016-0.34,0.007-0.509-0.003c-0.436-0.027,0.114,0.027-0.163-0.021c-0.202-0.035-0.401-0.085-0.599-0.138
						c-0.427-0.111-0.843-0.265-1.252-0.431c0.294,0.119-0.216-0.103-0.266-0.127c-0.204-0.097-0.405-0.202-0.604-0.31
						c-0.377-0.203-0.739-0.433-1.088-0.682c-0.214-0.151,0.164,0.144-0.152-0.121c-0.133-0.111-0.257-0.232-0.377-0.356
						c-0.3-0.311,0.121,0.217-0.094-0.112c-0.216-0.331,0.071,0.313-0.018-0.033c0.108,0.42-0.172,0.857-0.326,0.956
						c0.135-0.07,0.095-0.059-0.12,0.037c0.098-0.041,0.201-0.067,0.302-0.095c0.344-0.094,0.246-0.057,0.409-0.072
						c1.212-0.113,2.254-0.1,3.19,0.739c0.373,0.334,0.738,0.771,0.895,1.227c0.099,0.288,0.025-0.021,0.185-0.197
						c0.313-0.155,0.336-0.187,0.067-0.093c-0.118,0.033-0.334,0.018-0.462-0.004c-1.835-0.311-2.219-2.663-1.661-4.106
						C166.23,771.588,163.328,770.813,162.639,772.599L162.639,772.599z"/>
				</g>
			</g>
			<g>
				<g>
					<path fill="#FFFFFF" d="M174.791,779.24c-1.214,2.346-3.521,13.247,1.322,13.164c2.955-0.051,4.186-4.412,4.271-6.688
						c0.087-2.344-0.998-6.474-4.163-5.587c-2.857,0.802-4.223,5.329-3.668,7.914c0.47,2.188,2.815,3.609,4.964,3.161
						c2.542-0.529,3.559-3.082,3.301-5.448c-0.229-2.099-1.815-7.257-4.89-6.184c-3.527,1.231-3.175,8.416-1.469,10.849
						c0.574,0.819,2.092,1.122,2.59,0c1.066-2.398,1.201-4.829,1.205-7.424c0.003-1.935-2.997-1.935-3,0
						c-0.003,2,0.034,4.045-0.795,5.91c0.864,0,1.727,0,2.59,0c-0.983-1.401-0.869-3.466-0.553-5.069
						c0.071-0.36,0.165-0.746,0.312-1.084c0.244-0.562,0.493-0.387-0.158-0.31c-0.406-0.195-0.46-0.171-0.162,0.071
						c0.133,0.177,0.251,0.363,0.354,0.56c0.418,0.709,0.669,1.508,0.88,2.298c0.206,0.77,0.408,2.756-0.807,2.911
						c-1.167,0.148-1.648-0.984-1.509-1.99c0.16-1.148,0.752-2.289,1.525-3.136c0.337-0.369-0.159-0.241-0.069-0.106
						c0.229,0.34,0.308,0.766,0.4,1.156c0.316,1.336,0.153,4.598-1.396,5.218c0.497-0.199,0.862,0.521,0.724,0.151
						c-0.101-0.268-0.165-0.569-0.202-0.853c-0.127-0.985-0.09-1.994-0.033-2.982c0.093-1.611,0.272-3.53,1.026-4.988
						C178.269,779.039,175.68,777.521,174.791,779.24L174.791,779.24z"/>
				</g>
			</g>
			<g>
				<g>
					<path fill="#FFFFFF" d="M159.359,784.27c-1.264,1.371-2.504,3.145-2.116,5.111c0.266,1.348,1.414,2.35,2.728,2.629
						c3.607,0.768,5.776-2.952,4.28-6.039c-1.017-2.098-3.559-2.869-5.544-1.694c-2.135,1.263-2.514,4.028-1.567,6.128
						c0.87,1.93,3.258,2.457,5.063,1.678c2.065-0.891,3.232-3.309,2.75-5.471c-0.365-1.639-2.091-2.85-3.742-2.674
						c-1.931,0.206-3.298,1.92-3.552,3.78c-0.238,1.741,0.332,3.951,2.187,4.579c1.964,0.665,3.776-0.964,4.441-2.677
						c0.622-1.6-0.073-3.596-1.214-4.77c-1.367-1.406-3.357-1.159-4.712,0.086c-1.454,1.336-1.622,3.712-0.004,4.979
						c1.813,1.421,4.18,0.959,5.791-0.525c1.426-1.313-0.701-3.429-2.121-2.121c-0.496,0.457-1.301,0.794-1.856,0.258
						c-0.03-0.028,0.195-0.368,0.167-0.323c0.181-0.295,0.379-0.355,0.499-0.324c0.328,0.085,0.62,0.883,0.65,1.277
						c0.026,0.354-0.052,0.6-0.232,0.897c-0.071,0.117-0.566,0.342-0.412,0.42c-0.388-0.196-0.253-1.273-0.149-1.648
						c0.082-0.293,0.286-0.647,0.544-0.822c0.193-0.132,0.33-0.114,0.468-0.047c0.523,0.256,0.436,0.955,0.196,1.434
						c-0.337,0.673-0.891,1.093-1.556,1.073c-1.017-0.03-0.979-2.413,0.267-2.771c0.588-0.169,1.027,0.652,1.131,1.104
						c0.028,0.119,0.016,0.696,0.037,0.565c-0.023,0.142-0.07,0.277-0.117,0.412c0.125-0.356-0.279,0.314-0.017,0.002
						c-0.04,0.047-0.342,0.3-0.064,0.092c-0.098,0.073-0.207,0.13-0.314,0.187c0.368-0.192-0.628,0.092-0.177,0.046
						c-0.121,0.013-0.242,0.009-0.363,0.005c-0.398-0.013,0.31,0.068-0.076-0.015c-0.065-0.014-0.434-0.146-0.088,0
						c-0.078-0.032-0.483-0.304-0.185-0.068c-0.09-0.071-0.166-0.157-0.242-0.242c0.29,0.328-0.073-0.238,0.094,0.16
						c-0.026-0.061-0.105-0.444-0.059-0.088c-0.018-0.137-0.009-0.276-0.001-0.414c0.02-0.338,0.658-1.316,1.108-1.831
						c0.067-0.073,0.134-0.146,0.2-0.218C162.789,784.971,160.672,782.844,159.359,784.27L159.359,784.27z"/>
				</g>
			</g>
			<g>
				<g>
					<path fill="#FFFFFF" d="M164.124,772.907c-1.041,1.783-1.939,5.277,1.024,5.817c0.991,0.181,1.861-0.13,2.616-0.769
						c1.015-0.856,0.886-2.415,0.686-3.573c-0.565-3.283-3.319-4.632-6.122-2.681c-2.471,1.72-2.331,5.429,0.337,6.837
						c2.638,1.393,5.712-0.97,5.916-3.729c0.171-2.314-1.916-3.879-4.097-3.574c-5.114,0.713-4.681,9.721,0.789,9.52
						c4.772-0.176,6.009-6.979,1.709-8.94c-1.938-0.885-4.34-0.55-5.983,0.8c-1.898,1.559-1.958,3.981-0.954,6.068
						c1.068,2.221,3.883,2.735,6.007,1.952c2.39-0.882,3.939-3.122,3.854-5.667c-0.074-2.245-1.588-4.427-3.959-4.514
						c-2.847-0.105-3.362,3.17-2.975,5.273c0.35,1.901,3.24,1.094,2.893-0.797c-0.036-0.196-0.1-1.52,0.071-1.494
						c0.932,0.14,0.998,1.511,0.97,2.213c-0.066,1.634-2.959,3.36-4.115,1.779c-1.25-1.71,0.299-3.106,2.017-3.109
						c1.517-0.004,2.707,2.08,1.289,3.101c-1.444,1.04-2.409-0.281-2.172-1.72c0.13-0.787,0.509-1.554,1.358-1.521
						c0.4,0.016,0.336,0.523,0.177,0.855c-0.415,0.871-1.348,1.286-1.9,0.345c-0.432-0.736,1.187-2.182,1.649-1.454
						c0.368,0.579,0.362,1.414,0.376,2.07c-0.004-0.193,0.32-0.267,0.026-0.188c0.226-0.061,0.419,0.116,0.443,0.328
						c-0.068-0.598,0.378-1.234,0.66-1.717C167.692,772.747,165.099,771.237,164.124,772.907L164.124,772.907z"/>
				</g>
			</g>
			<g>
				<g>
					<path fill="#FFFFFF" d="M88.123,788.172c-11.382,3.829-7.991,21.1,4.021,20.874c10.984-0.206,12.706-14.154,13.257-22.382
						c-2.216,2.216-4.432,4.432-6.647,6.647c-0.378,0.021-0.711-0.149-0.998-0.513c0.752,0.646,0.323,0.343,0.854,1.2
						c1.024,1.655,1.93,3.309,3.207,4.799c2.491,2.907,7.238,5.306,11.148,4.061c4.534-1.443,6.787-5.777,5.363-10.331
						c-0.476-1.521-1.31-2.979-2.12-4.343c-0.436-0.734-0.887-1.458-1.323-2.192c-0.13-0.219-0.914-2.331-0.454-0.836
						c-1.347-4.383-6.154-6.281-10.171-4.138c-1.722,0.919-3.619,1.757-5.327,1.83c-1.661,0.072-0.541-0.224-0.187,0.091
						c-0.414-0.367-0.594-1.887-0.71-2.433c-2.205,2.894-4.41,5.788-6.615,8.683c0.436,0.09,0.825,0.021,1.166-0.207
						c5.303,0.992,9.606-3.094,8.486-8.486c-0.503-2.424-1.751-4.143-3.816-5.491c-5.859-3.826-13.103,3.687-9.495,9.495
						c1.592,2.563,3.483,4.512,6.516,5.187c3.163,0.703,5.73-0.935,6.833-3.88c1.088-2.906,0.372-5.822-1.364-8.313
						c-3.165,3.165-6.33,6.33-9.495,9.495c0.109,0.063,0.217,0.126,0.326,0.189c-1.062-1.381-2.123-2.761-3.185-4.142
						c0.164,0.363,0.289,0.739,0.376,1.127c2.217-2.911,4.435-5.822,6.652-8.732c-1.03-0.137-1.968-0.041-3,0.039
						c-4.619,0.354-7.568,4.091-6.615,8.683c1.201,5.786,4.758,10.623,10.681,12.091c5.407,1.34,11.038-0.785,15.761-3.269
						c-3.39-1.379-6.781-2.759-10.171-4.138c0.518,1.723,1.344,3.335,2.235,4.891c0.424,0.741,0.864,1.472,1.288,2.213
						c0.811,1.417,0.082-0.508,0.389-2.055c0.599-1.028,1.198-2.057,1.798-3.085c-0.073,0.088-0.146,0.176-0.219,0.264
						c1.027-0.599,2.054-1.196,3.08-1.795c0.917-0.411,1.636-0.332,2.158,0.235c0.792,0.354-0.584-0.724-0.233-0.241
						c-0.801-1.103-1.49-2.274-2.317-3.359c-2.759-3.616-5.934-5.495-10.501-5.889c-3.845-0.331-6.344,3.29-6.647,6.647
						c-0.273,3.025-0.585,6.458-2.042,9.297c-0.597,1.164-0.424,0.268,0.962-0.286c0.827-0.213,1.513-0.008,2.059,0.615
						c0.521,1.109,0.604,1.119,0.249,0.03c-0.364-1.391-0.723-3.284-0.627-4.656C92.868,789.383,90.261,787.453,88.123,788.172
						L88.123,788.172z"/>
				</g>
			</g>
			<g>
				<g>
					<path fill="#FFE2D0" d="M566.55,789.896c1.626,0.32-1.231-0.405-1.588-0.494c1.351,2.38,2.702,4.759,4.053,7.139
						c0.201-1.427-1.388,0.15-0.188,0.068c1.196-0.082,1.81,0.003,2.881,0.548c1.569,0.798,2.476,1.949,4.242,2.578
						c2.756,0.98,5.978-0.34,8.466-1.395c3.108-1.318,3.759-5.839,2.22-8.466c-1.864-3.184-5.36-3.537-8.465-2.22
						c-1.333,0.094-0.554,0.36,2.335,0.801c-0.585-0.504-1.19-0.982-1.813-1.438c-1.209-0.772-2.54-1.342-3.903-1.792
						c-2.078-0.686-4.553-0.804-6.718-0.556c-5.726,0.657-10.34,4.222-10.456,10.328c-0.084,4.472,4.972,7.135,8.732,5.011
						c2.278-1.287,3.655-3.326,3.325-6.011C569.452,792.2,568.55,790.289,566.55,789.896L566.55,789.896z"/>
				</g>
			</g>
			<g>
				<g>
					<path fill="#FFE2D0" d="M577.707,785.997c0.045-0.718,0.112-1.36,0.284-2.057c0.266-1.074-0.266,0.339,0.219-0.539
						c-0.313,0.568,0.204-0.187,0.359-0.313c-0.934,0.388-1.869,0.774-2.802,1.161c1.101,0.003,2.254-0.259,3.22-0.803
						c1.066-0.601-0.63,0.103,0.617-0.236c0.08-0.021,1.565-0.241,0.571-0.119c0.14-0.018,0.279-0.036,0.418-0.054
						c-0.952-0.183-0.697-0.16,0.767,0.066c0.672,0.059,1.342-0.022,1.971-0.268c1.602-0.625,2.721-1.464,3.656-2.928
						c3.512-5.501-5.536-10.796-8.73-5.104c1.378-1.086,1.685-1.413,0.92-0.982c-0.487,0.254-1.048,0.802-1.491,1.206
						c0.688-0.401,1.375-0.802,2.063-1.202c-1.56,0.468-3.001,0.726-4.528,1.376c-2.146,0.913-3.142,2.902-3.416,5.083
						c0.181-0.667,0.361-1.333,0.541-2c-1.716,2.226-1.991,4.981-1.879,7.711C570.658,790.686,577.416,790.641,577.707,785.997
						L577.707,785.997z"/>
				</g>
			</g>
			<g>
				<g>
					<path fill="#FFE2D0" d="M572.108,779.072c-0.345-1.255-0.848-2.307-1.603-3.355c-0.626-0.869-1.053-1.861-1.665-2.725
						c-1.434-2.021-3.948-2.973-6.233-1.634c-2.305,1.351-2.66,3.972-1.634,6.233c0.529,1.168,1.672,2.207,2.626,3.058
						c1.063,0.947,2.13,1.71,3.396,2.353C569.654,784.353,572.956,782.151,572.108,779.072L572.108,779.072z"/>
				</g>
			</g>
			<g>
				<g>
					<path fill="#FFE2D0" d="M594.021,749.273c-2.774-0.902-5.859-2.538-8.043-4.504c-2.801-2.522-3.403-5.641-4.686-8.966
						c-2.405-6.237-11.515-5.474-11.832,1.602c-0.268,6.002,4.742,11.324,8.958,14.923c4.604,3.931,10.802,6.922,16.442,3.371
						C597.492,754.041,596.936,750.221,594.021,749.273L594.021,749.273z"/>
				</g>
			</g>
			<g>
				<g>
					<path fill="#FFE2D0" d="M597.481,753.969c-0.916-5.994-3.654-11.526-5.102-17.404c-0.659-2.676-1.095-5.42-1.581-8.132
						c-0.077-0.426-0.567-2.462-0.483-3.019c-0.181,1.191-5.914,4.758-7.72,2.194c1.705,2.42-0.106,8.219-0.257,11.038
						c-0.293,5.471,1.187,11.294,5.532,14.898c4.102,3.402,10.834,2.516,12.328-3.254c1.068-4.13-0.072-13.761,4.247-15.977
						c-2.956-0.381-5.911-0.763-8.866-1.144c-0.714-0.819,0.71-1.715-0.748,0.141c-1.574,2.002-3.455,3.766-5.149,5.665
						c-4.096,4.592-8.44,12.753-2.295,17.719c4.12,3.33,9.156,1.959,11.105-2.932c0.91-2.283,0.503-2.523,1.823-4.154
						c2.011-2.482,4.261-4.732,6.181-7.297c4.761-6.362,4.639-13.469-0.571-19.489c-2.22-2.565-6.077-2.562-8.866-1.144
						c-10.104,5.138-8.577,15.426-11.086,24.689c4.109-1.085,8.219-2.17,12.328-3.254c-1.527-1.296-1.166-4.009-0.893-7.049
						c0.304-3.383,0.714-6.832-0.031-10.195c-1.553-7.001-6.927-12.448-14.394-11.282c-9.545,1.49-6.393,14.952-5.064,20.836
						c1.912,8.466,5.879,18.597,13.881,22.911C595.021,760.073,597.983,757.25,597.481,753.969L597.481,753.969z"/>
				</g>
			</g>
			<g>
				<g>
					<path fill="#FFE2D0" d="M644.953,782.11c-9.888,4.788-13.197,24.192-1.252,28.326c8.306,2.874,14.037-5.028,14.941-12.075
						c-0.085-0.424-0.023-0.797,0.185-1.119c0.946-2.584-0.694-2.143-4.923,1.324c1.928,1.021,3.546,1.85,5.76,2.053
						c4.628,0.423,7.961-3.058,9.914-6.827c-3.429,0.898-6.857,1.798-10.286,2.696c4.685,2.9,10.967,2.49,13.733-2.857
						c2.171-4.198,1.104-8.908,0.399-13.324c-0.685-4.292-5.659-6.068-9.362-5.315c-3.097,0.63-5.716,2.5-8.306,4.205
						c-0.645,0.424-1.306,0.82-1.984,1.188c-1.645,0.668-0.184,1.432,4.385,2.291c-0.49-1.281-0.078-2.698-0.071-4.033
						c0.035-6.866-10.307-10.357-13.503-3.657c-3.127,6.555-1.588,15.135,4.686,19.208c3.342,2.171,7.832,1.328,11.18-0.26
						c2.527-1.197,5.027-3.747,7.661-4.265c-3.121-1.772-6.241-3.544-9.362-5.315c0.037,0.238,0.366,2.56,0.243,1.527
						c0.063,0.571,0.099,1.146,0.109,1.721c-0.271,3.754,2.322,2.389,7.781-4.096c-3.32-1.887-8.523-1.044-10.286,2.696
						c-1.906,3.038-0.084,3.041,5.465,0.009c-1.056-0.536-2.06-1.123-3.203-1.487c-2.715-0.864-5.596-0.708-8.142,0.601
						c-4.928,2.533-5.824,7.122-6.583,12.099c-0.582,1.807,0.007,1.424,1.767-1.149c1.856-0.613,3.79,1.333,4.362,2.873
						c-0.576-1.548-0.059,0.869-0.064-1.029c-0.002-0.848,0.132-1.705,0.204-2.549c0.209-2.459,1.12-6.216,1.731-7.939
						C653.692,783.233,648.467,780.409,644.953,782.11L644.953,782.11z"/>
				</g>
			</g>
			<g>
				<g>
					<path fill="#FFE2D0" d="M644.868,734.535c-1.108,0.615-1.847,1.424-2.557,2.448c0.249-0.322,0.497-0.644,0.746-0.966
						c-0.367,0.447-0.795,0.872-1.036,1.401c-0.537,1.181-0.704,1.623-0.769,2.96c-0.071,1.471,0.617,3.085,1.632,4.102
						c0.665,0.664,1.586,1.196,2.493,1.445c1.219,0.336,1.816,0.159,3.041-0.016c1.266-0.18,2.521-1.361,3.136-2.411
						c0.642-1.097,1.029-2.812,0.529-4.043c-0.212-0.522-0.336-1.096-0.672-1.556c-0.482-0.815-1.132-1.465-1.947-1.947
						c-0.739-0.433-0.951-0.392-1.475-0.61c0.424,0.179,0.848,0.357,1.271,0.536c-0.057-0.026-0.11-0.059-0.161-0.097
						c0.352,0.271,0.703,0.543,1.055,0.815c-0.075-0.063-0.138-0.125-0.2-0.201c0.264,0.341,0.527,0.682,0.79,1.022
						c-0.057-0.083-0.102-0.164-0.144-0.256c0.164,0.389,0.328,0.777,0.492,1.167c-0.029-0.066-0.05-0.136-0.061-0.207
						c0.057,0.423,0.113,0.846,0.17,1.269c0-0.122,0.008-0.238,0.024-0.36c-0.055,0.413-0.111,0.825-0.167,1.238
						c0.034-0.18,0.082-0.349,0.146-0.52c-0.15,0.357-0.301,0.715-0.452,1.071c0.038-0.093,0.08-0.185,0.126-0.273
						c0.881-1.79,0.784-3.854-0.687-5.325C648.773,733.803,646.601,733.574,644.868,734.535L644.868,734.535z"/>
				</g>
			</g>
			<g>
				<g>
					<path fill="#FFE2D0" d="M642.679,724.545c0.01,0.038,0.021,0.075,0.03,0.113c-0.054-0.401-0.107-0.803-0.161-1.203
						c0.014,0.169,0,0.331-0.013,0.5c-0.104,1.489,0.897,3.004,2.141,3.732c1.747,1.023,3.781,0.629,5.238-0.676
						c0.438-0.392,0.842-0.858,1.118-1.375c0.586-1.099,0.796-2.304,0.461-3.521c-0.423-1.536-1.656-2.77-3.192-3.192
						C644.925,717.994,641.777,721.186,642.679,724.545L642.679,724.545z"/>
				</g>
			</g>
			<g>
				<g>
					<path fill="#FFE2D0" d="M635.877,708.411c-0.527,1.63-0.041,3.823,1.294,4.959c1.301,1.105,2.681,1.522,4.372,1.147
						c0.807-0.18,1.311-0.612,1.924-1.121c-0.294,0.227-0.588,0.454-0.882,0.682c0.788-0.601,1.104-0.74,1.616-1.614
						c0.458-0.781,0.315-0.817,0.52-1.322c-0.155,0.366-0.31,0.732-0.464,1.099c0.017-0.022,0.033-0.046,0.05-0.069
						c-0.241,0.313-0.483,0.625-0.725,0.938c0.023-0.02,0.047-0.04,0.07-0.06c-0.315,0.244-0.63,0.487-0.945,0.73
						c0.03-0.016,0.06-0.032,0.09-0.049c2.694-1.442,3.042-5.311,0.954-7.398c-1.188-1.188-2.962-1.657-4.583-1.212
						C637.529,705.57,636.388,706.827,635.877,708.411L635.877,708.411z"/>
				</g>
			</g>
			<g>
				<g>
					<path fill="#FFE2D0" d="M653.5,707.787c-2.091,0.476-3.82,2.595-3.699,4.771c0.149,2.683,2.041,4.574,4.724,4.724
						c2.175,0.121,4.295-1.608,4.77-3.699c0.378-1.66,0.018-3.354-1.211-4.583S655.161,707.41,653.5,707.787L653.5,707.787z"/>
				</g>
			</g>
			<g>
				<g>
					<path fill="#FFE2D0" d="M759.419,717.234c2.491,0,4.57-2.079,4.57-4.57s-2.079-4.57-4.57-4.57s-4.57,2.079-4.57,4.57
						S756.928,717.234,759.419,717.234L759.419,717.234z"/>
				</g>
			</g>
			<g>
				<g>
					<path fill="#FFE2D0" d="M746.481,703.111c-0.042,0.022-0.084,0.045-0.126,0.066c0.361-0.152,0.722-0.305,1.083-0.457
						c-0.029,0.007-0.059,0.014-0.088,0.021c0.807,0,1.614,0,2.421,0c-0.034-0.013-0.069-0.024-0.104-0.034
						c-1.532-0.476-3.297,0.051-4.413,1.166c-0.563,0.566-0.951,1.233-1.167,2.002c-0.216,0.804-0.216,1.607,0,2.411
						c0.003,0.018,0.007,0.036,0.01,0.054c0.217,0.773,0.608,1.445,1.174,2.016c0.771,0.771,2.097,1.471,3.229,1.338
						c1-0.118,1.477-0.113,2.358-0.629c0.849-0.497,1.208-1.016,1.78-1.796c0.407-0.702,0.612-1.459,0.614-2.271
						c0-1.188-0.478-2.342-1.318-3.182C750.457,702.337,748.284,702.165,746.481,703.111L746.481,703.111z"/>
				</g>
			</g>
			<g>
				<g>
					<path fill="#FFE2D0" d="M747.255,694.39c-0.101,0.663-0.182,1.329-0.271,1.994c-0.167,1.247,0.404,2.578,0.975,3.637
						c0.47,0.872,1.141,1.668,1.759,2.421c0.906,1.104,2.284,1.865,3.625,2.291c1.523,0.483,2.742,0.3,4.272,0.066
						c1.126-0.316,2.104-0.887,2.935-1.711c0.824-0.83,1.395-1.809,1.711-2.935c0.4-1.704,0.324-3.614-0.671-5.125
						c-0.971-1.475-2.24-2.58-3.975-3.057c-1.082-0.298-1.288-0.176-2.008-0.251c0.591,0.079,1.182,0.159,1.773,0.238
						c-0.124-0.025-0.234-0.06-0.352-0.107c0.534,0.226,1.067,0.45,1.6,0.676c-0.306-0.153-0.598-0.295-0.875-0.499
						c0.447,0.346,0.895,0.691,1.342,1.036c-0.29-0.231-0.55-0.486-0.802-0.76c-1.013-1.099-2.204-1.676-3.599-2.139
						c-1.5-0.498-3.322-0.174-4.659,0.609C748.814,691.49,747.477,692.927,747.255,694.39L747.255,694.39z"/>
				</g>
			</g>
			<g>
				<g>
					<path fill="#FFE2D0" d="M762.753,687.427c5.713,0,5.713-8.859,0-8.859S757.04,687.427,762.753,687.427L762.753,687.427z"/>
				</g>
			</g>
			<g>
				<g>
					<path fill="#FFE2D0" d="M774.968,701.01c0.009-0.086,0.032-0.168,0.071-0.245c-0.17,0.405-0.341,0.81-0.512,1.214
						c0.47-0.901,0.856-1.896,0.776-2.939c-0.003-0.9-0.23-1.74-0.682-2.519c-0.443-0.749-1.04-1.346-1.79-1.789
						c-1.476-0.865-3.569-0.967-5.036,0c-0.847,0.558-1.483,1.103-2.002,1.987c-0.536,0.914-0.732,1.898-0.771,2.945
						c-0.083,2.238,1.605,4.301,3.717,4.882c1.307,0.359,2.731,0.175,3.901-0.511C773.699,703.415,774.729,702.251,774.968,701.01
						L774.968,701.01z"/>
				</g>
			</g>
			<g>
				<g>
					<path fill="#FFE2D0" d="M880.086,727.199c2.472,0,4.535-2.063,4.535-4.535s-2.063-4.535-4.535-4.535s-4.535,2.063-4.535,4.535
						S877.614,727.199,880.086,727.199L880.086,727.199z"/>
				</g>
			</g>
			<g>
				<g>
					<path fill="#FFE2D0" d="M862.813,746.997c-0.164,2.166,1.539,4.554,3.711,4.909c0.802,0.216,1.605,0.216,2.407,0
						c0.767-0.215,1.433-0.603,1.998-1.164c1.091-1.091,1.675-2.9,1.165-4.405c-0.182-0.533-0.374-1.063-0.663-1.553
						c0.155,0.369,0.312,0.737,0.467,1.106c-0.013-0.039-0.025-0.078-0.039-0.118c-0.641-1.961-2.318-3.381-4.441-3.381
						c-1.217,0-2.396,0.489-3.257,1.349C863.25,744.653,862.908,745.742,862.813,746.997L862.813,746.997z"/>
				</g>
			</g>
			<g>
				<g>
					<path fill="#FFE2D0" d="M882.737,755.217c-0.005-0.001-0.01-0.003-0.015-0.004c0.386,0.163,0.772,0.325,1.158,0.488
						c-0.003-0.002-0.007-0.004-0.01-0.006c0.32,0.248,0.642,0.495,0.962,0.743c-0.003-0.003-0.006-0.006-0.009-0.009
						c0.243,0.314,0.486,0.629,0.729,0.943c-0.502-0.697-0.896-1.269-1.683-1.678c-0.792-0.412-1.538-0.682-2.451-0.655
						c-2.213,0.064-4.182,1.466-4.78,3.64c-0.469,1.706,0.025,3.572,1.275,4.822c1.573,1.574,4.084,1.901,6.007,0.775
						c1.507-0.883,2.455-2.532,2.455-4.28C886.376,757.767,884.858,755.836,882.737,755.217L882.737,755.217z"/>
				</g>
			</g>
			<g>
				<g>
					<path fill="#FFE2D0" d="M883.865,743.891c-0.027,0.074-0.052,0.148-0.075,0.225c-0.57,1.779,0.068,3.86,1.362,5.154
						c0.661,0.656,1.44,1.11,2.338,1.362c0.939,0.253,1.878,0.253,2.817,0c0.072-0.029,0.145-0.056,0.218-0.081
						c0.917-0.258,1.713-0.722,2.389-1.393c0.671-0.676,1.135-1.472,1.393-2.389c0.513-1.863-0.027-3.902-1.393-5.268
						s-3.404-1.905-5.268-1.393C885.731,740.637,884.5,742.073,883.865,743.891L883.865,743.891z"/>
				</g>
			</g>
			<g>
				<g>
					<path fill="#FFE2D0" d="M899.086,758.797c2.798,0,5.133-2.335,5.133-5.133s-2.335-5.133-5.133-5.133s-5.133,2.335-5.133,5.133
						S896.288,758.797,899.086,758.797L899.086,758.797z"/>
				</g>
			</g>
			<g>
				<g>
					<path fill="#FFE2D0" d="M1003.282,757.658c-3.66-0.958-7.812-2.271-11.355-0.398c-3.857,2.038-3.687,6.855-1.267,9.83
						c2.718,3.343,6.688,3.464,10.607,2.902c-1.351,0.779-2.433-0.302-3.245-3.243c0.104,0.882,0.037,1.813,0.051,2.7
						c0.037,2.346,0.584,4.639,1.85,6.622c2.9,4.544,8.68,4.124,11.658,0c0.74-1.024,1.263-2.099,1.757-3.259
						c0.25-0.586,0.517-1.143,0.835-1.695c-1.549,2.691-5.325,1.455-2.554,2.407c5.328,1.831,11.204-5.175,7.645-9.944
						c-1.647-2.207-3.561-3.696-5.827-5.251c-0.336-0.231-2.029-1.438-1.763-1.222c-0.356-0.298-0.692-0.616-1.009-0.955
						c0.893,0.901,0.406,5.229,0.797,3.046c1.182-6.588-5.607-10.241-10.696-6.227c-4.419,3.487-2.518,9.124,0.306,12.774
						c1.071,1.386,2.816,2.398,4.226,3.398c0.636,0.451,1.288,0.879,1.932,1.318c0.417,0.284,1.06,0.902,0.345-0.049
						c2.548-3.315,5.096-6.63,7.645-9.944c-3.713-1.263-7.937-1.233-10.94,1.635c-2.146,2.05-2.679,4.815-4.355,7.152
						c3.886,0,7.772,0,11.658,0c-0.026-0.038-0.254-1.782-0.312-2.508c-0.194-2.407-0.829-5.146-2.668-6.873
						c-1.778-1.669-4.068-2.948-6.598-2.881c-1.125,0.029-2.226,0.212-3.338,0.369c-1.964,0.278,0.154,0.153,0.847,0.874
						c0.327,2.528,0.653,5.057,0.979,7.585c0.075-0.134,0.142-0.271,0.202-0.41c-1.217,0.936-2.433,1.871-3.65,2.807
						c2.177-0.424,4.13-1.219,6.239-1.884C1007.426,765.03,1007.727,758.82,1003.282,757.658L1003.282,757.658z"/>
				</g>
			</g>
			<g>
				<g>
					<path fill="#FFE2D0" d="M62.823,724.598c-0.971,0.452-1.878,1.098-2.713,1.76c-1.622,1.286-1.732,3.757-1.393,5.604
						c0.61,3.318,3.815,5.101,6.885,5.434c3.578,0.388,6.276-2.378,7.406-5.459c1.214-3.311,0.033-7.577-2.542-9.925
						c-2.756-2.514-7.626-4.191-10.949-1.646c-1.573,1.205-2.405,2.18-3.144,4.131c-0.794,2.096-0.018,4.789,1.508,6.315
						c1.607,1.607,3.713,2,5.898,1.559c1.49-0.301,2.874-1.509,3.623-2.786c0.269-0.459,1.053-1.414-0.419,0.456
						c0.041-0.041,0.081-0.081,0.122-0.122c-0.59,0.607-1.292,1.023-2.108,1.249c0.843-0.302-1.818,0.135-0.888,0.128
						c0.939-0.007-1.744-0.319-0.796-0.091c0.473,0.114,1.246,0.561-0.593-0.285c0.424,0.195,0.803,0.48,1.186,0.743
						c-1.453-0.997-0.823-0.65-0.462-0.285c0.609,0.616-0.822-1.331-0.219-0.194c-0.126-0.293-0.252-0.586-0.378-0.879
						c0.138,0.521,0.111,0.286-0.08-0.705c0.022,0.447-0.151,1.363,0.124-0.453c-0.064,0.424-0.424,1.205,0.293-0.492
						c-0.171,0.405-0.708,0.905,0.439-0.479c-0.481,0.58,1.186-0.813,0.564-0.411c-0.62,0.401,1.375-0.496,0.667-0.286
						c-0.719,0.213,1.505-0.132,0.749-0.104c-1.008,0.036,1.289,0.252,0.574,0.078c-0.405-0.099-0.974-0.47,0.603,0.276
						c-0.412-0.195-0.964-0.784,0.35,0.329c0.288,0.244-2.516-2.05-0.366-0.281c-0.724-0.596,0.603,0.928,0.25,0.367
						c-0.368-0.583,0.417,1.185,0.223,0.505c-0.166-0.58-0.872-2.345-0.197-0.59c-0.266-0.691,0.36-0.563-0.069,1.13
						c-0.229,0.906,0.008,0.028,0.183-0.261c0.736-1.214,0.499-2.841-0.495-3.834C65.581,724.017,64.129,723.99,62.823,724.598
						L62.823,724.598z"/>
				</g>
			</g>
			<g>
				<g>
					<path fill="#FFE2D0" d="M44.419,727.302c4.262,0,4.262-6.609,0-6.609S40.157,727.302,44.419,727.302L44.419,727.302z"/>
				</g>
			</g>
			<g>
				<g>
					<path fill="#FFE2D0" d="M34.086,748.916c1.955,0,3.586-1.631,3.586-3.586s-1.631-3.586-3.586-3.586s-3.586,1.631-3.586,3.586
						S32.131,748.916,34.086,748.916L34.086,748.916z"/>
				</g>
			</g>
			<g>
				<g>
					<path fill="#FFE2D0" d="M83.838,790.766c-7.084,9.375-0.565,23.121,11.836,21.089c11.415-1.87,13.46-16.163,4.603-22.384
						c-3.659-2.57-12.016-3.705-15.807-0.943c-5.687,4.145-5.431,11.504,1.58,14.031c4.49,1.618,12.574-2.154,13.306-7.166
						c0.577-3.95,0.01-6.69-1.7-10.271c-1.435-3.006-1.613-6.941-2.28-10.191c-2.097,2.753-4.194,5.505-6.29,8.258
						c2.855-0.05,2.633,5.327,3.57,7.512c1.247,2.909,5.104,5.345,8.243,5.079c3.327-0.281,5.466-2.058,7.213-4.76
						c0.502-0.777,0.881-1.651,1.315-2.468c0.464-0.695,0.495-0.806,0.09-0.33c-2.844,3.531-6.908-0.368-5.625-3.178
						c-1.16,2.539-3.262,4.463-4.099,7.195c-1.062,3.466-0.239,7.865,2.38,10.484c2.55,2.549,5.719,2.769,9.078,2.24
						c1.376-0.216,2.748-1.024,3.996-1.592c0.546-0.265,1.09-0.534,1.631-0.808c1.597-0.799,0.216,0.083-1.271-0.327
						c8.689,2.396,11.561-9.952,3.624-13.145c2.217,2.027,2.5,2.083,0.85,0.166c-0.665-0.839-1.46-1.433-2.418-1.906
						c-2.672-1.32-6.409-0.879-7.888,2.068c-2.952,5.884,0.24,10.601,5.834,12.816c1.208-4.382,2.416-8.763,3.624-13.145
						c-3.091-0.835-5.634,0.083-8.433,1.334c-0.807,0.36-1.626,0.901-2.396,1.207c-2.615,0.592-1.148,1.601,4.4,3.025
						c0.675,1.913-0.802,2.799,0.664,0.529c4.168-6.451,5.73-14.381-2.646-18.342c-6.999-3.311-11.244,1.883-14.31,7.392
						c1.604-1.959,4.013-2.243,7.226-0.854c0.872,0.791,0.97,0.324,0.294-1.401c-0.391-2.537-1.408-5.138-3.279-6.983
						c-3.178-3.134-7.146-5.021-11.666-4.857c-4.368,0.159-7.242,4.03-6.29,8.258c0.895,3.971,1.336,8.34,3.195,12.009
						c0.523,1.951,1.367,1.657,2.531-0.88c2.131,2.791,2.944,6.205,2.439,10.241c0.909-0.115,2.543-0.062,3.277,0.607
						c-1.025-0.935,0.088-0.315-1.13-0.256c-2.567,0.124-2.956-4.956-2.395-6.456C92.337,789.324,86.185,787.659,83.838,790.766
						L83.838,790.766z"/>
				</g>
			</g>
			<g>
				<g>
					<path fill="#FFE2D0" d="M139.752,723.32c4.716,0,4.716-7.313,0-7.313S135.037,723.32,139.752,723.32L139.752,723.32z"/>
				</g>
			</g>
			<g>
				<g>
					<path fill="#FFE2D0" d="M147.419,703.76c5.713,0,5.713-8.859,0-8.859S141.706,703.76,147.419,703.76L147.419,703.76z"/>
				</g>
			</g>
			<g>
				<g>
					<path fill="#FFE2D0" d="M154.419,704.564c1.763,0,3.234-1.472,3.234-3.234s-1.471-3.234-3.234-3.234s-3.234,1.472-3.234,3.234
						S152.656,704.564,154.419,704.564L154.419,704.564z"/>
				</g>
			</g>
			<g>
				<g>
					<path fill="#FFE2D0" d="M51.419,759.723c3.945,0,3.945-6.117,0-6.117S47.475,759.723,51.419,759.723L51.419,759.723z"/>
				</g>
			</g>
			<g>
				<g>
					<path fill="#FFE2D0" d="M29.086,781.251c5.486,0,5.486-8.508,0-8.508S23.6,781.251,29.086,781.251L29.086,781.251z"/>
				</g>
			</g>
			<g>
				<g>
					<path fill="#FFE2D0" d="M505.592,755.49c-0.046-0.036-0.092-0.074-0.136-0.113c-0.757-0.657-1.68-0.984-2.681-0.709
						c-0.926,0.255-1.67,0.998-1.924,1.925c-0.261,0.948,0.014,1.985,0.708,2.681c0.805,0.805,2.356,1.157,3.339,0.431
						c0.234-0.174,0.465-0.354,0.693-0.534C506.626,758.353,506.607,756.312,505.592,755.49L505.592,755.49z"/>
				</g>
			</g>
			<g>
				<g>
					<path fill="#FFE2D0" d="M497.086,743.407c4.398,0,4.398-6.82,0-6.82S492.688,743.407,497.086,743.407L497.086,743.407z"/>
				</g>
			</g>
			<g>
				<g>
					<path fill="#FFE2D0" d="M509.086,734.021c2.012,0,3.691-1.68,3.691-3.691s-1.679-3.691-3.691-3.691s-3.691,1.68-3.691,3.691
						S507.074,734.021,509.086,734.021L509.086,734.021z"/>
				</g>
			</g>
			<g>
				<g>
					<path fill="#FFE2D0" d="M513.752,748.88c1.572,0,2.883-1.312,2.883-2.883s-1.311-2.883-2.883-2.883s-2.883,1.312-2.883,2.883
						S512.181,748.88,513.752,748.88L513.752,748.88z"/>
				</g>
			</g>
			<g>
				<g>
					<path fill="#F8AD3B" d="M586.277,749.473c0.531,0.47,1.061,0.939,1.591,1.41c0.924,0.819,1.956,1.332,3.218,1.332
						c1.546,0,3.195-0.853,3.93-2.254c0.742-1.414,1.223-2.995,1.176-4.606c-0.036-1.235-0.33-2.135-0.84-3.233
						c-0.097-0.209-0.202-0.392-0.333-0.58c0.15,0.215-1.655-2.432-0.449-0.552c0.225,0.829,0.449,1.659,0.673,2.488
						c-0.002-0.049-0.005-0.099-0.007-0.147c-0.113-2.304-1.489-4.335-3.78-4.965c-2.746-0.756-5.538,0.907-6.334,3.596
						c-0.546,1.844-0.464,4.065,0.279,5.845c0.264,0.94,0.74,1.757,1.428,2.45c1.036,1.036,2.459,1.625,3.925,1.625
						c2.949,0,5.653-2.525,5.551-5.551c-0.029-0.873-0.095-1.778-0.361-2.613c-0.255-0.801-0.674-1.514-1.002-2.278
						c0.186,0.44,0.371,0.88,0.557,1.32c-0.028-0.077-0.057-0.153-0.086-0.229c-0.872-2.333-2.701-4.055-5.325-4.055
						c-2.812,0-5.786,2.519-5.522,5.522c0.103,1.178,0.186,2.02,0.791,3.054c0.808,1.379,1.944,1.986,3.368,2.563
						c1.789,0.725,3.9-0.202,5.22-1.38c1.167-1.041,1.765-2.7,1.666-4.237c-3.616,0.489-7.232,0.979-10.848,1.468
						c0.282,0.812,0.656,1.584,1.003,2.368c-0.186-0.441-0.372-0.882-0.558-1.322c0.063,0.168,0.108,0.33,0.145,0.507
						c-0.066-0.491-0.132-0.982-0.198-1.474c0.034,0.264,0.045,0.52,0.048,0.786c3.635-0.492,7.27-0.983,10.904-1.476
						c-0.376-0.96-0.889-1.81-1.284-2.743c0.181,0.429,0.362,0.857,0.543,1.287c-0.107-0.303-0.156-0.611-0.201-0.929
						c0.063,0.467,0.125,0.933,0.188,1.399c-0.085-0.64-0.115-1.288-0.3-1.908c-1.199,2.111-2.398,4.223-3.596,6.334
						c0.056-0.021,0.112-0.043,0.168-0.064c-0.874,0-1.747,0-2.621,0c0.076,0.024,0.152,0.048,0.229,0.071
						c-0.712-0.415-1.424-0.83-2.136-1.245c0.324,0.255,0.773,0.841-0.094-0.308c0.247,0.418,0.186,0.232-0.184-0.558
						c0.049,0.136,0.087,0.274,0.114,0.416c-0.094-0.889-0.13-1.084-0.11-0.586c-0.026,0.486,0.009,0.308,0.104-0.536
						c-0.046,0.329-0.147,0.647-0.227,0.969c1.866-1.06,3.732-2.119,5.599-3.179c-0.718-0.147-1.436-0.295-2.154-0.442
						c-1.763-0.361-3.542,0.213-4.486,1.826C584.795,746.129,584.952,748.301,586.277,749.473L586.277,749.473z"/>
				</g>
			</g>
			<g>
				<g>
					<path fill="#F8AD3B" d="M656.752,784.497c-0.823,0.08-1.728,0.096-2.502,0.421c-1.007,0.422-1.844,0.677-2.581,1.556
						c-0.819,0.977-1.182,1.488-1.562,2.736c-0.356,1.17-0.273,2.596,0.102,3.746c0.314,0.963,0.782,1.576,1.162,2.442
						c-0.203-0.482-0.407-0.965-0.61-1.446c0.044,0.108,0.083,0.219,0.114,0.332c0.817,2.601,3.092,4.474,5.876,4.474
						c2.634,0,5.257-1.849,5.876-4.474c0.002-0.013,0.006-0.025,0.012-0.036c-0.205,0.485-0.409,0.971-0.614,1.456
						c0.965-1.897,1.833-3.62,1.922-5.807c0.107-2.62-1.428-4.954-3.567-6.321c-1.785-1.141-3.94-1.162-5.961-0.994
						c-1.098,0.004-2.121,0.28-3.07,0.831c-1.388,0.813-2.332,2.107-2.795,3.634c-0.922,3.047-0.265,6.02,1.813,8.397
						c0.763,0.874,2.419,1.833,3.561,1.986c1.447,0.195,2.305,0.326,3.758-0.073c1.408-0.388,2.028-0.931,3.146-1.809
						c0.772-0.777,1.307-1.694,1.603-2.75c0.442-1.608,0.215-3.362-0.628-4.802c-0.554-0.937-1.299-1.682-2.236-2.235
						c-1.559-0.913-3.081-0.913-4.801-0.628c-0.145,0.023-0.284,0.061-0.429,0.087c0.558-0.075,1.115-0.15,1.673-0.225
						c-0.22,0.021-0.438,0.014-0.658-0.008c0.559,0.075,1.118,0.15,1.677,0.226c-0.127-0.025-0.239-0.059-0.359-0.108
						c0.5,0.211,1,0.422,1.5,0.634c-0.077-0.037-0.148-0.081-0.215-0.133c0.422,0.326,0.845,0.653,1.268,0.979
						c-0.105-0.09-0.19-0.18-0.275-0.29c0.325,0.421,0.65,0.842,0.975,1.262c-0.056-0.08-0.104-0.165-0.145-0.255
						c0.209,0.495,0.417,0.99,0.626,1.484c-0.087-0.217-0.14-0.427-0.174-0.658c0.073,0.546,0.146,1.092,0.22,1.639
						c-0.023-0.291-0.016-0.569,0.013-0.859c-0.073,0.541-0.146,1.081-0.218,1.621c0.012-0.082,0.025-0.166,0.038-0.248
						c-1.416,1.415-2.832,2.831-4.248,4.247c0.155-0.038,0.312-0.072,0.469-0.104c-0.536,0.071-1.072,0.144-1.607,0.216
						c0.501-0.053,0.996-0.078,1.498-0.029c-0.537-0.072-1.074-0.145-1.611-0.217c0.255,0.035,0.497,0.089,0.735,0.188
						c-0.483-0.204-0.967-0.408-1.45-0.612c0.091,0.044,0.175,0.091,0.26,0.147c-0.41-0.316-0.82-0.633-1.229-0.949
						c0.094,0.073,0.173,0.15,0.247,0.244c-0.317-0.41-0.634-0.82-0.95-1.229c0.046,0.069,0.084,0.137,0.118,0.213
						c-0.204-0.484-0.408-0.968-0.613-1.452c0.039,0.104,0.063,0.206,0.08,0.316c-0.072-0.539-0.145-1.079-0.217-1.618
						c0.013,0.146,0.01,0.287-0.006,0.433c0.073-0.54,0.146-1.079,0.218-1.619c-0.046,0.316-0.142,0.615-0.262,0.911
						c0.205-0.485,0.41-0.971,0.615-1.457c-0.682,1.608-1.631,2.894-1.671,4.755c3.786-1.025,7.571-2.051,11.356-3.076
						c-0.888-1.569-1.983-2.438-3.388-3.492c0.391,0.302,0.781,0.604,1.172,0.905c-0.076-0.065-0.141-0.13-0.203-0.21
						c0.296,0.384,0.592,0.768,0.889,1.151c-0.017-0.027-0.032-0.055-0.049-0.082c0.19,0.45,0.38,0.899,0.569,1.35
						c-0.03-0.061-0.052-0.124-0.064-0.19c0.066,0.495,0.133,0.989,0.199,1.483c-0.038-0.313-0.043-0.631-0.005-0.945
						c-0.059,0.441-0.119,0.883-0.178,1.325c0.038-0.232,0.084-0.46,0.136-0.689c0.271-1.199,0.178-2.389-0.454-3.468
						C659.896,785.459,658.287,784.348,656.752,784.497L656.752,784.497z"/>
				</g>
			</g>
			<g>
				<g>
					<path fill="#F8AD3B" d="M94.655,790.463c-0.995,2.141-1.368,4.531-0.466,6.793c1.146,2.873,3.125,4.789,6.023,5.872
						c6.292,2.353,12.248-5.054,8.87-10.746c-2.38-4.011-7.86-4.312-11.595-2.213c-2.69,1.511-4.036,4.614-3.331,7.605
						c0.312,1.32,1.092,2.442,2.004,3.415c1.46,1.559,3.19,2.118,5.259,2.323c2.443,0.241,4.67-1.868,5.318-4.05
						c0.394-1.326,0.306-2.327,0.089-3.664c-0.277-1.709-2.003-3.149-3.584-3.584c-2.426-0.668-4.379,0.496-5.796,2.358
						c0.397-0.446,0.793-0.893,1.19-1.339c2.228,0.288,4.456,0.575,6.684,0.863c-0.525-0.671-1.216-1.129-1.922-1.594
						c0.848,0.693,1.073,0.86,0.676,0.504c-0.62-0.568,0.884,1.314,0.507,0.649c0.435,0.733,0.652,1.527,0.65,2.382
						c0.063,0.846-0.229,1.592-0.617,2.311c-0.79,0.954-1.007,1.239-0.652,0.854c0.502-0.538-1.354,0.953-0.708,0.551
						c0.491-0.306-1.711,0.576-0.497,0.238c1.091-0.304-1.68,0.124-0.546,0.063c1.285-0.068-1.158-0.238-0.574-0.121
						c0.466,0.095,1.122,0.509-0.808-0.379c0.677,0.312-1.25-1.073-0.712-0.574c-0.702-0.999-0.92-1.275-0.654-0.827
						c-0.157-0.365-0.313-0.729-0.47-1.095c-0.118-1.266-0.168-1.619-0.15-1.06c0.208-1.231,0.245-1.543,0.114-0.937
						c0.14-0.316,0.281-0.633,0.421-0.948c-0.273,0.478-0.084,0.251,0.564-0.682c0.76-0.878,1.587-1.084,2.717-1.146
						c-0.188,0.01-0.384-0.013-0.572-0.025c1.777,0.115,1.212,0.187,0.674,0.027c-0.51-0.184-0.279-0.082,0.695,0.305
						c-0.21-0.097-0.407-0.22-0.602-0.343c-0.386-0.242-1.483-1.134-0.093,0.016c-0.119-0.103-0.232-0.211-0.339-0.325
						c-0.635-0.641,0.694,1.023,0.209,0.25c-0.472-0.753,0.376,1.12,0.108,0.255c-0.265-0.852,0.057,1.146,0.04,0.217
						c-0.034-1.943-1.305-3.683-3.2-4.204C97.829,787.979,95.468,788.714,94.655,790.463L94.655,790.463z"/>
				</g>
			</g>
		</g>
	</g>
</g>
<g id="All">
</g>
</svg>
