<?xml version="1.0" encoding="utf-8"?>
<!-- Generator: Adobe Illustrator 16.0.0, SVG Export Plug-In . SVG Version: 6.00 Build 0)  -->
<!DOCTYPE svg PUBLIC "-//W3C//DTD SVG 1.1//EN" "http://www.w3.org/Graphics/SVG/1.1/DTD/svg11.dtd">
<svg version="1.1" xmlns="http://www.w3.org/2000/svg" xmlns:xlink="http://www.w3.org/1999/xlink" x="0px" y="0px" width="1440px"
	 height="900px" viewBox="0 0 1440 900" enable-background="new 0 0 1440 900" xml:space="preserve">
<g id="Imgs" display="none">
</g>
<g id="Sky">
	<g>
		<rect fill="#00C1F7" width="1440" height="2276"/>
		<g opacity="0.03">
			<image overflow="visible" width="1513" height="2349" xlink:href="65DFC766.png"  transform="matrix(1 0 0 1 -36 -36)">
			</image>
		</g>
	</g>
</g>
<g id="Clouds">
	<g>
		<defs>
			<path id="SVGID_1_" d="M0.384,120.916c0,0,60.971-27.71,92.296-32.53c31.325-4.819,290.361-38.554,320.482-48.193
				c30.121-9.638,169.879-30.12,169.879-30.12S226.415,85.976,193.885,92S40.874,119.711,25.21,132.964
				C9.547,146.217,0.067,146.217,0.067,146.217L0.384,120.916z"/>
		</defs>
		<defs>
			<path id="SVGID_2_" d="M24.005,159.47c0,0,51.807-13.253,59.036-13.253s44.578-2.41,67.47-15.662
				c22.892-13.253,255.422-60.242,287.952-57.832c32.53,2.409-34.94,15.663-34.94,15.663S117.981,135.373,90.271,159.47
				C62.56,183.566,24.005,159.47,24.005,159.47z"/>
		</defs>
		<defs>
			<path id="SVGID_3_" d="M112,157.06c3.615,1.205,281.563-59.036,335.349-69.879c53.786-10.843,273.053-21.687,317.631-28.916
				s149.392-18.072,174.692-33.734C964.976,8.868,995.09,0,995.09,0s122.978-0.001,122.978,0c0,0-241.049,78.568-289.242,72.633
				c-48.193-5.935-336.145,36.234-362.651,37.439c-26.506,1.205-281.927,43.409-297.59,47.005
				C152.921,160.675,112,157.06,112,157.06z"/>
		</defs>
		<defs>
			<path id="SVGID_4_" d="M670.922,234.169c-3.209,2.054,194.011-84.337,240.999-87.952c46.988-3.614,130.139-37.349,159.055-46.988
				c28.916-9.638,112.058-16.868,155.431-44.578s75.909-34.506,101.21-44.578C1352.917,0,1375.813,0,1375.813,0h49.255
				c0,0-49.255,35.373-75.761,38.988c-26.506,3.614-307.229,91.566-351.808,107.229C952.921,161.879,860.149,175.132,825.21,192
				S684.104,225.735,670.922,234.169z"/>
		</defs>
		<defs>
			<path id="SVGID_5_" d="M742.237,229.115c0,0,91.485-16.75,125.221-32.413s109.6-28.856,160.202-44.52
				s96.365-20.453,144.558-42.14c48.192-21.686,49.387-24.26,107.219-37.423s98.917-25.205,120.605-37.253
				C1421.727,23.318,1440,10.073,1440,10.073V59c0,0-310.003,101.407-361.81,111.179s-307.212,62.858-320.465,64.026
				C744.472,235.373,742.237,229.115,742.237,229.115z"/>
		</defs>
		<defs>
			<path id="SVGID_6_" d="M73.404,384.772c3.614-2.409,49.397-30.12,102.41-40.963c53.012-10.844,92.771-8.435,133.735-19.278
				c40.964-10.843,66.265-9.638,110.843-18.073c44.579-8.433,81.928-12.048,67.47-6.023c-14.458,6.023,12.048,6.023-60.241,21.687
				c-72.289,15.663-103.614,26.506-156.626,33.736c-53.012,7.228-57.832-1.206-102.41,18.072
				c-44.578,19.276-45.783,24.096-62.65,25.301C89.067,400.436,73.404,384.772,73.404,384.772z"/>
		</defs>
		<defs>
			<path id="SVGID_7_" d="M342.079,360.676c15.663-4.818,37.349-19.278,83.132-25.302c45.783-6.023,56.626-7.228,89.157-20.481
				c32.53-13.252,53.013-25.301,75.904-31.325c22.891-6.024,43.374-12.048,40.964,0c-2.41,12.047-1.205,20.754-33.735,35.076
				c-32.53,14.32,7.229,11.911-68.675,21.55c-75.904,9.638-90.361,6.024-120.482,14.458s-39.759,8.434-55.422,13.253
				C337.26,372.725,342.079,360.676,342.079,360.676z"/>
		</defs>
		<use xlink:href="#SVGID_1_"  overflow="visible" fill="#00C7F4"/>
		<use xlink:href="#SVGID_2_"  overflow="visible" fill="#00C7F4"/>
		<use xlink:href="#SVGID_3_"  overflow="visible" fill="#00C7F4"/>
		<use xlink:href="#SVGID_4_"  overflow="visible" fill="#00C7F4"/>
		<use xlink:href="#SVGID_5_"  overflow="visible" fill="#00C7F4"/>
		<use xlink:href="#SVGID_6_"  overflow="visible" fill="#00C7F4"/>
		<use xlink:href="#SVGID_7_"  overflow="visible" fill="#00C7F4"/>
		<clipPath id="SVGID_8_">
			<use xlink:href="#SVGID_1_"  overflow="visible"/>
		</clipPath>
		<clipPath id="SVGID_9_" clip-path="url(#SVGID_8_)">
			<use xlink:href="#SVGID_2_"  overflow="visible"/>
		</clipPath>
		<clipPath id="SVGID_10_" clip-path="url(#SVGID_9_)">
			<use xlink:href="#SVGID_3_"  overflow="visible"/>
		</clipPath>
		<clipPath id="SVGID_11_" clip-path="url(#SVGID_10_)">
			<use xlink:href="#SVGID_4_"  overflow="visible"/>
		</clipPath>
		<clipPath id="SVGID_12_" clip-path="url(#SVGID_11_)">
			<use xlink:href="#SVGID_5_"  overflow="visible"/>
		</clipPath>
		<clipPath id="SVGID_13_" clip-path="url(#SVGID_12_)">
			<use xlink:href="#SVGID_6_"  overflow="visible"/>
		</clipPath>
		<clipPath id="SVGID_14_" clip-path="url(#SVGID_13_)">
			<use xlink:href="#SVGID_7_"  overflow="visible"/>
		</clipPath>
		<g opacity="0.32" clip-path="url(#SVGID_14_)">
			<image overflow="visible" width="1513" height="972" xlink:href="65DFC76A.png"  transform="matrix(1 0 0 1 -36 -36)">
			</image>
		</g>
	</g>
</g>
<g id="Buldings">
</g>
<g id="Mountains">
</g>
<g id="City">
</g>
<g id="Bushes">
</g>
<g id="Aspas_2_">
</g>
<g id="Rock">
</g>
<g id="Ground">
</g>
<g id="All">
</g>
</svg>
