<?xml version="1.0" encoding="utf-8"?>
<!-- Generator: Adobe Illustrator 16.0.0, SVG Export Plug-In . SVG Version: 6.00 Build 0)  -->
<!DOCTYPE svg PUBLIC "-//W3C//DTD SVG 1.1//EN" "http://www.w3.org/Graphics/SVG/1.1/DTD/svg11.dtd">
<svg version="1.1" xmlns="http://www.w3.org/2000/svg" xmlns:xlink="http://www.w3.org/1999/xlink" x="0px" y="0px"
	 width="168.332px" height="168.333px" viewBox="0 0 168.332 168.333" enable-background="new 0 0 168.332 168.333"
	 xml:space="preserve">
<g id="Imgs">
</g>
<g id="Sky">
</g>
<g id="Clouds">
</g>
<g id="Leaves">
</g>
<g id="Buildings">
</g>
<g id="Mountains">
</g>
<g id="City">
</g>
<g id="Aspas_2_">
	<g>
		<path fill="#FFFFFF" d="M79.49,83.148c0.127,0.383,4.334,3.57,4.334,4.08s-0.594,22.822-0.594,22.822l-33.447,39.651
			c0,0-8.416-1.53-7.268-4.08C43.662,143.072,79.49,83.148,79.49,83.148z"/>
		<path fill="#FFFFFF" d="M43.791,16.213c0,0,2.04-3.314,3.568-2.55c1.531,0.766,41.182,53.421,41.182,53.421l-0.893,18.232
			l-9.18,0.765L43.791,16.213z"/>
		<path fill="#FFFFFF" d="M83.23,81.874l81.172-2.677c0,0,0.382,5.737,0,6.12c-0.383,0.382-62.855,11.729-62.984,11.347
			c-0.127-0.382-18.188-10.582-18.188-10.582"/>
		<circle fill="#4D8E99" cx="83.231" cy="83.276" r="6.121"/>
	</g>
</g>
<g id="Rock">
</g>
<g id="Ground">
</g>
<g id="Floating_forms">
</g>
<g id="Logo">
</g>
<g id="All">
</g>
</svg>
