<?xml version="1.0" encoding="utf-8"?>
<!-- Generator: Adobe Illustrator 16.0.0, SVG Export Plug-In . SVG Version: 6.00 Build 0)  -->
<!DOCTYPE svg PUBLIC "-//W3C//DTD SVG 1.1//EN" "http://www.w3.org/Graphics/SVG/1.1/DTD/svg11.dtd">
<svg version="1.1" xmlns="http://www.w3.org/2000/svg" xmlns:xlink="http://www.w3.org/1999/xlink" x="0px" y="0px"
	 width="153.331px" height="159px" viewBox="0 0 153.331 159" enable-background="new 0 0 153.331 159" xml:space="preserve">
<g id="Imgs">
</g>
<g id="Sky">
</g>
<g id="Clouds">
</g>
<g id="Leaves">
</g>
<g id="Buildings">
</g>
<g id="Mountains">
</g>
<g id="City">
</g>
<g id="Aspas_2_">
	<g>
		<path fill="#FFFFFF" d="M4.287,87.218c0,0-0.277-3.183,0-3.321c0.277-0.139,56.732-9.687,56.732-9.687l14.393,9.087l-2.076,6.273
			L4.287,87.218z"/>
		<path fill="#FFFFFF" d="M104.056,21.214l3.597,3.044L88.834,77.025c0,0-8.856,6.643-9.271,6.273
			c-0.416-0.37-10.516-1.407-10.516-1.407L104.056,21.214z"/>
		<path fill="#FFFFFF" d="M103.502,141.875l5.258-3.459L90.355,92.753l-11.762-7.058c0,0-6.389,0.772-6.793,1.632
			C71.398,88.187,103.502,141.875,103.502,141.875z"/>
		<circle fill="#4D8E99" cx="76.61" cy="81.084" r="6.272"/>
	</g>
</g>
<g id="Rock">
</g>
<g id="Ground">
</g>
<g id="Floating_forms">
</g>
<g id="Logo">
</g>
<g id="All">
</g>
</svg>
