<?xml version="1.0" encoding="utf-8"?>
<!-- Generator: Adobe Illustrator 16.0.0, SVG Export Plug-In . SVG Version: 6.00 Build 0)  -->
<!DOCTYPE svg PUBLIC "-//W3C//DTD SVG 1.1//EN" "http://www.w3.org/Graphics/SVG/1.1/DTD/svg11.dtd">
<svg version="1.1" xmlns="http://www.w3.org/2000/svg" xmlns:xlink="http://www.w3.org/1999/xlink" x="0px" y="0px"
	 width="173.666px" height="179.333px" viewBox="0 0 173.666 179.333" enable-background="new 0 0 173.666 179.333"
	 xml:space="preserve">
<g id="Imgs">
</g>
<g id="Sky">
</g>
<g id="Clouds">
</g>
<g id="Leaves">
</g>
<g id="Buildings">
</g>
<g id="Mountains">
</g>
<g id="City">
</g>
<g id="Aspas_2_">
	<g>
		<path fill="#FFFFFF" d="M81.219,88.518c0.132,0.396,4.49,3.697,4.49,4.225c0,0.528-0.615,23.636-0.615,23.636l-34.641,41.064
			c0,0-8.715-1.584-7.526-4.225C44.113,150.577,81.219,88.518,81.219,88.518z"/>
		<path fill="#FFFFFF" d="M44.246,19.196c0,0,2.113-3.433,3.697-2.641c1.586,0.792,42.65,55.325,42.65,55.325L89.67,90.763
			l-9.508,0.792L44.246,19.196z"/>
		<path fill="#FFFFFF" d="M85.094,87.197l84.064-2.773c0,0,0.396,5.942,0,6.338c-0.395,0.396-65.096,12.147-65.229,11.751
			c-0.132-0.396-18.836-10.959-18.836-10.959"/>
		<circle fill="#4D8E99" cx="85.093" cy="88.649" r="6.338"/>
	</g>
</g>
<g id="Rock">
</g>
<g id="Ground">
</g>
<g id="Floating_forms">
</g>
<g id="Logo">
</g>
<g id="All">
</g>
</svg>
