<?xml version="1.0" encoding="utf-8"?>
<!-- Generator: Adobe Illustrator 16.0.0, SVG Export Plug-In . SVG Version: 6.00 Build 0)  -->
<!DOCTYPE svg PUBLIC "-//W3C//DTD SVG 1.1//EN" "http://www.w3.org/Graphics/SVG/1.1/DTD/svg11.dtd">
<svg version="1.1" xmlns="http://www.w3.org/2000/svg" xmlns:xlink="http://www.w3.org/1999/xlink" x="0px" y="0px" width="1920px"
	 height="2160px" viewBox="0 0 1920 2160" enable-background="new 0 0 1920 2160" xml:space="preserve">
<g id="Imgs">
</g>
<g id="Sky">
</g>
<g id="Clouds">
</g>
<g id="Buildings">
</g>
<g id="Mountains">
</g>
<g id="City">
	<g>
		<defs>
			<rect id="SVGID_21_" y="23" width="1919" height="2137"/>
		</defs>
		<clipPath id="SVGID_2_">
			<use xlink:href="#SVGID_21_"  overflow="visible"/>
		</clipPath>
		<path clip-path="url(#SVGID_2_)" fill="#326E81" d="M-3,544.024c0,0,122.993,16.544,194.182,62.635
			c71.188,46.091,100.649,72.089,100.649,72.089s-153.763,30.727-167.722,35.454C110.15,718.929-3,724.838-3,724.838V544.024z"/>
		<path clip-path="url(#SVGID_2_)" fill="#002440" d="M-2.957,599.969c0.362-2.365,36.611-16.701,75.695-0.156
			c39.083,16.546,85.192,24.742,101.943,34.196c16.748,9.454,26.543,14.143,26.543,14.143s13.969,8.048,27.926,11.06
			c13.961,3.012,37.695,5.457,37.695,5.457s-12.561,18.029-16.748,18.029C245.912,682.697,18.391,709,18.391,709H-2.775
			L-2.957,599.969z"/>
		<rect x="1193" y="609" clip-path="url(#SVGID_2_)" fill="#8B859A" width="10" height="7"/>
		<g clip-path="url(#SVGID_2_)">
			<g>
				<polygon fill="#FFFFFF" points="982,663.991 982,554.383 984.627,535.102 986.947,533.579 989.439,668.052 				"/>
				<polygon fill="#8B859A" points="982,663.991 982,554.383 982.769,535.102 983.505,533.579 984.49,668.052 				"/>
				<polygon fill="#FFFFFF" points="1182,691.395 1193.232,691.894 1187.06,434.119 1183.279,440.715 1182,451.88 				"/>
				<polygon fill="#8B859A" points="1182,691.395 1185.236,691.894 1183.255,434.119 1182.244,440.715 1182,451.88 				"/>
				<path fill="#FFFFFF" d="M1377.159,631.463c0,0.053-5.712-138.782-5.712-138.782l5.712,6.392l8.818,137.517L1377.159,631.463z"/>
				<path fill="#8B859A" d="M1375.367,631.463c0,0.053-3.92-138.782-3.92-138.782l3.92,6.392l6.059,137.517L1375.367,631.463z"/>
				<path fill="#FFFFFF" d="M1564.118,438c0,0-8.118-3-8.118,0v162.054l10.723,4.479L1564.118,438z"/>
				<path fill="#FFFFFF" d="M1566.723,604.532L1564.118,438c0,0-8.118-3-8.118,0v162.054L1566.723,604.532z"/>
				<path fill="#8B859A" d="M1560.8,604.532L1559.677,438c0,0-3.677-3-3.677,0v162.054L1560.8,604.532z"/>
			</g>
			<polygon fill="#8B859A" points="1361,614.165 1371,609.493 1371,624.175 1361,618.836 			"/>
		</g>
		<path clip-path="url(#SVGID_2_)" fill="#DAB539" d="M1919,490.996c-1.002-1.304-100.65,1.305-122.014,74.34
			c-21.363,73.036-14.203-5.217-19.898,0c-5.697,5.217-60.703-6.543-76.463,11.095c-15.762,17.639-27.473,7.211-51.684,0.667
			c-24.211-6.546-28.479-44.546-46.992-33.372c-18.516,11.176-14.239,9.871-18.514,25.521
			c-4.272,15.652-49.422,10.965-76.902,27.419c-27.481,16.455-8.171,7.472-34.18,19.534c-26.012,12.062-145.59,26.83-168.137,13.876
			c-22.547-12.953-12.73-37.106-32.67-41.794c-19.938-4.688-34.183-12.514-42.727-12.514c-8.545,0,7.121-22.172-8.545,0
			c-15.666,22.173-17.232,22.699-18.585,34.174s2.776,10.171,0,17.995c-2.776,7.825,7.915-7.217-30.187-12.086
			c-38.104-4.868-6.771-16.605-38.104-4.868c-31.33,11.737-21.703-7.825-38.453,14.346c-16.746,22.17-11.393,7.825-24.209,24.78
			c-12.818,16.953-85.467,33.652-90.459,19.515c-4.994-14.139-3.537-27.34-17.777-35.165c-14.242-7.825-24.212-10.437-31.334-11.738
			c-7.119-1.304-9.021-6.521-20.176-1.304s-22.586,14.056-25.396,20.867c-2.809,6.81-7.383,3.903-9.969,14.299
			c-2.586,10.396-7.121,22.124-7.121,22.124l679.328-31.208c0,0,261.969-23.476,269.091-23.476
			c7.12,0,102.075,10.436,102.075,10.436V490.996z"/>
		<path clip-path="url(#SVGID_2_)" fill="#AC972C" d="M1919,505.427c-1.002-1.204-100.65,1.203-122.014,68.625
			c-21.363,67.421-14.203-4.816-19.898,0c-5.697,4.815-60.703-6.041-76.463,10.242c-15.762,16.283-27.473,6.657-51.684,0.615
			s-28.479-41.121-46.992-30.805c-18.516,10.315-14.239,9.11-18.514,23.559c-4.272,14.448-49.422,10.122-76.902,25.312
			c-27.481,15.189-8.171,6.896-34.18,18.032c-26.012,11.135-145.59,24.768-168.137,12.81s-12.73-34.254-32.67-38.582
			c-19.938-4.327-34.183-11.552-42.727-11.552c-8.545,0,7.121-20.468-8.545,0s-17.232,20.954-18.585,31.547
			c-1.353,10.592,2.776,9.39,0,16.612s7.915-6.662-30.187-11.156c-38.104-4.495-6.771-15.33-38.104-4.495
			c-31.33,10.836-21.703-7.224-38.453,13.243c-16.746,20.467-11.393,7.224-24.209,22.876c-12.818,15.65-85.467,31.065-90.459,18.013
			c-4.994-13.052-3.537-25.238-17.777-32.461c-14.242-7.224-24.212-9.633-31.334-10.835c-7.119-1.205-9.021-6.02-20.176-1.205
			c-11.154,4.816-22.586,12.977-25.396,19.263c-2.809,6.287-7.383,3.604-9.969,13.201s-7.121,20.423-7.121,20.423l679.328-28.808
			c0,0,261.969-21.671,269.091-21.671c7.12,0,102.075,9.632,102.075,9.632V505.427z"/>
		<path clip-path="url(#SVGID_2_)" fill="#002440" d="M1919.156,565.533c-0.371-1.204-52.245-8.383-79.305,7.269
			c-27.059,15.651-31.361,22.41-31.361,22.41l-28.5-5.521c0,0-57.287-5.382-75.488,5.537l-5.701-16.157l-17.917,27.687
			c0,0-3.855-25.354-11.993-11.523c-8.139,13.828-11.395,11.526-11.395,11.526l-8.547-21.852c0,0-10.658,17.016-11.393,21.994
			s-31.332-35.259-31.332-35.259l-7.121,13.478c0,0-34.18-9.639-55.542,10.112c0,0-23.429,3.549-25.635,17.344
			c0,0-22.694-2.521-45.573,8.428c0,0-41.474-14.754-69.783,0c0,0-32.545,3.254-44.15,9.631c0,0-30.323-7.138-42.934,7.869
			c0,0-12.607-10.276-22.577-0.646c0,0-19.94-35.774-44.15-37.15s-21.363,25.11-24.21,31.131c0,0-15.666-27.691-48.422-13.244
			s-29.908,19.909-29.908,19.909l-21.361,7.783c-2.85-10.836-9.973-13.245-12.818,0c0,0-8.545-36.12-9.969-19.263
			c-1.425,16.854-7.912,28.363-7.912,28.363l-15.957-5.489c0,0-7.518-41.768-38.85-40.749c-31.33,1.02-56.352,20.492-54.352,58.913
			v10.462c0,0,911.234-67.794,933.48-57.841L1919.156,565.533z"/>
		<path clip-path="url(#SVGID_2_)" fill="#002440" d="M751.828,666.535c-3.647,0.159,26.828-14.53,47.593-13.31
			c0,0,13.437-13.415,29.313-13.415c15.879,0,32.672,5.092,49.926,30.594c0,0-26.125,16.836-57.254,8.43
			C790.276,670.428,759.409,666.201,751.828,666.535z"/>
		<path clip-path="url(#SVGID_2_)" fill="#DAB539" d="M-2.564,688.24c0,0,89.466-14.118,112.252-15.285
			c22.785-1.167,14.7-9.392,52.134-5.893s208.351,10.772,268.57,10.038s84.647,6.554,117.196-0.015
			c32.552-6.567,118.82-21.742,164.391-15.908c45.57,5.833,89.517,6.995,128.578,3.496c39.063-3.5,136.715-15.168,265.291-23.335
			c128.578-8.168,234.371-9.335,317.373-15.168c83.006-5.835,330.395-37.334,408.516-32.667s87.294,6.07,87.294,6.07L1918.605,900
			H-2.775L-2.564,688.24z"/>
		<path clip-path="url(#SVGID_2_)" fill="#716730" d="M-2.775,687.115c0,0,74.207-12.999,128.645-14.181
			c54.438-1.182,401.359,8.611,446.025,5.066c44.665-3.545-218.117,9.597-275.932,35.596c0,0,153.74-15.844,215.158-11.117
			s242.878,2.363,242.878,2.363s-235.897,27.182-343.378,27.182c-107.479,0-240.084-3.546-314.064,15.363
			c-73.98,18.909-98.971,16.545-98.971,16.545L-2.775,687.115z"/>
		<path clip-path="url(#SVGID_2_)" fill="#716730" d="M673.615,750.859c-6.064,0.721,134.355-23.171,167.334-24.391
			s76.951-6.098,123.364,0s167.335-12.194,205.198-10.976c37.865,1.22,90.387-2.556,140.464-0.059s61.071-0.874,61.071-0.874
			s-59.852,26.542-105.043,26.542s-133.135,10.977-212.527,9.757s-230.849,6.097-251.612,8.536c0,0-10.992-2.439,1.222-7.317
			C815.299,747.2,724.914,744.763,673.615,750.859z"/>
		<path clip-path="url(#SVGID_2_)" fill="#716730" d="M1153.633,767.932c0,0,41.529-14.633,52.521-17.072
			s243.063,8.536,238.178,8.536c-4.887,0-188.1,18.292-197.871,14.634c-9.771-3.658-3.664-11.52-3.664-11.52
			S1187.834,775.248,1153.633,767.932z"/>
		<path clip-path="url(#SVGID_2_)" fill="#716730" d="M1258.675,780.127c0,0,73.286-8.534,107.485-7.316
			c34.2,1.219,84.278-4.879,101.379-13.415c17.1-8.536,20.764-13.415,20.764-13.415l12.215,25.61c0,0-51.301,15.854-101.378,15.854
			C1349.062,787.444,1280.662,780.127,1258.675,780.127z"/>
		<path clip-path="url(#SVGID_2_)" fill="#716730" d="M1616,824.473c5,0,88.396-14.449,129.696-15.652
			c41.299-1.202,44.198-14.446,49.896-12.038c5.695,2.407,7.047,13.699,7.047,13.699L1616,835.31V824.473z"/>
		<path clip-path="url(#SVGID_2_)" fill="#AC972C" d="M695.689,699.491c177.561-27.383,281.083-17.952,379.008-19.155
			c97.926-1.203,397.002-3.612,439.727,0s291.955,8.223,333.256-1.908c41.3-10.131,67.476-17.354,67.476-18.559
			c0-1.205,16.208,23.012,0,24.75c-16.206,1.737-127.292,16.185-219.862,19.795c-92.571,3.612-457.158,7.225-563.971,19.264
			c-106.813,12.039-248.82,1.415-323.285,0c-76.9-1.462-137.031-2.927-207.929,5.094c-72.032,8.148-78.578,7.942-65.599,3.617
			c26.557-8.85,63.734-17.613,100.763-23.633C672.299,702.736,695.689,699.491,695.689,699.491z"/>
		<path clip-path="url(#SVGID_2_)" fill="#AC972C" d="M1376.934,639.064c0,0,178.021-13.243,203.656-13.243s71.209-3.611,121.055,0
			c49.846,3.612,149.539,6.823,153.811,5.82c4.271-1.004,70.406-7.425,70.406-7.425s-201.43,23.276-259.821,23.276
			C1607.65,647.493,1418.236,642.677,1376.934,639.064z"/>
		<path clip-path="url(#SVGID_2_)" fill="#004E47" d="M73.627,738.763c0,0,91.28-3.763,116.176-3.763c24.895,0,85.558,0,85.558,0
			s-3.147-10.289-27.757-9.319c0,0-4.578-8.9-15.736-10.595c-11.16-1.696-18.029-1.059-24.609,2.575c0,0-7.44-10.219-19.744-11.673
			c-12.305-1.453-19.172-2.445-30.905,4.823c0,0-19.744-25.449-43.494-23.026c0,0-28.9,1.69-41.205,22.767
			c0,0-20.89-33.919-58.374-35.617c0,0-11.008,2.18-15.949,14.051c-4.939,11.872,0,51.779,0,51.779L73.627,738.763z"/>
		<path clip-path="url(#SVGID_2_)" fill="#004E47" d="M605.447,736.75c0,0,7.762-12,25.539-9c0,0,25.791-21.25,50.078-12.5
			c0,0,4.758-2.75,8.514-0.25c0,0-2.754-11.5,3.756-13.25c0,0,2.002-31.25,15.273-30.25c0,0,10.518,4.227,12.52,32.613
			c0,0,5.51-5.636,14.273,0c0,0,6.009,2.887,7.762,8.887c0,0,8.263-0.5,13.02,3.75c4.758,4.25,5.51,6.5,5.51,6.5
			s8.262-2.5,14.521-1.25s19.03,5,19.03,5l-21.784,3.75C773.459,730.75,619.719,737.75,605.447,736.75z"/>
		<path clip-path="url(#SVGID_2_)" fill="#00493B" d="M995.34,701.711c0,0,2.325,1.102,4.578,3.269c0,0,4.143-3.637,8.713,0.01
			c0,0,1.709-7.328,8.635-3.911c0,0,6.734-24.328,16.734-23.078v46l-39.703-0.667L995.34,701.711z"/>
		<path clip-path="url(#SVGID_2_)" fill="#003831" d="M883.881,712.875c0,0,7.012-10.613,13.271-8.775c0,0,2.542-2.232,5.547-0.182
			c0,0,3.301-8.168,7.301-7.168V710l-13.06,6.5L883.881,712.875z"/>
		<g clip-path="url(#SVGID_2_)">
			<polygon fill="#8B859A" points="909.923,682 910.197,726 929,727 929,683 919.712,669 			"/>
			<polygon fill="#FFE2D0" points="994.555,727 929,727 929,683 995.557,683 			"/>
			<path fill="#004760" d="M922,693.75c0,0.69-0.561,1.25-1.252,1.25h-0.496c-0.691,0-1.252-0.56-1.252-1.25v-8.5
				c0-0.69,0.561-1.25,1.252-1.25h0.496c0.691,0,1.252,0.56,1.252,1.25V693.75z"/>
			<path fill="#DDC4B6" d="M965,695.75c0,0.69-0.561,1.25-1.252,1.25h-0.496c-0.691,0-1.252-0.56-1.252-1.25v-7.5
				c0-0.69,0.561-1.25,1.252-1.25h0.496c0.691,0,1.252,0.56,1.252,1.25V695.75z"/>
			<path fill="#8B859A" d="M969,695.75c0,0.69-0.561,1.25-1.252,1.25h-0.496c-0.691,0-1.252-0.56-1.252-1.25v-7.5
				c0-0.69,0.561-1.25,1.252-1.25h0.496c0.691,0,1.252,0.56,1.252,1.25V695.75z"/>
			<path fill="#8B859A" d="M966,726c0,1.104-1.387,1-2.494,1h-0.5c-1.105,0-1.006,0.104-1.006-1v-13c0-1.104,0.894-2,1.999-2l0,0
				c1.107,0,2.001,0.896,2.001,2V726z"/>
			<path opacity="0.7" fill="#8B859A" d="M946.229,727c0.751,0,12.52-10.879,24.538-6.627c0,0,8.385-8.222,11.771-10.122
				c6.093-3.417,12.422-0.996,12.422-0.996L994.555,727H946.229z"/>
			<g>
				<g>
					<path fill="#004760" d="M908.796,678.625c0,0-2.128,5.563,1.503,3.438l9.578-14.031L929.453,682h66.104l4.256-0.5l-9.765-17.5
						h-69.608L908.796,678.625z"/>
					
						<line fill="none" stroke="#002440" stroke-linecap="round" stroke-miterlimit="10" x1="932.63" y1="664.479" x2="943.475" y2="681.358"/>
					
						<line fill="none" stroke="#002440" stroke-linecap="round" stroke-linejoin="bevel" stroke-miterlimit="10" x1="961.79" y1="664.479" x2="971.888" y2="681.358"/>
					
						<line fill="none" stroke="#002440" stroke-linecap="round" stroke-linejoin="bevel" stroke-miterlimit="10" x1="981.625" y1="664.913" x2="992.264" y2="681.358"/>
					<path fill="none" stroke="#002440" stroke-linecap="round" stroke-miterlimit="10" d="M909.422,682
						c0.108-0.157,0.1-0.163,10.455-13.969"/>
				</g>
				<polyline fill="none" stroke="#002440" stroke-linecap="round" stroke-miterlimit="10" points="920.022,668.281 
					923.592,673.648 929.453,682.5 995.557,682.5 999.813,681.5 				"/>
				
					<line fill="none" stroke="#002440" stroke-linecap="round" stroke-miterlimit="10" x1="994.105" y1="671.269" x2="924.361" y2="673.274"/>
			</g>
		</g>
		<path clip-path="url(#SVGID_2_)" fill="#004E47" d="M837.811,729.5l92.394,2c0,0-2.253-5.5-11.269-9c0,0-2.754-11.5-13.771-15.5
			s-18.278,0.75-20.282,5.25c0,0-15.023-2.75-22.285,1.25c0,0-5.258,3.25-7.01,7.25C855.588,720.75,839.813,724.5,837.811,729.5z"/>
		<path clip-path="url(#SVGID_2_)" fill="#005A4B" d="M964.676,730.166c0.082-0.25,5.76-3.582,10.098-3.166
			c0,0,3.256-14.334,19.114-11.167c0,0-2.169-10.417,9.099-10.25s12.77,6.417,13.104,8.417c0,0,3.17,0.25,3.839,4.833
			c0.668,4.583-0.751,6.333-2.003,6.833c0,0,2.169,3.417-0.25,4.917L964.676,730.166z"/>
		<g clip-path="url(#SVGID_2_)">
			<polygon fill="#8B859A" points="1073.68,733 1031.864,730.917 1032.615,676 1074.932,676.417 			"/>
			<path fill="#FFE2D0" d="M1101.557,654.583l-26.625,22.834L1073.68,733l5.592,0.946l20.449,0.054l19.781-11.917
				c0,0,2.838-49,2.504-49C1121.67,673.083,1101.557,654.583,1101.557,654.583z"/>
			<polygon fill="#004760" points="1102.308,653.75 1058.406,651.5 1029.525,677 1074.932,677 			"/>
			<polyline fill="none" stroke="#002440" stroke-width="2" stroke-miterlimit="10" points="1029.4,676.751 1074.682,677.417 
				1075.135,677.11 1100.535,654.751 1101.494,654.125 1121.938,672.583 			"/>
			<line fill="none" stroke="#002440" stroke-miterlimit="10" x1="1045.597" y1="662.811" x2="1088.017" y2="665.771"/>
			<line fill="none" stroke="#002440" stroke-miterlimit="10" x1="1061.994" y1="675.391" x2="1087.219" y2="652.978"/>
			<line fill="none" stroke="#002440" stroke-miterlimit="10" x1="1040.628" y1="675.391" x2="1066.807" y2="651.931"/>
		</g>
		<g clip-path="url(#SVGID_2_)">
			<g>
				<g>
					<polygon fill="#8B859A" points="1167.734,682.765 1101.247,675.602 1098.285,732.214 1165.299,735.709 					"/>
					<polygon fill="#FFE2D0" points="1238.692,731.334 1167,734.167 1167,681 1206.308,654.834 1237.891,678.25 					"/>
					<path fill="#004760" d="M1082.36,676.667l84.465,3.834l38.894-24c0,0,2.336-1.333-1.002-2s-74.949-1.834-74.949-1.834
						l-47.407,23.334"/>
					<g>
						<g>
							<line fill="none" stroke="#002440" stroke-miterlimit="10" x1="1082.693" y1="676.667" x2="1166.492" y2="679.834"/>
							<line fill="none" stroke="#002440" stroke-miterlimit="10" x1="1166.492" y1="679.834" x2="1206.219" y2="654.834"/>
							<line fill="none" stroke="#002440" stroke-miterlimit="10" x1="1206.219" y1="654.834" x2="1239.939" y2="678.25"/>
						</g>
						<line fill="none" stroke="#002440" stroke-miterlimit="10" x1="1112.072" y1="661.501" x2="1186.688" y2="667.244"/>
						<line fill="none" stroke="#002440" stroke-miterlimit="10" x1="1141.459" y1="679.35" x2="1180.123" y2="653.642"/>
						<line fill="none" stroke="#002440" stroke-miterlimit="10" x1="1105.556" y1="677.531" x2="1143.887" y2="652.834"/>
					</g>
				</g>
				<path opacity="0.7" fill="#8B859A" d="M1089.344,676.542c-0.668,0.667-11.004,8.563-11.004,8.563l2.779,1.365l-1.002,46.016
					L1100,734v-56.689L1089.344,676.542z"/>
			</g>
			<g>
				<polygon fill="#002440" points="1110.33,683.344 1116.473,683.202 1115.805,695.535 1109.736,695.334 				"/>
				<rect x="1124" y="684" fill="#002440" width="5" height="12"/>
				<polygon fill="#002440" points="1136,684 1136,696 1139.783,696 1140.785,684 1136.778,684 				"/>
				<path fill="#002440" d="M1145,684c0,0.668,0,12,0,12h3.797l0.834-12H1145z"/>
				<polygon fill="#002440" points="1154.639,684 1153.805,696 1160,696 1160,684 				"/>
				<rect x="1137" y="712" fill="#002440" width="6" height="15"/>
				<polygon fill="#002440" points="1153,712 1153,726 1160,726 1160,711 				"/>
				<line fill="none" stroke="#8B859A" stroke-miterlimit="10" x1="1113.104" y1="683.28" x2="1112.645" y2="695.431"/>
				<line fill="none" stroke="#8B859A" stroke-miterlimit="10" x1="1109.871" y1="692.624" x2="1115.959" y2="692.686"/>
				<line fill="none" stroke="#8B859A" stroke-miterlimit="10" x1="1110.131" y1="687.373" x2="1116.238" y2="687.535"/>
				<line fill="none" stroke="#8B859A" stroke-miterlimit="10" x1="1126.043" y1="684" x2="1126.262" y2="696"/>
				<line fill="none" stroke="#8B859A" stroke-miterlimit="10" x1="1123.758" y1="693" x2="1128.766" y2="693.031"/>
				<line fill="none" stroke="#8B859A" stroke-miterlimit="10" x1="1124" y1="687.5" x2="1129" y2="687.5"/>
				<line fill="none" stroke="#8B859A" stroke-miterlimit="10" x1="1138.281" y1="684" x2="1137.905" y2="696"/>
				<line fill="none" stroke="#8B859A" stroke-miterlimit="10" x1="1135.777" y1="687.125" x2="1140.513" y2="687.254"/>
				<line fill="none" stroke="#8B859A" stroke-miterlimit="10" x1="1135.777" y1="692.624" x2="1140.06" y2="692.686"/>
				<line fill="none" stroke="#8B859A" stroke-miterlimit="10" x1="1147.209" y1="684" x2="1146.763" y2="696"/>
				<line fill="none" stroke="#8B859A" stroke-miterlimit="10" x1="1144.791" y1="692.624" x2="1149.029" y2="692.654"/>
				<line fill="none" stroke="#8B859A" stroke-miterlimit="10" x1="1149.385" y1="687.535" x2="1144.791" y2="687.373"/>
				<line fill="none" stroke="#8B859A" stroke-miterlimit="10" x1="1139.471" y1="712" x2="1139.627" y2="727"/>
				<line fill="none" stroke="#8B859A" stroke-miterlimit="10" x1="1136.778" y1="723.813" x2="1142.787" y2="723.875"/>
				<line fill="none" stroke="#8B859A" stroke-miterlimit="10" x1="1137" y1="716.5" x2="1143" y2="716.5"/>
				<line fill="none" stroke="#8B859A" stroke-miterlimit="10" x1="1152.803" y1="723.281" x2="1159.814" y2="723.125"/>
				<line fill="none" stroke="#8B859A" stroke-miterlimit="10" x1="1152.803" y1="716.188" x2="1159.814" y2="716.063"/>
				<line fill="none" stroke="#8B859A" stroke-miterlimit="10" x1="1156.15" y1="711.522" x2="1156.184" y2="726"/>
				<line fill="none" stroke="#8B859A" stroke-miterlimit="10" x1="1157.061" y1="684" x2="1156.643" y2="696"/>
				<line fill="none" stroke="#8B859A" stroke-miterlimit="10" x1="1154" y1="692.5" x2="1160" y2="692.5"/>
				<line fill="none" stroke="#8B859A" stroke-miterlimit="10" x1="1154.398" y1="687.453" x2="1159.814" y2="687.5"/>
			</g>
		</g>
		<g clip-path="url(#SVGID_2_)">
			<path fill="#002440" d="M1040,683.75c0,0,1.311-1.406,2.188-1.078s2.813-0.125,2.813-0.125V696l-5-1V683.75z"/>
			<polygon fill="#002440" points="1055,695.375 1060.02,696 1061.078,682.547 1055,682.5 			"/>
			<path fill="#002440" d="M1067.857,696.227c0.376-0.5,5.039,0.114,5.039,0.114L1073.68,683h-5.008L1067.857,696.227z"/>
			<path fill="#002440" d="M1066.668,713c0,0,5.332-0.375,5.332,0s0,11,0,11h-6.332L1066.668,713z"/>
			<polygon fill="#002440" points="1053,712.833 1060,713 1060,724 1053,724.375 			"/>
			<path fill="#002440" d="M1039.627,713.5c0,0,4.757-1.084,5.008-0.667c0.25,0.417,0,11.167,0,11.167l-5.76-0.625L1039.627,713.5z"
				/>
			<line fill="none" stroke="#8B859A" stroke-miterlimit="10" x1="1042.131" y1="713" x2="1041.811" y2="723.694"/>
			<line fill="none" stroke="#8B859A" stroke-miterlimit="10" x1="1039.094" y1="720.5" x2="1044.635" y2="721"/>
			<line fill="none" stroke="#8B859A" stroke-miterlimit="10" x1="1040" y1="716.5" x2="1045" y2="716.5"/>
			<line fill="none" stroke="#8B859A" stroke-miterlimit="10" x1="1056.5" y1="713" x2="1056.5" y2="724"/>
			<line fill="none" stroke="#8B859A" stroke-miterlimit="10" x1="1052.646" y1="721.5" x2="1059.658" y2="721"/>
			<line fill="none" stroke="#8B859A" stroke-miterlimit="10" x1="1053" y1="716.5" x2="1060" y2="716.5"/>
			<line fill="none" stroke="#8B859A" stroke-miterlimit="10" x1="1068.922" y1="712.737" x2="1068.672" y2="723.694"/>
			<line fill="none" stroke="#8B859A" stroke-miterlimit="10" x1="1065.668" y1="721" x2="1071.676" y2="720.5"/>
			<line fill="none" stroke="#8B859A" stroke-miterlimit="10" x1="1066.398" y1="715.964" x2="1071.676" y2="715.875"/>
			<line fill="none" stroke="#8B859A" stroke-miterlimit="10" x1="1070.299" y1="696" x2="1071.676" y2="683"/>
			<line fill="none" stroke="#8B859A" stroke-miterlimit="10" x1="1068.08" y1="692.619" x2="1073.106" y2="692.768"/>
			<line fill="none" stroke="#8B859A" stroke-miterlimit="10" x1="1068.41" y1="687.257" x2="1073.408" y2="687.631"/>
			<line fill="none" stroke="#8B859A" stroke-miterlimit="10" x1="1060.52" y1="686.633" x2="1054.65" y2="686.25"/>
			<line fill="none" stroke="#8B859A" stroke-miterlimit="10" x1="1054.65" y1="691.75" x2="1060.133" y2="692.007"/>
			<line fill="none" stroke="#8B859A" stroke-miterlimit="10" x1="1057.732" y1="682.5" x2="1057.392" y2="695.705"/>
			<line fill="none" stroke="#8B859A" stroke-miterlimit="10" x1="1041.817" y1="682.672" x2="1041.969" y2="695.469"/>
			<line fill="none" stroke="#8B859A" stroke-miterlimit="10" x1="1040" y1="691.5" x2="1045" y2="691.5"/>
			<line fill="none" stroke="#8B859A" stroke-miterlimit="10" x1="1039.627" y1="686.633" x2="1044.635" y2="686.25"/>
		</g>
		<path clip-path="url(#SVGID_2_)" fill="#004E47" d="M1073.68,733.667l26.709,1.333c0,0,2.003-6.999-1.67-7.499
			c0,0-2.394-6-6.872-5c0,0-6.438,0.833-4.54,7.333c0,0-3.779-1.667-4.613,1c0,0-9.014-1.833-9.014,2.167"/>
		<g clip-path="url(#SVGID_2_)">
			<rect x="1216" y="711" fill="#004760" width="9" height="21"/>
			<rect x="1215" y="684" fill="#FFCEAD" width="11" height="11"/>
			<rect x="1225" y="684" fill="#8B859A" width="2" height="11"/>
		</g>
		<path opacity="0.7" clip-path="url(#SVGID_2_)" fill="#8B859A" d="M1192.378,733.159l46.227-1.825c0,0,0-32.666-0.501-32.166
			c-0.5,0.5-1.67,3.167-10.852,10c-9.18,6.833-17.693,11.666-22.701,13.833S1193.379,730.659,1192.378,733.159z"/>
		<path clip-path="url(#SVGID_2_)" fill="#00352F" d="M1238.176,710.875c0,0,31.824-0.75,36.824,1.625V673
			c0,0-10.895-0.875-13.148,14.375c0,0-7.889-3.884-11.77,5.37c0,0-4.383-0.745-5.009,4.005c0,0-7.052-0.916-7.042,0.751
			S1237.814,711,1237.814,711"/>
		<g clip-path="url(#SVGID_2_)">
			<path fill="#8B859A" d="M1275,662v51c0,0,82.125,1.375,82.627,1.5c0.5,0.125-1.877-55.5-1.877-55.5L1275,662z"/>
			<path fill="#FFE2D0" d="M1422.225,713.375c0-0.5,2.754-58.125,2.754-58.125L1394.514,619l-38.768,40l1.877,55.5L1422.225,713.375
				z"/>
			<g>
				<path fill="#002440" d="M1285.01,684h8.99v16c0,0-8.377,0.25-9.003,0S1285.01,684,1285.01,684z"/>
				<polygon fill="#002440" points="1302.951,713.563 1301.912,685 1308,685 1308,715 				"/>
				<polygon fill="#002440" points="1324.947,714.5 1323.945,686 1329.079,686 1328.453,715 				"/>
				<path fill="#002440" d="M1338.969,684c0,0.25-0.375,17.875,0,18.25c0.376,0.375,8.514-1.125,8.514-1.125l0.752-17.125H1338.969z
					"/>
				<line fill="none" stroke="#8B859A" stroke-miterlimit="10" x1="1289.5" y1="684" x2="1289.5" y2="700"/>
				<line fill="none" stroke="#8B859A" stroke-miterlimit="10" x1="1343.5" y1="684" x2="1343.5" y2="702"/>
				<line fill="none" stroke="#8B859A" stroke-miterlimit="10" x1="1338.803" y1="696.991" x2="1347.68" y2="696.634"/>
				<line fill="none" stroke="#8B859A" stroke-miterlimit="10" x1="1338.873" y1="689.621" x2="1347.998" y2="689.376"/>
				<line fill="none" stroke="#8B859A" stroke-miterlimit="10" x1="1284.732" y1="695.625" x2="1294.023" y2="695.75"/>
				<line fill="none" stroke="#8B859A" stroke-miterlimit="10" x1="1284.849" y1="688.87" x2="1294.023" y2="689.376"/>
			</g>
			<g>
				<polygon fill="#FFCEAD" points="1372,652 1372,664 1383.967,663.25 1384.682,652.625 				"/>
				<polygon fill="#8B859A" points="1382.764,652.521 1382.818,663.383 1384.686,663.25 1384.979,652.625 				"/>
				<path fill="#FFCEAD" d="M1397.522,651.875c0,0.875-0.646,11.688-0.144,11.563c0.389-0.097,0.621-0.128,10.621,0.063V653
					L1397.522,651.875z"/>
				<path fill="#8B859A" d="M1406.405,652.819c0,0.875-0.019,10.618-0.019,10.618l1.613,0.063V653L1406.405,652.819z"/>
				<path fill="#FFCEAD" d="M1372.252,687.813c-0.377,0.75,0.051,12.656,0.678,12.281c0.626-0.375,11.07-1.469,11.07-1.469V688
					L1372.252,687.813z"/>
				<path fill="#8B859A" d="M1382.239,687.971c-0.059,0.75-0.446,10.846-0.059,10.854c0.421,0.01,1.819-0.2,1.819-0.2V688
					L1382.239,687.971z"/>
			</g>
			<path fill="#004760" d="M1263.727,662.25c0.668,0,94.23-2.082,94.23-2.082L1394.514,619h-91.476L1263.727,662.25z"/>
			<polyline fill="none" stroke="#002440" stroke-miterlimit="10" points="1263.727,662.25 1357.957,660.168 1358.287,659.797 
				1394.514,619 			"/>
			<line fill="none" stroke="#002440" stroke-miterlimit="10" x1="1394.514" y1="619" x2="1425.897" y2="656.25"/>
			<line fill="none" stroke="#002440" stroke-miterlimit="10" x1="1284.732" y1="639.142" x2="1379.846" y2="635.519"/>
			<line fill="none" stroke="#002440" stroke-miterlimit="10" x1="1372.199" y1="619" x2="1335.752" y2="660.659"/>
			<line fill="none" stroke="#002440" stroke-miterlimit="10" x1="1347.68" y1="619" x2="1311.111" y2="660.659"/>
			<line fill="none" stroke="#002440" stroke-miterlimit="10" x1="1320.565" y1="619" x2="1285.482" y2="661.61"/>
		</g>
		<path opacity="0.7" clip-path="url(#SVGID_2_)" fill="#8B859A" d="M1357.885,716.17c0,0,15.141-10.962,27.789-8.581
			c0,0,2.193-5.927,9.572-2.951c0,0,17.754-22.294,27.754-5.928v14.877L1357.885,716.17z"/>
		<path clip-path="url(#SVGID_2_)" fill="#005A4B" d="M1434.243,716l-62.097,2.17c0,0,14.271-9.21,26.291-7.21"/>
		<path clip-path="url(#SVGID_2_)" fill="#005A4B" d="M1372.023,718.17c0,0,14.334-9.21,26.354-7.21c0,0,2.161-4.979,9.172-2.479
			c0,0,17.451-18.73,26.451-4.98V716L1372.023,718.17z"/>
		<path clip-path="url(#SVGID_2_)" fill="#0F6853" d="M371.08,751.5c0,0,85.634,2.5,114.179,10c28.544,7.5,53.583,1.5,69.108,4.5
			c15.523,3,65.102,5.5,66.604,6s118.686-15,118.686-15l-48.576-1c0,0-4.006-6-31.049-8.25C632.99,745.5,423.162,739.5,371.08,751.5
			z"/>
		<path clip-path="url(#SVGID_2_)" fill="#0F6853" d="M858.845,817.038c-4.55,0.275,35.388-9.486,61.763-7.454
			c26.373,2.033,160.717,8.131,209.436,7.454c48.718-0.678,253.842,3.137,305.541-3.853c51.699-6.989,115.822-15.797,115.822-15.797
			l29.056,27.103c0,0,21.706-3.388,58.431-5.42c36.723-2.033,58.093-14.907,78.791-12.874c20.697,2.033,55.422-5.42,67.441-8.809
			c12.018-3.388,12.017-3.388,12.017-3.388L1920,799.421V2160H-3.004l0.229-1260c0,0,1104.727-36.209,1077.404-41.63
			C1047.303,852.95,870.028,816.36,858.845,817.038z"/>
		<path clip-path="url(#SVGID_2_)" fill="#004E47" d="M1581.75,837.47c-3.139,5.924-3.388,6.418,8.123,5.431
			c11.512-0.987,41.873-4.042,53.552-2.515s23.94,1.928,39.122,0c15.182-1.929,67.734-8.346,84.667-8.346s53.72-6.417,70.069-7.404
			c16.35-0.987,81.375-4.936,81.375-4.936l0.372-12.341l-109.774-2.468c0,0-23.357,3.455-37.955,6.91
			c-14.598,3.456-24.725,2.406-50.417,5.862c-25.691,3.455-93.524,10.429-98.78,11.415
			C1616.848,830.066,1581.75,837.47,1581.75,837.47z"/>
		<path clip-path="url(#SVGID_2_)" fill="#00352F" d="M1919,710.116c0,0.494-47.865-25.32-70.639,14.49
			c0,0-51.555-19.919-68.398,15.128c-16.844,35.046,3.014,28.043,3.014,28.043L1878.74,782H1919V710.116z"/>
		<path clip-path="url(#SVGID_2_)" fill="#004E47" d="M1240.689,872.023c-2.344,0.318,21.708,21.72,21.708,21.72
			s117.538-7.405,163.157-5.431c45.617,1.975,304.289-5.43,346.914-9.378c42.626-3.949,146.189-17.277,146.189-17.277l0.372-39.489
			c0,0-64.813,10.367-109.19,16.783c-44.377,6.417-280.137,25.668-320.496,24.188
			C1448.984,861.657,1277.055,867.087,1240.689,872.023z"/>
		<path clip-path="url(#SVGID_2_)" fill="#004E47" d="M1207,747.5c0,0,22.166,4,44.199,5c22.035,1,41.82,5,53.901,4.5
			s43.069-2.914,60.597,0.043s53.553-0.457,68.576,0s21.52-1.043,21.52-1.043s-11.025-11-32.559-8.5c0,0-19.911-18.5-38.253-9.5
			c0,0-25.353-26-34.366-12c0,0-13.453-20.373-34.27-17.687c-20.818,2.687-22.377,3.964-30.863,14.075
			c0,0-12.992-4.389-15.996,4.611c0,0-19.287-6.5-26.299,10.5c0,0-29.188-8-36.188,8V747.5z"/>
		<path clip-path="url(#SVGID_2_)" fill="#004E47" d="M1652.185,752.075l42.626,10.279L1709.99,783h23.356
			c0,0,24.524,8.478,37.954,8.972c13.43,0.493,28.613-1.932,33.283,5.473c4.672,7.405,2.188,7.801,2.188,7.801L1919,807.359v-38.996
			c0,0-2.32-40.477-29.18-27.643c0,0-12.839,10.861-18.678,23.2c0,0-16.346-14.809-32.695,1.975c0,0-26.274-20.238-52.842-13.82
			c0,0-1.176-4.272-4.119-9.721c-4.893-9.061-14.666-21.376-32.022-22.706c0,0-23.123-5.336-30.13,17.247
			c0,0-30.949-12.151-35.619,9.905C1683.715,746.801,1659.774,736.278,1652.185,752.075z"/>
	</g>
</g>
<g id="Aspas_2_">
</g>
<g id="Rock">
</g>
<g id="Ground">
</g>
<g id="Floating_forms">
</g>
<g id="Logo">
</g>
<g id="All">
</g>
</svg>
