<?xml version="1.0" encoding="utf-8"?>
<!-- Generator: Adobe Illustrator 16.0.0, SVG Export Plug-In . SVG Version: 6.00 Build 0)  -->
<!DOCTYPE svg PUBLIC "-//W3C//DTD SVG 1.1//EN" "http://www.w3.org/Graphics/SVG/1.1/DTD/svg11.dtd">
<svg version="1.1" xmlns="http://www.w3.org/2000/svg" xmlns:xlink="http://www.w3.org/1999/xlink" x="0px" y="0px" width="2880px"
	 height="2808.487px" viewBox="0 0 2880 2808.487" enable-background="new 0 0 2880 2808.487" xml:space="preserve">
<g id="Imgs">
</g>
<g id="Sky">
</g>
<g id="Clouds">
</g>
<g id="Leaves">
</g>
<g id="Buildings">
</g>
<g id="Mountains">
</g>
<g id="City">
</g>
<g id="Aspas_2_">
</g>
<g id="Rock">
</g>
<g id="Ground">
	<g>
		<defs>
			<rect id="SVGID_25_" width="2880" height="2808"/>
		</defs>
		<clipPath id="SVGID_2_">
			<use xlink:href="#SVGID_25_"  overflow="visible"/>
		</clipPath>
		<g clip-path="url(#SVGID_2_)">
			<path fill="#001420" d="M1063.541,947.003l-23.982-52.5l21.318-10.5l51.965,66l-6.662-86l18.653-1l11.991,82l9.327-86l17.321,82
				l37.308-77l22.651,9c0,0-11.992,24-13.324,28c-1.333,4,27.98-16,30.645-20c2.666-4,6.662,5,6.662,5l-46.634,61
				c0,0,17.321-5,18.653-8s18.654-26,18.654-26l33.31,23l42.638,14l26.647,13l-41.466-39.087l-34.48-32.502l27.98-23.411l54.629,56
				c0,0-43.971-74-43.971-77s21.319-6,21.319-6s93.269,137,75.947,113s-63.956-121-63.956-121l22.651-7l81.722,126.667
				c0,0-194.531,48.667-200.75,48.667s-193.643-10-193.643-10L1063.541,947.003z"/>
			<path fill="#001420" d="M518.588,960.003l-23.984-52.5l21.318-10.5l51.965,66l-6.662-86l18.652-1l11.993,82l9.326-86l17.321,82
				l37.307-77l22.652,9c0,0-11.992,24-13.324,28c-1.333,4,27.98-16,30.645-20c2.666-4,6.663,5,6.663,5l-46.636,61
				c0,0,17.322-5,18.654-8s18.654-26,18.654-26l33.311,23l42.637,14l26.648,13l-41.467-39.087l-34.48-32.502l27.98-23.411l54.629,56
				c0,0-43.97-74-43.97-77s21.318-6,21.318-6s93.269,137,75.947,113s-63.955-121-63.955-121l22.65-7l81.722,126.667
				c0,0-194.531,48.667-200.75,48.667c-6.217,0-193.643-10-193.643-10L518.588,960.003z"/>
			<path fill="#001420" d="M1921.613,947.003l-23.984-52.5l21.318-10.5l51.965,66l-6.662-86l18.653-1l11.991,82l9.328-86l17.32,82
				l37.309-77l22.65,9c0,0-11.992,24-13.324,28s27.98-16,30.646-20s6.662,5,6.662,5l-46.634,61c0,0,17.32-5,18.653-8
				c1.332-3,18.653-26,18.653-26l33.311,23l42.637,14l26.648,13l-41.466-39.087l-34.481-32.502l27.98-23.411l54.629,56
				c0,0-43.969-74-43.969-77s21.318-6,21.318-6s93.268,137,75.945,113c-17.32-24-63.954-121-63.954-121l22.65-7l81.722,126.667
				c0,0-194.531,48.667-200.75,48.667c-6.217,0-193.643-10-193.643-10L1921.613,947.003z"/>
			<path fill="#001420" d="M310.43,841c0,0-0.53,1.05-1.36,2.75c-1.04-1.53-2.06-3.03-3.06-4.51L310.43,841z"/>
			<path fill="#001420" d="M352.2,907.57c-2.881-4.311-6.221-9.271-9.83-14.641l2.529,1.75
				C347.46,899.34,349.92,903.68,352.2,907.57z"/>
			<path fill="#001420" d="M360.709,921c-2.359-3.27-5.259-7.89-8.509-13.43C361.24,921.05,365.859,928.13,360.709,921z"/>
			<path fill="#001420" d="M487.64,922c-2.36-3.27-5.26-7.89-8.51-13.43C488.17,922.05,492.79,929.13,487.64,922z"/>
			<g>
				<linearGradient id="SVGID_4_" gradientUnits="userSpaceOnUse" x1="-0.3701" y1="858.25" x2="230.2295" y2="858.25">
					<stop  offset="0.0046" style="stop-color:#002129"/>
					<stop  offset="1" style="stop-color:#001420"/>
				</linearGradient>
				<path fill="url(#SVGID_4_)" d="M224.81,858.41l4.47,4.22l0.95-8.76L224.81,858.41z M-0.37,861.5l0.38,0.83v-1.021L-0.37,861.5z"
					/>
				<linearGradient id="SVGID_12_" gradientUnits="userSpaceOnUse" x1="422.9697" y1="930.04" x2="427.6797" y2="930.04">
					<stop  offset="0.0046" style="stop-color:#002129"/>
					<stop  offset="1" style="stop-color:#001420"/>
				</linearGradient>
				<path fill="url(#SVGID_12_)" d="M427.59,931.09l-0.25-0.22l-0.04-0.021l0.38,0.351L427.59,931.09z M423.34,928.9l-0.37-0.021
					l3.78,1.7L423.34,928.9z"/>
				<polygon fill="#001420" points="425.37,929 425.189,929 425.279,928.92 				"/>
				<path fill="#001420" d="M507.189,925.88c-1.18,0.29-2.399,0.601-3.66,0.91C504.649,926.44,505.88,926.13,507.189,925.88z"/>
				<path fill="#001420" d="M360.709,921c-2.359-3.27-5.259-7.89-8.509-13.43C361.24,921.05,365.859,928.13,360.709,921z"/>
			</g>
			<path fill="#001420" d="M2695.439,950.232c15.221-30.149,56.205-152.005,56.205-152.005l-19.906-8.794l-71.818,159.124
				c0,0,170.957,61.138,176.424,61.138l-27.322-82.075l-37.471,17.587l-23.418,16.332"/>
			<path fill="#001420" d="M2814.875,871.605l-24.59-29.41l-48.01,70.35c0,0,38.643-92.961,38.643-96.73
				c0-3.769-18.734-7.537-18.734-7.537s-81.967,172.104-66.744,141.955"/>
			<path fill="#001420" d="M2814.875,871.605l-30.303,40.83l-36.439,49.104l66.742,48.156c0,0-128.531,13.639-130.531,13.639
				s-202-52.667-202-52.667l-82.326-82.325l16.736-19.765c0,0,65.572,12.562,94.846,51.506l-71.428-76.631l24.592-26.381
				l30.443,37.687l-19.906-40.199c10.539-7.537,66.744,86.681,66.744,86.681l11.711-6.281l-39.813-104.269l7.025-11.306
				l58.547,104.268l7.025-3.769l-45.668-108.036l22.249-18.844c0,0,43.325,76.631,49.181,115.574l11.709-16.331l2.34-97.987
				l62.061,8.794c0,0-11.708,76.631-18.734,106.78l40.982-100.499l14.053,7.537c0,0-32.787,119.343-44.496,154.518L2814.875,871.605
				z"/>
			<g>
				<g>
					<g>
						<path fill="#FFE2D0" d="M2813.92,898.917c3.469-10.772,1.467-26.605-9.139-32.671c-2.542-1.453-6.575-1.344-8.561,1.104
							c-6.77,8.351-4.402,16.471,1.732,24.298c2.213,2.824,4.702,5.302,6.41,8.491c-0.395-0.736,0.219,1.46,0.098,0.132
							c0.104,1.137,0.014,2.201,0.329,3.347c0.886,3.22,3.619,4.904,6.763,5.149c3.319,0.259,5.669-2.385,6.763-5.149
							c2.476-6.256-2.883-12.864-6.686-17.225c-1.761-2.02-3.533-3.996-4.971-6.261c-1.081-1.704-1.204-1.888-0.448-2.792
							c-2.854,0.368-5.707,0.736-8.561,1.104c3.618,1.799,3.873,5.628,4.571,9.289c0.927,4.857,1.519,9.317,5.235,12.889
							C2809.612,902.695,2813.026,901.695,2813.92,898.917L2813.92,898.917z"/>
					</g>
				</g>
				<g>
					<g>
						<path fill="#FFE2D0" d="M2729.422,945.893c-0.318-0.054-0.636-0.119-0.949-0.196c-3.17-0.717,0.635,0.654,1.63,2.011
							c1.034,1.41,0.594,2.943,0.549,1.08c-0.015-0.577,0.002-1.141,0.038-1.716c0.085-0.803,0.078-0.816-0.021-0.04
							c0.087-0.601,0.194-1.198,0.279-1.799c0.13-0.934,0.297-1.861,0.437-2.793c-2.837,1.611-5.673,3.221-8.51,4.832
							c0.223,0.04,1.782,0.672,0.766,0.163c0.7,0.351,1.353,0.812,2.002,1.246c1.433,0.956,2.76,2.069,4.161,3.071
							c3.485,2.493,7.26,3.505,11.48,2.732c8.575-1.569,10.166-14.063,7.947-20.755c-2.836-8.554-15.854-5.098-13.56,3.738
							c0.16,0.735,0.187,0.699,0.079-0.108c0.048,0.479,0.074,0.958,0.078,1.438c0.011,0.343-0.224,2.828-0.08,2.012
							c-0.19,1.083-0.899,1.817,0.082,0.667c1.219-1.43,5.132-0.357,2.271-1.312c0.761,0.253-1.543-0.957-1.845-1.143
							c-0.98-0.603-1.932-1.254-2.896-1.882c-2.088-1.359-4.303-2.798-6.808-3.209c-4.851-0.795-8.119,1.915-8.757,6.671
							c0.336-2.509-0.001-0.108-0.072,0.398c-0.199,1.404-0.406,2.801-0.473,4.217c-0.13,2.752,0.237,5.296,1.365,7.814
							c2.862,6.389,12.652,5.168,13.949-1.602C2732.995,949.183,2731.968,946.371,2729.422,945.893L2729.422,945.893z"/>
					</g>
				</g>
				<g>
					<g>
						<path fill="#FFE2D0" d="M2741.639,946.299c-0.373,3.968,1.892,8.155,2.687,11.981c-0.186-0.893,0.087,1.522,0.096,1.825
							c0.025,0.886-0.058,1.774-0.114,2.657c0.139-0.929,0.121-1.001-0.053-0.217c0.172-0.576,0.486-1.059,0.947-1.448
							c0.475-0.419,1.016-0.723,1.621-0.912c0.482-0.159,2.462,0.226,0.809-0.153c-8.918-2.046-12.339,10.692-3.752,13.611
							c8.744,2.972,15.501-4.353,14.894-12.841c-0.48-6.72-2.736-17.613-10.204-19.782
							C2744.898,939.955,2741.963,942.849,2741.639,946.299L2741.639,946.299z"/>
					</g>
				</g>
				<g>
					<g>
						<path fill="#FFE2D0" d="M2743.854,888.434c0.04,0.052,0.08,0.104,0.121,0.156c-0.23-0.297-0.46-0.594-0.689-0.892
							c0.143,0.205,0.264,0.412,0.371,0.638c-0.15-0.355-0.3-0.71-0.449-1.065c0.085,0.211,0.15,0.415,0.188,0.64
							c0-0.799,0-1.597,0-2.396c-0.028,0.193-0.074,0.367-0.146,0.549c0.158-0.375,0.316-0.75,0.475-1.125
							c-0.063,0.125-0.129,0.232-0.213,0.343c0.253-0.328,0.506-0.655,0.76-0.982c-0.057,0.067-0.12,0.129-0.188,0.184
							c0.333-0.258,0.667-0.516,1.001-0.774c-0.449,0.325-0.714,0.403-1.242,0.931c-0.791,0.791-1.008,1.427-1.421,2.448
							c0.166-0.394,0.332-0.787,0.498-1.18c-0.021,0.041-0.043,0.083-0.063,0.124c-0.811,1.564-0.914,3.347,0,4.905
							c0.842,1.438,2.501,2.467,4.195,2.407c2.446-0.086,4.902-1.574,5.325-4.182c0.273-1.686,0.154-3.222-0.742-4.726
							c0.151,0.359,0.303,0.718,0.454,1.077c-0.486-1.282-1.028-2.318-2.018-3.295c-1.703-1.682-4.514-1.701-6.215,0
							c-0.82,0.82-1.287,1.946-1.287,3.107C2742.566,886.608,2743.103,887.464,2743.854,888.434L2743.854,888.434z"/>
					</g>
				</g>
				<g>
					<g>
						<path fill="#FFE2D0" d="M2742.621,867.679c0.424,1.332,1.231,2.615,2.482,3.313c2.322,1.295,5.607,0.189,6.247-2.542
							c0.213-0.907,0.233-1.518,0.027-2.425c-0.034-0.148-0.063-0.294-0.086-0.445c0.053,0.394,0.105,0.787,0.158,1.181
							c-0.011-0.094-0.007-0.187,0.011-0.279c0.129-1.117-0.557-2.421-1.318-3.182c-0.84-0.84-1.993-1.318-3.182-1.318
							C2744.121,861.982,2741.729,864.87,2742.621,867.679L2742.621,867.679z"/>
					</g>
				</g>
				<g>
					<g>
						<path fill="#FFE2D0" d="M2751.584,852.495c0.023,0.03,0.048,0.061,0.072,0.09c-0.234-0.303-0.469-0.607-0.704-0.911
							c0.017,0.03,0.034,0.061,0.05,0.091c-0.15-0.358-0.302-0.717-0.453-1.075c0.01,0.031,0.02,0.062,0.029,0.093
							c-0.054-0.399-0.107-0.797-0.16-1.196c0.013,0.064,0.014,0.129,0.004,0.195c0.054-0.399,0.107-0.798,0.16-1.196
							c-0.193,0.917-0.284,1.681-0.031,2.598c0.155,0.566,0.353,0.839,0.557,1.276c0.369,0.624,0.866,1.121,1.49,1.489
							c1.016,0.595,2.072,0.641,3.199,0.418c1.642-0.323,3.114-1.734,3.464-3.389c0.175-0.829,0.26-1.759-0.004-2.587
							c-0.332-1.045-0.632-1.417-1.31-2.259c-0.706-0.879-2.102-1.318-3.182-1.318c-1.188,0-2.342,0.478-3.182,1.318
							c-0.84,0.84-1.318,1.993-1.318,3.182C2750.266,850.609,2750.803,851.523,2751.584,852.495L2751.584,852.495z"/>
					</g>
				</g>
				<g>
					<g>
						<path fill="#FFE2D0" d="M2734.802,855.846c0.38,0.408,0.761,0.751,1.262,1.051c1.724,1.035,4.017,0.711,5.428-0.7
							c1.485-1.485,1.621-3.618,0.7-5.428c-0.248-0.487-0.654-0.887-1.026-1.286c-1.673-1.795-4.676-1.688-6.363,0
							C2733.022,851.261,2733.13,854.053,2734.802,855.846L2734.802,855.846z"/>
					</g>
				</g>
				<g>
					<g>
						<path fill="#FFE2D0" d="M2615.424,857.584c2.453,0,4.5-2.047,4.5-4.5s-2.047-4.5-4.5-4.5s-4.5,2.047-4.5,4.5
							S2612.971,857.584,2615.424,857.584L2615.424,857.584z"/>
					</g>
				</g>
				<g>
					<g>
						<path fill="#FFE2D0" d="M2624.732,849.146c0.344,0.324,0.713,0.625,1.117,0.868c0.812,0.488,1.412,0.535,2.34,0.62
							c1.483,0.137,3.342-1.005,3.967-2.333c0.533-1.133,0.797-2.22,0.453-3.468c-0.309-1.125-1.062-2.1-2.067-2.689
							c-1.04-0.609-2.307-0.773-3.468-0.454c-1.04,0.286-2.215,1.059-2.689,2.068c-0.011,0.023-0.021,0.046-0.033,0.07
							c0.539-0.538,1.076-1.076,1.615-1.615c-0.017,0.012-0.033,0.023-0.049,0.035c0.757-0.205,1.514-0.41,2.271-0.615
							c-0.023-0.002-0.046-0.004-0.068-0.006c0.757,0.205,1.514,0.409,2.271,0.614c-0.03-0.018-0.061-0.036-0.091-0.055
							c0.304,0.235,0.606,0.469,0.911,0.704c-0.039-0.037-0.078-0.073-0.117-0.109c-1.784-1.681-4.591-1.773-6.363,0
							C2623.037,844.478,2622.946,847.465,2624.732,849.146L2624.732,849.146z"/>
					</g>
				</g>
				<g>
					<g>
						<path fill="#FFE2D0" d="M2619.983,827.259c-0.206,0.11-0.413,0.217-0.619,0.325c-1.085,0.572-1.623,1.445-2.336,2.385
							c0.318-0.412,0.637-0.823,0.954-1.235c-0.4,0.508-0.823,0.985-1.334,1.386c0.424-0.327,0.847-0.654,1.27-0.981
							c-0.261,0.186-0.54,0.343-0.828,0.483c0.502-0.212,1.004-0.424,1.506-0.636c-0.133,0.051-0.258,0.087-0.397,0.113
							c0.556-0.075,1.112-0.149,1.669-0.225c-1.817,0.143-3.358,0.502-4.698,1.842c-1.611,1.611-2.161,3.893-1.611,6.094
							c0.479,1.919,2.327,4.056,4.375,4.375c1.569,0.245,2.442,0.348,4.018-0.034c1.36-0.329,2.601-1.18,3.568-2.16
							c0.699-0.708,1.305-1.575,1.818-2.435c0.813-1.361,1.239-2.818,1.163-4.408c-0.098-2.022-1.018-3.842-2.804-4.888
							C2623.897,826.205,2621.788,826.297,2619.983,827.259L2619.983,827.259z"/>
					</g>
				</g>
				<g>
					<g>
						<path fill="#FFE2D0" d="M2611.521,820.244c5.713,0,5.713-8.859,0-8.859S2605.809,820.244,2611.521,820.244L2611.521,820.244z"
							/>
					</g>
				</g>
				<g>
					<g>
						<path fill="#FFE2D0" d="M2607.609,836.752c-0.041-1.233-0.249-1.695-0.717-2.792c-0.244-0.573-0.714-0.936-1.098-1.386
							c-1.022-1.202-2.945-1.566-4.405-1.165c-1.935,0.532-3.337,2.354-3.325,4.367c0.001,0.139,0,0.279,0.002,0.418
							c0.014,1.022,0.365,1.745,0.766,2.648c-0.158-0.374-0.315-0.748-0.474-1.121c0.036,0.088,0.059,0.179,0.066,0.274
							c0.222,0.792,0.623,1.479,1.202,2.063c0.873,0.873,2.071,1.369,3.307,1.369
							C2605.418,841.428,2607.695,839.301,2607.609,836.752L2607.609,836.752z"/>
					</g>
				</g>
				<g>
					<g>
						<path fill="#FFE2D0" d="M2474.129,870.146c2.453,0,4.5-2.047,4.5-4.5s-2.047-4.5-4.5-4.5s-4.5,2.047-4.5,4.5
							S2471.676,870.146,2474.129,870.146L2474.129,870.146z"/>
					</g>
				</g>
				<g>
					<g>
						<path fill="#FFE2D0" d="M2484.463,896.214c-0.005,0.046-0.01,0.093-0.014,0.139c0.053-0.399,0.107-0.797,0.16-1.196
							c-0.013,0.045-0.026,0.09-0.039,0.135c0.15-0.358,0.302-0.716,0.453-1.075c-0.035,0.09-0.084,0.172-0.145,0.247
							c0.235-0.303,0.47-0.607,0.704-0.911c-0.06,0.074-0.129,0.139-0.208,0.192c-0.879,0.703-1.317,2.105-1.317,3.182
							c0,1.188,0.478,2.341,1.317,3.182c0.84,0.84,1.993,1.317,3.182,1.317c0.398-0.054,0.798-0.107,1.196-0.16
							c0.763-0.214,1.424-0.6,1.985-1.157c1.195-0.937,1.582-2.474,1.725-3.896c0.113-1.127-0.547-2.411-1.318-3.182
							c-0.84-0.84-1.993-1.318-3.182-1.318s-2.342,0.478-3.182,1.318C2484.873,893.94,2484.588,894.977,2484.463,896.214
							L2484.463,896.214z"/>
					</g>
				</g>
				<g>
					<g>
						<path fill="#FFE2D0" d="M2476.977,911.33c-0.164-0.438-0.297-0.899-0.561-1.289c-0.612-0.906-0.799-1.049-1.684-1.681
							c-0.723-0.517-1.619-0.763-2.506-0.758c-1.449,0.008-3.068,0.801-3.739,2.146c-0.553,1.106-0.803,2.219-0.466,3.444
							c0.137,0.5,0.362,0.874,0.571,1.308c-0.15-0.357-0.302-0.714-0.452-1.072c0.01,0.03,0.019,0.06,0.028,0.09
							c-0.054-0.4-0.107-0.8-0.161-1.199c0.003,0.033,0.006,0.067,0.009,0.101c0.055-0.402,0.108-0.805,0.163-1.207
							c-0.006,0.039-0.012,0.078-0.018,0.117c-0.055,0.405-0.108,0.81-0.163,1.215c0.003,0.825,0.21,1.594,0.624,2.307
							c0.814,1.39,2.334,2.264,3.946,2.264c1.207,0,2.378-0.485,3.231-1.339C2476.875,914.703,2477.534,912.819,2476.977,911.33
							L2476.977,911.33z"/>
					</g>
				</g>
				<g>
					<g>
						<path fill="#FFE2D0" d="M2461.055,898.461c0.111,0.056,0.223,0.11,0.332,0.172c1.528,0.86,3.405,0.894,4.931,0
							c1.868-1.095,2.855-3.416,2.245-5.517c-0.033-0.114-0.078-0.222-0.123-0.333c-0.169-0.4-0.338-0.801-0.507-1.201
							c-0.446-0.756-1.048-1.357-1.804-1.804c-1.55-0.908-3.524-0.908-5.074,0c-1.529,0.896-2.49,2.568-2.49,4.341
							C2458.564,895.792,2459.498,897.695,2461.055,898.461L2461.055,898.461z"/>
					</g>
				</g>
				<g>
					<g>
						<path fill="#FFE2D0" d="M2449.486,900.492c-1.162,0.713-2.266,1.887-2.516,3.269c-0.205,0.759-0.205,1.519,0,2.277
							c0.275,1.004,1.007,2.09,1.969,2.561c0.95,0.466,1.617,0.639,2.683,0.677c-0.411-0.056-0.821-0.11-1.231-0.166
							c0.08,0.005,0.156,0.024,0.229,0.057c1.169,0.4,2.616,0.131,3.657-0.479c1.443-0.845,2.351-2.424,2.351-4.098
							C2456.628,901.051,2452.576,898.597,2449.486,900.492L2449.486,900.492z"/>
					</g>
				</g>
				<g>
					<g>
						<path fill="#F8AD3B" d="M2739.982,954.779c0.228-0.765,0.171-1.375,0.121-2.112c-0.075-1.124-0.09-2.152-0.256-3.292
							c0.066,0.495,0.133,0.991,0.199,1.486c-0.033-0.276-0.043-0.547-0.017-0.825c-0.067,0.504-0.136,1.008-0.203,1.512
							c0.021-0.145,0.056-0.283,0.088-0.424c0.203-0.876-0.747,1.487-0.374,0.885c-0.828,0.978-1.055,1.282-0.679,0.912
							c-1.031,0.734-1.318,0.964-0.86,0.689c-1.577,0.925-1.25,0.438-0.501,0.312c-0.506,0.068-1.011,0.136-1.517,0.204
							c0.7-0.086,1.393-0.033,2.09,0.06c-0.503-0.068-1.006-0.135-1.509-0.203c0.1,0.016,0.199,0.031,0.299,0.046
							c-1.321-1.321-2.643-2.642-3.964-3.963c0.051,0.203,0.091,0.408,0.121,0.615c-0.067-0.502-0.135-1.004-0.202-1.506
							c0.032,0.277,0.05,0.529,0.027,0.808c0.067-0.503,0.135-1.006,0.202-1.509c-0.02,0.152-0.049,0.302-0.09,0.45
							c-0.022,0.067-0.044,0.135-0.065,0.202c0.19-0.74,0.562-1.375,1.112-1.904c-0.395,0.392-0.126,0.19,0.806-0.603
							c1.209-0.79,1.472-0.5,0.813-0.407c0.521-0.07,1.043-0.14,1.564-0.21c-0.105,0.009-0.21,0.007-0.314-0.005
							c0.523,0.07,1.047,0.141,1.571,0.211c-0.575-0.094-1.567-0.554,0.407,0.31c-1.516-0.663-2.867-1.05-4.53-0.592
							c-1.47,0.404-2.743,1.387-3.513,2.701c-1.707,2.914-0.53,6.237,2.108,8.043c2.877,1.969,6.632,1.251,9.077-0.994
							c2.401-2.204,2.426-5.686,1.85-8.626c-0.348-1.77-2.175-3.641-3.964-3.963c-2.748-0.496-5.077-0.54-7.649,0.655
							c-1.02,0.474-2.154,1.698-2.683,2.671c-0.931,1.714-0.952,3.261-0.69,5.136c0.225,1.613,1.203,3.062,2.364,4.159
							c0.252,0.238,0.525,0.454,0.796,0.67c0.572,0.458,0.49,0.749-0.263-0.523C2733.769,959.255,2738.873,958.498,2739.982,954.779
							L2739.982,954.779z"/>
					</g>
				</g>
				<g>
					<g>
						<path fill="#F8AD3B" d="M2731.002,951.103c0.215,0.869,0.689,1.619,1.048,2.421c-0.192-0.455-0.384-0.91-0.576-1.364
							c0.034,0.085,0.058,0.173,0.071,0.263c-0.068-0.505-0.136-1.01-0.204-1.516c0.012,0.081,0.014,0.162,0.005,0.244
							c0.068-0.504,0.136-1.009,0.204-1.513c-0.021,0.122-0.05,0.228-0.095,0.344c0.191-0.453,0.382-0.905,0.572-1.357
							c-0.098,0.205-0.216,0.391-0.353,0.572c0.295-0.382,0.591-0.765,0.886-1.146c-1.172,0.98-1.883,2.125-2.45,3.583
							c-0.947,2.437,0.605,5.435,2.715,6.67c2.903,1.701,6.297,0.553,8.081-2.119c0.453-0.677,0.629-1.478,0.939-2.218
							c-0.193,0.459-0.388,0.918-0.582,1.378c0.145-0.325,0.323-0.58,0.515-0.875c0.718-1.108,0.83-2.166,0.968-3.437
							c0.13-1.205-0.469-2.532-0.963-3.572c-0.789-1.66-2.41-2.484-4.011-3.127c-1.765-0.708-4.087,0.147-5.354,1.416
							C2731.002,947.163,2730.526,949.182,2731.002,951.103L2731.002,951.103z"/>
					</g>
				</g>
			</g>
			<linearGradient id="SVGID_13_" gradientUnits="userSpaceOnUse" x1="425.1895" y1="930.1001" x2="427.6797" y2="930.1001">
				<stop  offset="0.0046" style="stop-color:#002129"/>
				<stop  offset="1" style="stop-color:#001420"/>
			</linearGradient>
			<path fill="url(#SVGID_13_)" d="M425.279,929h-0.09l1.801,1.57L425.279,929z M427.59,931.09l-0.25-0.22l-0.061-0.05l-0.289-0.25
				l0.26,0.239l0.05,0.04l0.38,0.351L427.59,931.09z"/>
			<linearGradient id="SVGID_14_" gradientUnits="userSpaceOnUse" x1="422.9697" y1="929.9399" x2="427.6797" y2="929.9399">
				<stop  offset="0.0046" style="stop-color:#002129"/>
				<stop  offset="1" style="stop-color:#001420"/>
			</linearGradient>
			<polygon fill="url(#SVGID_14_)" points="427.68,931 427.59,930.96 427.279,930.82 427.25,930.81 426.75,930.58 422.97,928.88 
				423.34,928.9 425.1,929 425.189,929 425.279,928.92 425.37,929 			"/>
			<linearGradient id="SVGID_15_" gradientUnits="userSpaceOnUse" x1="503.5293" y1="926.335" x2="507.1895" y2="926.335">
				<stop  offset="0.0046" style="stop-color:#002129"/>
				<stop  offset="1" style="stop-color:#001420"/>
			</linearGradient>
			<path fill="url(#SVGID_15_)" d="M507.189,925.88c-1.18,0.29-2.399,0.601-3.66,0.91C504.649,926.44,505.88,926.13,507.189,925.88z
				"/>
			<linearGradient id="SVGID_16_" gradientUnits="userSpaceOnUse" x1="1609.8301" y1="924.6699" x2="1624.0293" y2="924.6699">
				<stop  offset="0.0046" style="stop-color:#002129"/>
				<stop  offset="1" style="stop-color:#001420"/>
			</linearGradient>
			<path fill="url(#SVGID_16_)" d="M1624.029,919.34L1609.83,930C1613.99,926.12,1618.81,922.58,1624.029,919.34z"/>
			<path fill="none" d="M197.015,881.51L197,881.52v0.021c-2,3.25-8.215,11.01-12.495,16.979l-5.998-7.619l17.458-22.841
				L197.015,881.51z"/>
			<path fill="none" d="M198.16,880c0,0-0.15,0.54-1.11,1.48C197.75,880.54,198.16,880,198.16,880z"/>
			<path fill="none" d="M360.709,921c-2.359-3.27-5.259-7.89-8.509-13.43C361.24,921.05,365.859,928.13,360.709,921z"/>
			<polygon fill="none" points="425.37,929 425.189,929 425.279,928.92 			"/>
			<polygon fill="none" points="426.75,930.58 422.97,928.88 423.34,928.9 			"/>
			<polygon fill="none" points="427.68,931.2 427.3,930.85 427.34,930.87 427.59,931.09 			"/>
			<path fill="none" d="M507.189,925.88c-1.18,0.29-2.399,0.601-3.66,0.91C504.649,926.44,505.88,926.13,507.189,925.88z"/>
			<path fill="none" d="M1624.029,919.34L1609.83,930C1613.99,926.12,1618.81,922.58,1624.029,919.34z"/>
			<polygon fill="none" points="259.25,890.88 250.47,909 243.51,876.04 			"/>
			<path fill="none" d="M307.41,890.99l-0.721-0.73l0.17-0.21C307.18,890.6,307.37,890.92,307.41,890.99z"/>
			<path fill="#001420" d="M2460.005,948.33c0,0-48.327,45-116.017-54.2l-43.97-57.07l-27.979,13.98l33.311,65.979l14.65,34.99
				l-33.311,0.99l-31.97-69c0,0-21.32-3-22.661,1c-1.33,4-25.309,59-25.309,61s-67.95-152-62.621-163
				c5.331-11-63.959,27.5-63.959,27.5s42.64,115.5,61.29,134.5h-19.99l-86.6-101.75l-9.33,14.88c0,0,31.979,72.93,38.64,81.93
				s-7.99-11.029-22.65-1.029l-54.63-42.011l-7.989,37.99l-66.62-30.5L1893.629,945H1868v-51l-22.825-3l-9.077,41l-11.87-39
				l-7.938,37l-22.619-30c-11.95,2.99-11.97,22.87-11.97,23c0,0-13.04-19.84-15.991-17c-4.659,4.5-4.319,10.5-2.819,15.38
				c1.5,4.87,4.16,8.62,4.16,8.62l2.67,11l-29.31-7l2.659,10l-17.319-8l19.99-10l-27.99-37c0,0-57.101,7.65-93.7,30.33l67.06-50.33
				l-27.98-21l-34.65,30l22.65-32c-11.989-6-75.939,69-75.939,69l-13.33-5l45.301-83l-7.99-9l-66.62,83l-8-3l51.97-86l-25.319-15
				c0,0-49.301,61-55.96,92l-13.32-13l-2.67-78l-70.61,7c0,0,13.32,61,21.311,85l-46.631-80l-15.989,6c0,0,37.31,95,50.63,123
				l-379.731,17.25l-28.648-45.12l-8.99,32.94l-46.47,6.97c0,0-9.735-16.021-13.735-17.521C936.395,932.02,924,929,924,933.5
				s0,9.5,0,9.5l-20-2v-20h-16v19c0,0-10.34-34.75-15.67-28.87C867,917,852,924,852,924v20l-52.455,2l-19.898-28
				c0,0-39.928,33-39.928,30s33.339-53.5,33.339-53.5L750.419,853l-46.629,81l21.319-108c-8-4-61.29,137-61.29,137l23.98-172
				c0,0-19.98-20-23.98-14S646.5,815,646.5,815l-13.33-39.12c0,0-35.97,24.12-35.97,27.12c0,2.98,43.29,135.9,43.96,137.98
				L575.88,831l-27.98,19c0,0,28.65,61,52.96,82.5c2.471,2.18-65.27-12.22-93.55-6.65c12.771-3.18,20.749-5.18,20.749-5.18
				L446.34,794l-22.65,7c0,0,34.801,72.39,55.44,107.57c-21.36-31.88-67.44-99.57-67.44-99.57s-21.31,3-21.31,6
				c0,2.98,43.29,75.85,43.96,76.99l-54.62-55.98l-20.86,17.46L319.63,793l-22.87,7c0,0,12.16,25.29,26.36,53.23
				c-1.471,1.17-3.19,2.46-5.04,3.8c-3.08-4.54-6.11-9-9.011-13.28c-1.04-1.53-2.06-3.03-3.06-4.51
				c-12.07-17.76-21.24-31.24-21.24-31.24s-21.319,3-21.319,6c0,1.3,8.22,15.87,17.55,31.99l-5.8,11.979L252.79,835l-15.25,12.76
				L233.149,827l-2.92,26.87l-0.95,8.76l-3.92,36.15L221.33,896l-9.5-65l-18.65,1l1.65,21.3c-9.28,7.12-25.65,17.71-24.65,14.7
				c1.33-4,13.32-28,13.32-28l-22.65-9l-11.24,23.2l-1.729-2.2l-21.321,10.5l9.231,20.21L123.54,908l-17.32-82l-9.33,86l-11.99-82
				l-18.649,1l6.66,86l-51.965-66L0,861.31L-0.136,2808H2880V1001.61L2460.005,948.33z M197,881.52v0.021
				c-2,3.25-8.215,11.01-12.495,16.979l-5.998-7.619l17.461-22.841l1.045,13.45L197,881.52z M197.05,881.48
				c0.7-0.94,1.11-1.48,1.11-1.48S198.01,880.54,197.05,881.48z M250.47,909l-6.96-32.96l15.74,14.84L250.47,909z M306.689,890.26
				l0.17-0.21c0.32,0.55,0.511,0.87,0.551,0.94L306.689,890.26z M360.709,921c-2.359-3.27-5.259-7.89-8.509-13.43
				c-2.881-4.311-6.221-9.271-9.83-14.641c-5.48-8.109-11.58-17.13-17.71-26.18l3.22-4.21c5.729,11.15,11.61,22.33,17.02,32.14
				c2.561,4.66,5.021,9,7.301,12.891C361.24,921.05,365.859,928.13,360.709,921z M425.279,928.92l0.091,0.08h-0.181L425.279,928.92z
				 M422.97,928.88l0.37,0.021l3.41,1.68L422.97,928.88z M427.3,930.85l0.04,0.021l0.25,0.22l0.09,0.11L427.3,930.85z
				 M503.529,926.79c1.12-0.35,2.351-0.66,3.66-0.91C506.01,926.17,504.79,926.48,503.529,926.79z M1609.83,930
				c4.16-3.88,8.979-7.42,14.199-10.66L1609.83,930z"/>
			<g id="Florcitas">
				<g>
					<g>
						<path fill="#FFFFFF" d="M611.449,862.246c-1.896,3.456-1.5,7.546,2.673,8.87c0.829,0.263,1.571-0.305,1.845-1.048
							c0.544-1.473,0.937-3.13,0.46-4.675c-0.566-1.836-2.369-2.5-4.126-2.557c-0.817-0.026-1.501,0.702-1.5,1.5
							c0.003,1.813,0.131,3.506,1.092,5.091c0.6,0.989,1.982,0.949,2.591,0c1.233-1.924,1.719-3.815,0.445-5.848
							c-0.479-0.764-1.709-1.068-2.356-0.304c-1.112,1.314-2.07,2.996-1.766,4.781c0.311,1.819,2.026,2.561,3.713,2.446
							c1.919-0.131,1.932-3.132,0-3c-0.674,0.046-0.792,0.232-0.77-0.315c0.025-0.623,0.564-1.342,0.944-1.791
							c-0.785-0.101-1.57-0.202-2.356-0.304c0.687,1.095,0.22,1.782-0.445,2.82c0.864,0,1.727,0,2.591,0
							c-0.684-1.127-0.681-2.294-0.683-3.577c-0.5,0.5-1,1-1.5,1.5c0.747,0.024,1.295,0.086,1.344,0.897
							c0.052,0.863-0.277,1.742-0.57,2.538c0.615-0.35,1.23-0.699,1.845-1.048c-2.215-0.703-1.8-2.788-0.88-4.464
							C614.97,862.063,612.38,860.55,611.449,862.246L611.449,862.246z"/>
					</g>
				</g>
				<g>
					<g>
						<path fill="#FFFFFF" d="M608.783,881.579c-0.694,1.499-1.531,2.763-1.038,4.489c0.337,1.181,1.644,1.34,2.507,0.662
							c0.972-0.763,1.758-1.823,2.163-2.996c0.267-0.773-0.297-1.639-1.047-1.845c-0.827-0.228-1.579,0.275-1.845,1.048
							c-0.036,0.103-0.143,0.322,0.043-0.095c-0.082,0.183-0.18,0.356-0.281,0.528c-0.287,0.487-0.674,0.862-1.153,1.238
							c0.835,0.221,1.671,0.441,2.507,0.662c-0.216-0.759,0.391-1.435,0.736-2.179c0.343-0.742,0.216-1.61-0.539-2.052
							C610.181,880.657,609.126,880.837,608.783,881.579L608.783,881.579z"/>
					</g>
				</g>
				<g>
					<g>
						<path fill="#FFFFFF" d="M621.454,885.396c-0.116-0.137-0.202-0.291-0.256-0.463c-0.107-0.361-0.034-0.354-0.054-0.171
							c-0.01,0.095-0.022,0.183-0.011,0.277c0.1,0.871,0.547,1.386,1.359,1.688c0.28,0.104,0.615,0.102,0.911,0.108
							c0.692,0.016,1.085-0.453,1.454-0.957c0.235-0.322,0.445-0.664,0.614-1.026c0.346-0.74,0.534-1.489,0.355-2.302
							c-0.175-0.798-0.831-1.324-1.559-1.588c-1.207-0.438-2.61,0.225-3.505,1.004c-1.149,1-1.518,2.686-1.026,4.102
							c0.268,0.772,1.018,1.275,1.845,1.048c0.749-0.206,1.316-1.072,1.047-1.845c-0.051-0.149-0.167-0.8-0.102-0.261
							c-0.02-0.16,0.04-0.76-0.04-0.201c0.023-0.162,0.072-0.319,0.13-0.471c-0.193,0.504,0.016,0.018,0.106-0.114
							c0.152-0.223-0.245,0.299-0.071,0.096c0.057-0.067,0.12-0.128,0.183-0.189c0.047-0.045,0.097-0.086,0.147-0.128
							c-0.393,0.326-0.148,0.116-0.043,0.047c0.122-0.08,0.253-0.146,0.385-0.206c-0.516,0.232-0.06,0.038,0.09,0.001
							c0.419-0.102-0.384,0.011,0.03,0c0.405-0.009-0.391-0.105-0.017-0.005c0.124,0.033,0.293,0.144-0.194-0.087
							c0.128,0.061,0.279,0.236-0.13-0.116c0.094,0.081,0.192,0.265-0.125-0.177c0.169,0.235-0.126-0.364-0.057-0.159
							c0.04,0.119,0.046,0.35-0.017-0.206c0.008,0.074,0.004,0.149-0.001,0.223c0.04-0.57-0.013-0.039-0.077,0.142
							c-0.103,0.29,0.155-0.338,0.015-0.04c-0.057,0.12-0.122,0.236-0.188,0.352c-0.161,0.282-0.352,0.546-0.546,0.806
							c0.432-0.248,0.864-0.496,1.295-0.743c-0.209-0.013-0.215-0.006-0.017,0.021c-0.032-0.008-0.064-0.016-0.096-0.023
							c0.515,0.181,0.794,0.565,0.837,1.154c-0.01-0.092,0.014-0.192,0.024-0.283c0.053-0.509-0.199-1.094-0.576-1.43
							c-0.609-0.544-1.519-0.603-2.121,0C620.9,883.829,620.844,884.852,621.454,885.396L621.454,885.396z"/>
					</g>
				</g>
				<g>
					<g>
						<path fill="#FFFFFF" d="M612.134,891.67c0.009,1.145,0.156,2.485,1.022,3.332c0.819,0.801,2.182,0.815,2.969-0.047
							c0.765-0.838,0.799-1.961,0.35-2.958c-0.51-1.131-1.769-1.759-2.887-2.107c-0.937-0.292-1.899,0.496-1.899,1.446
							c0,0.556,0,1.111,0,1.667c0,1.935,3,1.935,3,0c0-0.556,0-1.111,0-1.667c-0.633,0.482-1.266,0.964-1.899,1.446
							c0.092,0.029,0.698,0.27,0.347,0.112c0.161,0.072,0.313,0.159,0.462,0.252c0.365,0.229-0.173-0.176,0.114,0.095
							c0.057,0.053,0.107,0.112,0.158,0.171c-0.29-0.34-0.136-0.176-0.073-0.073c0.193,0.316-0.106-0.35-0.004-0.016
							c0.102,0.337-0.017-0.409-0.008-0.073c0.009,0.333,0.094-0.415,0.015-0.104c-0.074,0.293,0.22-0.378,0.02-0.075
							c0.198-0.243,0.25-0.312,0.156-0.207c-0.087,0.095-0.263,0.172,0.182-0.134c-0.021,0.014-0.044,0.026-0.067,0.037
							c0.363-0.188,0.167-0.099,0.579-0.154c-0.275,0.037,0.444,0.112,0.172,0.024c0.427,0.138,0.335,0.156,0.207,0.07
							c0.381,0.256,0.256,0.208,0.157,0.099c0.341,0.373,0.112,0.145,0.035-0.011c0.229,0.458,0.027,0.037-0.011-0.104
							c-0.026-0.096-0.105-0.642-0.055-0.223c-0.031-0.265-0.038-0.532-0.04-0.798c-0.006-0.817-0.677-1.5-1.5-1.5
							C612.821,890.17,612.127,890.853,612.134,891.67L612.134,891.67z"/>
					</g>
				</g>
				<g>
					<g>
						<path fill="#FFFFFF" d="M626.843,898.604c-0.425,1.639-0.368,3.404,1.118,4.466c1.087,0.776,2.589,0.479,3.718-0.001
							c1.14-0.485,2.044-1.423,2.195-2.677c0.193-1.604-1.567-2.459-2.861-2.695c-0.605-0.11-1.222-0.167-1.835-0.194
							c-0.531-0.023-1.025,0.305-1.295,0.743c-0.522,0.847-0.647,1.78-0.649,2.757c-0.002,1.935,2.998,1.935,3,0
							c0-0.257,0.005-0.513,0.025-0.77c-0.023,0.286,0.065-0.204,0.068-0.216c-0.057,0.199,0.149-0.262,0.146-0.257
							c-0.432,0.248-0.864,0.496-1.295,0.743c0.204,0.009,0.408,0.021,0.611,0.037c0.11,0.009,0.221,0.021,0.331,0.033
							c0.366,0.04-0.343-0.053,0.002,0.001c0.298,0.047,0.593,0.116,0.88,0.212c0.364,0.123-0.325-0.16-0.007-0.004
							c0.137,0.067,0.459,0.321,0.001-0.04c0.056,0.044,0.106,0.096,0.153,0.15c-0.322-0.375-0.216-0.294-0.148-0.177
							c0.102,0.176-0.16-0.418-0.096-0.228c0.087,0.257-0.03-0.468-0.024-0.198c0.006,0.268,0.109-0.479,0.014-0.16
							c-0.048,0.161,0.218-0.442,0.061-0.153c-0.019,0.035-0.042,0.068-0.063,0.102c-0.118,0.177,0.271-0.338,0.133-0.171
							c-0.113,0.137-0.588,0.512-0.101,0.142c-0.148,0.112-0.309,0.208-0.474,0.295c-0.078,0.041-0.158,0.078-0.238,0.113
							c0.535-0.236,0.146-0.064,0.01-0.02c-0.177,0.058-0.859,0.167-0.216,0.083c-0.182,0.023-0.367,0.025-0.549,0.009
							c0.578,0.052,0.265,0.04,0.117,0.003c-0.045-0.011-0.089-0.026-0.133-0.041c-0.213-0.072,0.392,0.177,0.189,0.079
							c-0.068-0.033-0.132-0.075-0.194-0.119c0.45,0.321,0.175,0.136,0.07,0.01c0.347,0.415,0.146,0.189,0.075,0.053
							c-0.11-0.212,0.152,0.391,0.069,0.16c-0.019-0.054-0.033-0.11-0.048-0.166c-0.009-0.04-0.018-0.079-0.025-0.119
							c-0.051-0.262,0.045,0.417,0.021,0.14c-0.013-0.147-0.008-0.294-0.001-0.441c0.003-0.055,0.008-0.108,0.013-0.162
							c0.029-0.316-0.06,0.38-0.006,0.052c0.032-0.195,0.079-0.388,0.128-0.579c0.205-0.791-0.251-1.626-1.047-1.845
							C627.909,897.342,627.048,897.813,626.843,898.604L626.843,898.604z"/>
					</g>
				</g>
				<g>
					<g>
						<path fill="#FFFFFF" d="M561.707,886.246c-1.151,1.886-2.602,4.732-0.741,6.661c1.374,1.423,3.844,0.959,5.483,0.381
							c1.813-0.64,3.817-1.771,4.588-3.624c0.916-2.202-1.244-3.631-3.056-4.153c-2.36-0.68-5.938-0.93-7.762,1.082
							c-1.536,1.695-0.912,4.106,0.002,5.932c1.319,2.633,6.96,8.513,9.529,3.968c3.144-5.565-4.214-10.402-9.109-8.208
							c-2.88,1.29-4.169,4.123-2.904,7.026c1.335,3.064,5.513,4.523,8.59,4.265c7.297-0.613,7.236-9.871,1.012-12.183
							c-3.02-1.122-6.869-0.552-8.906,2.126c-2.093,2.753-0.883,5.962,2.035,7.446c1.72,0.876,3.238-1.712,1.514-2.59
							c-2.442-1.243-1.728-3.375,0.607-4.264c2.234-0.851,4.822,0.101,6.057,2.09c1.085,1.749,0.154,3.555-1.669,4.205
							c-2.214,0.79-5.131-0.348-6.437-2.233c-1.479-2.136,1.49-3.476,3.214-3.462c2.204,0.018,3.646,1.521,3.536,3.639
							c-0.012,0.236-0.129,0.679-0.197,0.757c0.124-0.143,0.032-0.006-0.027-0.016c-0.857-0.144-1.601-0.809-2.213-1.381
							c-1.119-1.047-2.904-3.145-2.551-4.808c0.371-1.744,4.975-0.66,5.968-0.051c-0.127-0.078,0.152-0.338-0.366,0.196
							c-0.601,0.619-1.455,1.045-2.251,1.349c-0.776,0.295-1.57,0.479-2.401,0.423c-0.013-0.001-0.298-0.182-0.128,0.039
							c-0.096-0.126-0.052-0.418,0.045-0.798c0.211-0.827,0.69-1.58,1.13-2.3C565.308,886.104,562.713,884.598,561.707,886.246
							L561.707,886.246z"/>
					</g>
				</g>
				<g>
					<g>
						<path fill="#FFFFFF" d="M697.167,936.246c-1.412,2.768-0.222,5.736,2.303,7.349c1.736,1.109,6.473,1.772,6.902-1.2
							c0.367-2.547-2.406-4.334-4.425-5.156c-1.791-0.728-4.375-0.602-6.246-0.167c-1.263,0.293-2.415,1.39-1.973,2.782
							c0.364,1.147,1.525,1.871,2.524,2.412c2.415,1.305,5.564,2.375,8.335,1.999c1.327-0.18,2.383-1.088,2.498-2.459
							c0.133-1.594-1.197-3.357-2.274-4.378c-2.141-2.029-5.788-1.438-7.339,0.965c-1.445,2.238,0.194,4.76,2.096,5.984
							c1.793,1.155,4.348,1.548,6.271,0.522c2.325-1.24,1.849-4.186,0.964-6.165c-1.477-3.3-4.808-3.945-7.461-1.573
							c-1.706,1.524-3.04,4.29-2.045,6.526c1.533,3.445,6.699,1.318,9.029,0.277c1.764-0.788,0.236-3.372-1.514-2.59
							c-1.091,0.487-2.215,0.893-3.39,1.119c-0.322,0.062-0.66,0.059-0.987,0.045c-0.252-0.011-0.208,0-0.451-0.144
							c0.072,0.042,0.058,0.088-0.052-0.121c0.058,0.11,0.02,0.113,0.011-0.134c-0.012-0.315,0.164-0.917,0.306-1.214
							c0.479-1.007,1.372-1.93,1.989-2.172c0.336-0.132,0.471-0.123,0.493-0.124c0.235-0.011,0.294,0.032,0.252,0.014
							c0.528,0.233,0.805,0.713,1.135,1.394c0.221,0.456,0.761,1.657,0.364,2.137c-0.459,0.554-1.532,0.313-2.125,0.164
							c-0.783-0.198-1.653-0.633-2.134-1.305c-0.641-0.896,0.102-1.728,1.086-1.831c1.168-0.122,1.834,0.736,2.397,1.616
							c0.179,0.279,0.311,0.565,0.335,0.634c0.114,0.326,0.067,0.107,0.062,0.128c0.056-0.222,0.232-0.331,0.22-0.323
							c-0.272,0.173,0.333-0.11,0.008,0.002c-0.101,0.035-0.207,0.056-0.312,0.078c-0.379,0.079,0.337-0.028-0.074,0.003
							c-0.13,0.01-0.262,0.009-0.392,0.009c-0.197,0-0.885-0.061-0.771-0.045c-1.599-0.223-3.307-0.794-4.606-1.421
							c-0.31-0.149-0.612-0.314-0.908-0.49c-0.424-0.252-0.437-0.277-0.577-0.4c-0.081-0.072-0.369-0.414-0.078-0.036
							c-0.232-0.301,0.048,0.227-0.012,0.038c0.098,0.309,0.023,0.555-0.092,0.754c-0.079,0.138-0.53,0.44-0.185,0.252
							c-0.341,0.186,0.408-0.088,0.606-0.123c0.22-0.038,1.021-0.066,1.45-0.072c1.569-0.02,2.932,0.15,4.191,1.178
							c0.339,0.276,0.747,0.654,0.873,1.064c-0.125-0.407,0.539-0.694,0.017-0.558c-0.44,0.115-0.987,0.018-1.419-0.07
							c-1.583-0.322-3.119-2.022-2.283-3.661C700.635,936.041,698.047,934.522,697.167,936.246L697.167,936.246z"/>
					</g>
				</g>
				<g>
					<g>
						<path fill="#FFFFFF" d="M713.156,943.246c-1.734,2.51-4.011,12.755,1.04,13.155c2.847,0.226,5.072-3.318,5.396-5.735
							c0.328-2.443-0.561-6.571-3.704-6.656c-3.018-0.082-5.653,3.553-5.849,6.346c-0.161,2.3,1.363,4.015,3.465,4.698
							c1.934,0.628,4.355,0.115,5.721-1.418c1.992-2.236,0.91-5.396-0.453-7.639c-1.718-2.83-5.05-3.498-6.666-0.221
							c-1.333,2.703-1.298,6.677,0.84,8.955c0.67,0.714,1.872,0.505,2.356-0.304c1.377-2.301,1.533-4.801,1.537-7.424
							c0.003-1.935-2.997-1.935-3,0c-0.003,2.086-0.026,4.07-1.127,5.91c0.786-0.102,1.571-0.203,2.356-0.304
							c-1.201-1.28-1.013-3.815-0.371-5.319c0.278-0.652,0.419-0.942,0.708-0.71c1.02,0.819,1.63,2.313,1.899,3.559
							c0.569,2.628-4.101,2.921-4.282,0.716c-0.089-1.084,2.103-4.912,3.085-3.527c1.379,1.942,0.361,4.709-1.435,5.927
							c-0.328,0.222-0.423,0.083-0.041,0.246c0.039,0.017-0.132-0.295-0.17-0.414c-0.293-0.92-0.233-1.953-0.184-2.903
							c0.092-1.789,0.428-3.918,1.468-5.423C716.85,943.164,714.248,941.666,713.156,943.246L713.156,943.246z"/>
					</g>
				</g>
				<g>
					<g>
						<path fill="#FFFFFF" d="M692.518,948.275c-1.537,1.253-3.233,3.089-2.656,5.245c0.456,1.703,2.259,2.379,3.823,2.57
							c1.506,0.184,3.322-0.337,4.322-1.518c1.475-1.744,0.934-4.209-0.686-5.649c-2.062-1.833-5.33-1.522-7.183,0.431
							c-1.925,2.028-1.258,5.194,1.094,6.526c2.241,1.269,5.208,0.433,6.874-1.374c1.919-2.083,1.354-5.125-1.272-6.225
							c-3.52-1.474-7.661,2.005-6.255,5.733c1.591,4.219,7.93,2.296,7.916-1.858c-0.014-4.228-6.125-5.851-8.263-2.191
							c-0.994,1.701-0.215,3.49,1.497,4.308c1.973,0.943,4.395,0.57,6.158-0.642c1.583-1.087,0.085-3.689-1.514-2.59
							c-0.998,0.685-2.042,0.936-3.215,0.594c-0.482-0.141-0.334-0.434-0.411-0.05c0.084-0.424,0.948-0.702,1.302-0.72
							c0.822-0.042,1.444,0.814,1.447,1.556c0.002,0.785-1.473,1.304-1.996,0.785c-1.247-1.237,1.462-3.001,2.676-1.851
							c0.592,0.561-0.632,1.491-1.027,1.734c-0.678,0.416-1.669,0.542-2.402,0.201c-0.721-0.335-1.004-1.163-0.487-1.814
							c0.619-0.78,1.636-0.907,2.534-0.638c0.701,0.209,1.165,1.056,1.095,1.452c-0.059,0.334-0.186,0.427-0.671,0.665
							c-0.281,0.138-0.824,0.178-1.365,0.15c-0.162-0.008-0.276-0.037-0.57-0.119c-0.034-0.009-0.486-0.239-0.389-0.161
							c-0.215-0.173-0.188-0.238-0.138-0.102c-0.053-0.146-0.065,0.011,0.066-0.388c0.245-0.746,1.222-1.452,1.818-1.938
							C696.139,949.173,694.003,947.064,692.518,948.275L692.518,948.275z"/>
					</g>
				</g>
				<g>
					<g>
						<path fill="#FFFFFF" d="M698.945,936.913c-1.748,2.263-1.895,5.818,1.757,5.879c3.53,0.059,3.712-3.673,2.461-6.102
							c-1.777-3.451-7.56-1.96-8.729,1.239c-1.319,3.608,3.034,5.506,5.921,4.812c2.707-0.651,4.981-4.271,2.554-6.482
							c-1.975-1.8-5.377-1.241-7.025,0.693c-1.898,2.228-1.51,5.766,1.116,7.187c2.271,1.228,5.44,0.65,7.254-1.115
							c1.565-1.523,1.489-4.221,0.031-5.784c-1.552-1.665-3.974-2.1-6.153-1.834c-2.086,0.254-4.397,1.212-5.219,3.302
							c-0.864,2.196,0.543,4.6,2.494,5.636c4.316,2.292,11.492-1.146,10.113-6.519c-0.546-2.129-2.862-3.577-4.998-3.326
							c-2.727,0.32-3.645,2.813-3.061,5.236c0.453,1.88,3.346,1.083,2.893-0.798c-0.609-2.527,2.705-1.324,2.362,0.666
							c-0.401,2.326-4.408,2.887-6.103,1.986c-2.592-1.376,0.408-3.048,1.86-3.225c1.09-0.132,5.373,0.549,3.661,2.539
							c-0.823,0.956-3.768,1.469-4.356-0.024c-0.659-1.672,2.138-3.939,3.218-2.288c0.351,0.538-1.93,1.457-2.707,1.305
							c-2.415-0.475,0.172-2.111,1.392-2.198c0.766-0.054,1.022,0.709,1.186,1.301c0.07,0.331,0.102,0.666,0.094,1.004
							c-0.016-0.473,0.26-0.36,0.04-0.276c-0.191,0.073-0.434,0.113-0.621,0.015c0.363,0.192,0.07,0.487,0.317-0.068
							c0.202-0.455,0.539-0.856,0.84-1.247C702.718,936.896,700.109,935.405,698.945,936.913L698.945,936.913z"/>
					</g>
				</g>
				<g>
					<g>
						<path fill="#FFFFFF" d="M597.569,952.178c-4.173,1.144-7.351,5.458-7.351,9.825c0,6.532,5.67,9.977,11.424,10.671
							c11.83,1.428,15.236-13.391,16.051-22.004c-2.093,2.094-4.187,4.187-6.28,6.28c2.605,0.127,4.171,3.642,5.809,5.381
							c2.929,3.111,8.156,5.14,12.4,4.135c4.332-1.024,6.891-5.635,5.267-9.833c-0.732-1.892-1.758-3.281-3.006-4.866
							c-0.462-0.586-2.402-3.078-2.166-2.505c-1.234-2.984-4.454-6.025-8.053-4.572c-3.448,1.393-12.22,5.377-13.779-0.075
							c-2.081,2.731-4.162,5.463-6.242,8.194c0.65-0.037,1.663-0.298,2.264-0.188c4.706,0.867,9.497-2.911,8.019-8.019
							c-0.635-2.196-1.733-4.217-3.865-5.263c-6.845-3.356-12.759,4.557-7.947,10.3c1.612,1.925,3.504,3.058,5.928,3.679
							c3.423,0.877,6.308-1.622,6.542-4.983c0.225-3.227-1.055-5.64-3.196-7.97c-2.649,3.433-5.298,6.867-7.947,10.3
							c-0.696-0.866-1.392-1.731-2.087-2.597c2.673-2.673,5.346-5.346,8.019-8.019c-1.981-0.272-3.746-0.289-5.73-0.188
							c-4.153,0.211-7.423,3.979-6.242,8.194c3.908,13.949,18.5,13.644,29.744,9.259c-2.684-1.524-5.369-3.048-8.053-4.572
							c1.061,2.667,2.56,4.625,4.326,6.875c0.525,0.669,0.98,1.365,1.393,2.108c5.892-4.763,7.203-7.501,3.933-8.212
							c-0.167-0.058-0.325-0.135-0.474-0.23c-1.963-1.621-3.307-3.837-5.329-5.423c-2.907-2.28-5.855-3.218-9.527-3.472
							c-3.699-0.256-5.912,3.073-6.28,6.28c-0.29,2.522-1.017,6.266-2.652,8.974c-0.708,1.174-2.142-0.965-0.71,0.938
							c-0.812-1.079-0.082-2.854,0.253-3.949C602.839,953.967,600.172,951.464,597.569,952.178L597.569,952.178z"/>
					</g>
				</g>
				<g>
					<g>
						<path fill="#FFE2D0" d="M1232.072,953.901c1.235,0.155,1.204,0.114-0.094-0.123c1.262,2.222,2.522,4.443,3.784,6.665
							c0.282-1.141,0.155-1.102-0.38,0.119c0.514-0.328,1.351-0.284,1.944-0.328c1.871-0.14,3.661,0.126,5.451,0.637
							c1.829,0.522,3.192,1.984,5.106,2.496c2.572,0.687,5.552,0.013,8.012-0.771c7.101-2.261,4.064-13.463-3.084-11.188
							c-0.769,0.292-1.56,0.495-2.374,0.605c0.776,0.361,0.764,0.298-0.036-0.187c-1.38-0.95-3-1.493-4.571-2.026
							c-2.625-0.891-5.767-0.938-8.504-0.788c-6.1,0.336-11.806,3.355-12.207,9.99c-0.273,4.526,4.708,6.18,8.152,4.678
							c1.716-0.748,2.654-1.974,3.604-3.531C1238.936,956.772,1235.574,953.185,1232.072,953.901L1232.072,953.901z"/>
					</g>
				</g>
				<g>
					<g>
						<path fill="#FFE2D0" d="M1248.371,950.003c0.04-0.654,0.232-2.081,0.406-2.214c-0.773,0.119-0.783,0.135-0.03,0.047
							c0.619,0.008,1.205-0.116,1.758-0.373c0.551-0.208,1.198-0.344,1.777-0.416c1.848-0.23,3.621-0.279,5.346-1.041
							c2.183-0.964,3.839-3.767,2.846-6.124c-0.832-1.978-2.979-4.053-5.388-3.06c-0.983,0.405-1.704,0.75-2.474,1.501
							c1.219-0.633,1.424-0.792,0.613-0.477c-0.99,0.345,0.23,0.063-0.943,0.199c-2.235,0.258-4.994,0.473-6.717,2.106
							c-1.149,1.09-2.418,2.268-3.277,3.715c-1.077,1.814-1.218,4.082-1.159,6.134
							C1241.263,954.699,1248.09,954.64,1248.371,950.003L1248.371,950.003z"/>
					</g>
				</g>
				<g>
					<g>
						<path fill="#FFE2D0" d="M1240.647,942.246c-0.614-1.225-1.365-2.203-2.354-3.152c-0.402-0.386-0.795-0.781-1.177-1.187
							c-0.229-0.242-0.441-0.497-0.653-0.752c0.726,0.876,0.046,0.014-0.078-0.155c-1.441-1.978-3.878-2.949-6.156-1.615
							c-1.006,0.59-1.759,1.564-2.068,2.689c-0.466,1.695,0.134,3.072,1.157,4.378c0.895,1.142,2.184,2.007,3.351,2.84
							c0.544,0.388,1.101,0.758,1.654,1.13c0.656,0.44,1.649,0.634,2.396,0.936c1.113,0.45,2.586-0.095,3.386-0.896
							C1241.263,945.305,1241.355,943.657,1240.647,942.246L1240.647,942.246z"/>
					</g>
				</g>
				<g>
					<g>
						<path fill="#FFE2D0" d="M1271,913.279c-4.566-1.312-8.745-2.277-12.779-4.936c-3.557-2.343-5.042-5.98-6.741-9.65
							c-2.378-5.138-10.662-2.532-10.461,2.833c0.256,6.814,5.998,11.155,11.077,14.731c5.552,3.908,13.348,6.566,19.744,3.447
							C1274.678,918.32,1273.752,914.069,1271,913.279L1271,913.279z"/>
					</g>
				</g>
				<g>
					<g>
						<path fill="#FFE2D0" d="M1274.292,917.051c-2.98-5.643-6.108-11.413-8.061-17.501c-0.925-2.885-1.598-5.875-2.262-8.828
							c-0.982-4.362,1.763,0.772-4.271,1.542c-0.7,0.09-1.353-0.746-0.235,0.408c1.379,1.425-0.846,9.256-0.895,11.193
							c-0.152,6.142,2.786,11.341,7.968,14.509c4.069,2.488,8.815-0.027,10.271-4.179c1.5-4.275,0.331-13.616,5.314-15.508
							c-2.248-0.594-4.496-1.188-6.744-1.783c2.266,1.908,0.489,0.909,0.847-1.308c-0.119,0.742,0.029,0.127-0.751,0.971
							c-2.142,2.314-4.825,4.144-7.252,6.14c-5.864,4.825-10.384,13.125-2.646,18.7c3.256,2.347,8.309-0.063,9.192-3.74
							c0.201-0.838,0.499-1.676,0.795-2.489c-0.661,1.814,0.733-0.666-0.144,0.403c0.493-0.602,1.07-1.139,1.629-1.678
							c2.487-2.401,5.323-4.409,7.794-6.835c5.897-5.79,7.072-14.258,0.339-19.966c-1.792-1.519-4.349-2.683-6.744-1.783
							c-6.068,2.283-9.678,5.759-12.173,11.711c-1.78,4.247-1.369,9.114-2.94,13.447c3.424-1.393,6.848-2.786,10.271-4.179
							c-1.962-1.228-0.766-5.132-0.534-7.035c0.419-3.452,0.672-6.673-0.216-10.089c-1.799-6.929-8.688-11.262-15.56-10.183
							c-9.476,1.488-6.72,13.747-5.003,19.69c2.804,9.705,8.024,18.354,16.719,23.66
							C1272.442,924.442,1276.046,920.371,1274.292,917.051L1274.292,917.051z"/>
					</g>
				</g>
				<g>
					<g>
						<path fill="#FFE2D0" d="M1341.264,945.997c-10.418,3.862-17.496,24.902-2.801,28.068c8.641,1.862,14.81-3.704,16.213-11.791
							c0.389-2.236-0.353,0.495-1.668,0.195c1.452,0.331,2.745,1.245,4.234,1.557c5.494,1.152,9.358-2.155,12.242-6.428
							c-3.248,0.852-6.497,1.704-9.745,2.555c5.142,2.435,11.183,2.787,14.383-2.844c2.255-3.967,1.053-8.725,0.178-12.894
							c-0.882-4.201-5.193-5.578-8.89-5.048c-4.096,0.588-7.846,2.972-11.537,4.719c-2.996,1.418-1.013-0.25-0.115,2.098
							c-0.42-1.097,0.146-2.276,0.005-3.596c-0.571-5.353-7.135-9.51-11.474-4.752c-5.26,5.767-2.913,16.676,4.1,20.028
							c8.606,4.114,14.856-3.456,22.863-4.559c-2.963-1.683-5.926-3.365-8.89-5.048c0.159,0.778,0.331,1.554,0.487,2.333
							c0.155,0.872,0.176,0.99,0.063,0.355c0.011,0.252,0.021,0.503,0.033,0.755c-0.236,3.136,1.759,1.854,5.983-3.848
							c-3.652-1.585-7.495-1.027-9.745,2.555c0.907-1.445,4.77,0.704,1.314-0.697c-0.918-0.372-1.784-0.663-2.752-0.876
							c-2.701-0.595-6.114-0.279-8.511,1.221c-4.356,2.727-5.467,6.479-6.382,11.229c-0.454,2.355,3.462-1.413,0.398-0.645
							c-0.312,0.078,1.687,1.198,1.429,0.993c0.263,0.478,0.525,0.957,0.788,1.435c-0.197-0.757-0.225-0.838-0.082-0.245
							c-0.048-0.769,0.084-1.564,0.157-2.327c0.21-2.19,1.715-6.06,2.802-7.889C1348.243,949.414,1345.08,944.582,1341.264,945.997
							L1341.264,945.997z"/>
					</g>
				</g>
				<g>
					<g>
						<path fill="#FFE2D0" d="M1339.798,898.542c-1.454,0.976-2.86,2.439-3.253,4.218c-0.345,1.561-0.091,2.918,0.62,4.333
							c0.55,1.094,1.883,2.309,3.137,2.498c0.483,0.073,0.968,0.14,1.453,0.197c0.309,0,1.065-0.113,1.543-0.219
							c1.2-0.267,2.294-1.192,2.903-2.232c0.817-1.395,0.983-3.526,0-4.904c-0.313-0.439-0.625-0.881-0.984-1.285
							c-0.695-0.782-1.605-1.042-2.535-1.383c0.393,0.166,0.784,0.331,1.177,0.497c-0.088-0.041-0.163-0.084-0.241-0.141
							c0.324,0.251,0.649,0.502,0.974,0.753c-0.046-0.037-0.088-0.079-0.126-0.124c0.248,0.32,0.495,0.64,0.742,0.96
							c-0.054-0.073-0.097-0.143-0.135-0.226c0.156,0.37,0.312,0.739,0.468,1.108c-0.032-0.088-0.054-0.171-0.069-0.264
							c0.054,0.402,0.107,0.803,0.162,1.205c-0.001-0.033-0.002-0.066-0.003-0.1c-0.054,0.399-0.107,0.797-0.16,1.196
							c0.019-0.07,0.042-0.139,0.069-0.206c-0.15,0.356-0.301,0.714-0.451,1.07c0.087-0.191,0.194-0.361,0.322-0.528
							c-0.231,0.299-0.462,0.599-0.693,0.898c0.127-0.149,0.261-0.286,0.406-0.418c1.452-1.317,1.648-3.684,0.688-5.325
							C1344.656,898.148,1341.789,897.205,1339.798,898.542L1339.798,898.542z"/>
					</g>
				</g>
				<g>
					<g>
						<path fill="#FFE2D0" d="M1337.516,887.336c0.017,0.074,0.018,0.148,0.002,0.222c0.053-0.394,0.105-0.788,0.158-1.181
							c-0.224,0.931-0.385,1.798-0.082,2.754c0.339,1.067,0.972,1.962,1.95,2.536c1.077,0.63,2.085,0.601,3.27,0.428
							c0.866-0.126,1.593-0.732,2.205-1.306c0.734-0.688,0.966-1.353,1.336-2.256c0.433-1.054,0.096-2.53-0.453-3.468
							c-0.589-1.006-1.564-1.758-2.689-2.068c-1.161-0.319-2.429-0.155-3.468,0.454
							C1338.498,884.181,1337.338,885.813,1337.516,887.336L1337.516,887.336z"/>
					</g>
				</g>
				<g>
					<g>
						<path fill="#FFE2D0" d="M1329.952,870.487c-0.712,0.628-0.968,1.289-1.303,2.141c-0.329,0.836-0.183,1.711-0.039,2.555
							c0.347,2.032,2.455,3.51,4.439,3.51c1.543,0,2.968-0.778,3.769-2.102c0.23-0.381,0.443-0.789,0.52-1.231
							c0.214-0.797,0.214-1.595,0-2.392c-0.027-0.057-0.044-0.115-0.049-0.177c0.054,0.399,0.107,0.797,0.16,1.196
							c0.003-0.028,0.005-0.055,0.008-0.083c-0.054,0.398-0.107,0.797-0.161,1.196c0.011-0.027,0.021-0.054,0.031-0.08
							c-0.151,0.358-0.302,0.717-0.453,1.075c0.02-0.026,0.039-0.052,0.058-0.078c-0.234,0.304-0.469,0.607-0.703,0.911
							c0.029-0.026,0.059-0.051,0.087-0.078c1.839-1.625,1.654-4.71,0-6.363c-0.84-0.84-1.993-1.318-3.182-1.318
							C1331.884,869.169,1330.867,869.678,1329.952,870.487L1329.952,870.487z"/>
					</g>
				</g>
				<g>
					<g>
						<path fill="#FFE2D0" d="M1349.959,872.45c-0.062,0.046-0.123,0.093-0.185,0.139c-0.048,0.036-0.096,0.072-0.144,0.108
							c-0.941,0.707-0.944,0.713-1.655,1.669c-0.927,1.245-0.741,3.256,0,4.521c0.948,1.618,3.197,2.751,5.059,2.058
							c0.588-0.219,1.011-0.381,1.468-0.724c0.98-0.737,1.729-1.459,2.067-2.689c0.32-1.161,0.155-2.428-0.453-3.468
							c-0.589-1.006-1.564-1.758-2.689-2.068C1352.375,871.708,1350.872,871.765,1349.959,872.45L1349.959,872.45z"/>
					</g>
				</g>
				<g>
					<g>
						<path fill="#FFE2D0" d="M1491.689,881.17c2.453,0,4.5-2.047,4.5-4.5s-2.047-4.5-4.5-4.5s-4.5,2.047-4.5,4.5
							S1489.236,881.17,1491.689,881.17L1491.689,881.17z"/>
					</g>
				</g>
				<g>
					<g>
						<path fill="#FFE2D0" d="M1475.206,867.117c-0.044,0.029-0.088,0.059-0.132,0.087c0.357-0.151,0.716-0.302,1.074-0.454
							c-0.034,0.015-0.068,0.029-0.103,0.043c0.398-0.054,0.797-0.107,1.196-0.161c-0.026,0.001-0.052,0.003-0.078,0.005
							c0.757,0.205,1.515,0.409,2.271,0.614c-0.9-0.451-1.347-0.602-2.364-0.644c-0.803,0.002-1.551,0.205-2.244,0.607
							c-1.054,0.617-1.645,1.534-2.043,2.657c-0.005,0.014-0.01,0.027-0.015,0.041c-0.638,1.794,0.374,4.233,2.068,5.082
							c1.58,0.792,3.385,0.896,4.911-0.107c2.044-1.346,2.903-3.956,1.614-6.157
							C1480.174,866.701,1477.258,865.767,1475.206,867.117L1475.206,867.117z"/>
					</g>
				</g>
				<g>
					<g>
						<path fill="#FFE2D0" d="M1477.591,860.003c0.081,0.684,0.178,1.366,0.272,2.048c0.161,1.153,0.973,2.065,1.651,2.931
							c0.37,0.472,0.762,0.909,1.223,1.294c1.232,1.026,2.135,1.632,3.688,2.131c1.407,0.451,2.888,0.267,4.295,0
							c2.703-0.511,4.593-3.423,4.593-6.032c0-3.326-2.846-6.367-6.256-6.256c-0.127,0.009-0.254,0.008-0.381-0.002
							c0.558,0.075,1.114,0.149,1.671,0.224c-0.393-0.053-0.771-0.179-1.142-0.318c0.5,0.211,1.001,0.423,1.501,0.634
							c-0.436-0.193-0.823-0.438-1.204-0.724c0.415,0.321,0.831,0.643,1.247,0.963c-0.591-0.473-1.209-1.166-1.854-1.481
							c-0.695-0.339-1.407-0.629-2.141-0.87c-1.408-0.462-3.106-0.165-4.361,0.57
							C1478.828,856.033,1477.365,858.088,1477.591,860.003L1477.591,860.003z"/>
					</g>
				</g>
				<g>
					<g>
						<path fill="#FFE2D0" d="M1496.131,851.433c5.713,0,5.713-8.859,0-8.859S1490.418,851.433,1496.131,851.433L1496.131,851.433z"
							/>
					</g>
				</g>
				<g>
					<g>
						<path fill="#FFE2D0" d="M1510.411,864.913c0.008-0.037,0.016-0.073,0.023-0.109c-0.157,0.373-0.315,0.746-0.473,1.119
							c0.244-0.539,0.447-0.664,0.663-1.447c0.142-0.516,0.152-1.054,0.19-1.584c0.112-1.558-0.941-3.146-2.241-3.907
							c-0.706-0.409-1.468-0.615-2.284-0.618c-0.401,0.054-0.802,0.108-1.203,0.162c-0.767,0.215-1.433,0.603-1.997,1.164
							c-0.031,0.025-0.063,0.05-0.095,0.075c0.309-0.239,0.617-0.477,0.926-0.715c-1.767,0.963-2.574,2.684-2.694,4.618
							c-0.128,2.058,1.521,3.983,3.433,4.509C1507.005,868.824,1509.881,867.406,1510.411,864.913L1510.411,864.913z"/>
					</g>
				</g>
				<g>
					<g>
						<path fill="#FFE2D0" d="M1652.467,891.17c2.453,0,4.5-2.047,4.5-4.5s-2.047-4.5-4.5-4.5s-4.5,2.047-4.5,4.5
							S1650.014,891.17,1652.467,891.17L1652.467,891.17z"/>
					</g>
				</g>
				<g>
					<g>
						<path fill="#FFE2D0" d="M1631.25,912.199c0.193,1.348,1.386,2.624,2.529,3.257c2.146,1.189,4.896,0.537,6.156-1.614
							c1.218-2.079,0.528-4.97-1.614-6.157c-0.086-0.04-0.165-0.091-0.236-0.153c0.304,0.235,0.606,0.469,0.91,0.704
							c-0.03-0.031-0.062-0.063-0.093-0.095c0.234,0.304,0.47,0.607,0.704,0.911c-0.023-0.034-0.047-0.068-0.071-0.103
							c0.151,0.358,0.303,0.717,0.454,1.075c-0.039-0.068-0.06-0.141-0.062-0.219c-0.155-1.086-1.166-2.161-2.067-2.689
							c-1.04-0.608-2.307-0.773-3.468-0.454c-1.125,0.31-2.1,1.062-2.689,2.068c-0.151,0.358-0.303,0.717-0.453,1.075
							C1631.035,910.604,1631.035,911.401,1631.25,912.199L1631.25,912.199z"/>
					</g>
				</g>
				<g>
					<g>
						<path fill="#FFE2D0" d="M1658.813,924.003c-0.004-0.033-0.009-0.066-0.014-0.1c-0.054,0.402-0.107,0.805-0.162,1.207
							c0.006-0.029,0.011-0.058,0.017-0.087c-0.152,0.359-0.304,0.719-0.455,1.079c0.05-0.106,0.119-0.195,0.184-0.292
							c1.093-1.638,0.65-4.008-0.689-5.348c-0.551-0.547-1.2-0.925-1.947-1.135c-0.392-0.052-0.782-0.104-1.173-0.157
							c-0.797,0.002-1.539,0.203-2.228,0.603c-0.027,0.012-0.056,0.024-0.083,0.036c0.354-0.149,0.707-0.299,1.061-0.447
							c-1.214,0.456-2.439,1.084-3.026,2.334c-0.541,1.152-0.81,2.254-0.461,3.521c0.423,1.536,1.656,2.77,3.192,3.192
							c1.18,0.324,2.466,0.157,3.521-0.461c0.687-0.406,1.233-0.953,1.64-1.64C1658.602,925.597,1658.81,924.828,1658.813,924.003
							L1658.813,924.003z"/>
					</g>
				</g>
				<g>
					<g>
						<path fill="#FFE2D0" d="M1660.116,906.799c-0.063,0.1-0.125,0.198-0.18,0.303c-0.823,1.568-0.916,3.376,0,4.939
							c0.435,0.735,1.021,1.321,1.755,1.755c1.043,0.611,2.6,0.939,3.771,0.493c0.109-0.041,0.22-0.073,0.331-0.105
							c3.108-0.909,4.668-4.546,3.005-7.385c-0.896-1.529-2.567-2.49-4.341-2.49
							C1662.643,904.309,1661.065,905.284,1660.116,906.799L1660.116,906.799z"/>
					</g>
				</g>
				<g>
					<g>
						<path fill="#FFE2D0" d="M1679.044,922.247c0.085-0.035,0.174-0.058,0.266-0.07c-0.41,0.055-0.821,0.11-1.231,0.165
							c0.485-0.051,1.078-0.019,1.495-0.185c0.425-0.17,0.854-0.33,1.262-0.538c0.962-0.491,1.69-1.543,1.971-2.563
							c0.331-1.205,0.06-2.207-0.433-3.304c-0.394-0.878-1.351-1.747-2.195-2.181c-1.158-0.594-2.376-0.831-3.657-0.479
							c-1.595,0.439-2.876,1.72-3.314,3.315c-0.45,1.634,0.023,3.421,1.22,4.618C1675.576,922.175,1677.46,922.772,1679.044,922.247
							L1679.044,922.247z"/>
					</g>
				</g>
				<g>
					<g>
						<path fill="#FFE2D0" d="M1815.02,921.503c-3.713-0.319-8.977-2.258-12.307,0.068c-2.933,2.049-4.24,6.578-1.195,9.274
							c3.663,3.242,7.371,3.253,12.014,2.841c1.5-0.027,1.063-0.744-1.314-2.152c0.104,1.329,0.083,2.569,0.295,3.901
							c0.365,2.295,1.442,3.958,2.894,5.734c2.162,2.648,6.782,2.322,9,0c1.182-1.236,2.203-2.606,3.069-4.079
							c-0.077,0.131,1.254-1.867,0.609-1.122c-1.293,1.494-2.682,0.416,0.34,1.188c6.159,1.574,10.775-6.082,6.211-10.668
							c-1.661-1.669-3.752-2.756-5.822-3.821c-1.145-0.589-2.282-1.181-3.403-1.813c-0.51-0.293-1.006-0.608-1.487-0.945
							c1.426,0.952,0.333,5.371,1.161,3.189c1.871-4.931-4.614-9.559-8.823-6.783c-4.986,3.289-4.83,9.206-0.713,13.152
							c2.711,2.6,8.19,4.179,10.061,6.048c2.07-3.557,4.141-7.112,6.211-10.668c-3.811-0.962-7.39-1.268-10.941,0.677
							c-2.754,1.509-3.487,4.555-5.472,6.644c3,0,6,0,9,0c0.547,0.804,0.669,0.592,0.368-0.635c-0.069-1.25-0.28-2.493-0.621-3.693
							c-0.668-2.354-2.362-3.782-4.226-5.194c-3.273-2.48-9.035,0.628-11.253-1.076c0.398,3.091,0.797,6.183,1.195,9.274
							c0.541-0.465,0.345-0.175-0.59,0.87c1.924-0.361,3.792-0.972,5.74-1.212C1820.721,929.801,1820.896,922.008,1815.02,921.503
							L1815.02,921.503z"/>
					</g>
				</g>
				<g>
					<g>
						<path fill="#FFE2D0" d="M539.018,891.308c4.262,0,4.262-6.609,0-6.609S534.755,891.308,539.018,891.308L539.018,891.308z"/>
					</g>
				</g>
				<g>
					<g>
						<path fill="#FFE2D0" d="M525.249,912.922c1.955,0,3.586-1.631,3.586-3.586s-1.631-3.586-3.586-3.586s-3.586,1.631-3.586,3.586
							S523.294,912.922,525.249,912.922L525.249,912.922z"/>
					</g>
				</g>
				<g>
					<g>
						<path fill="#FFE2D0" d="M593.207,954.01c-9.601,9.963,0.924,22.757,12.9,21.573c12.536-1.24,17.954-17.536,4.507-22.438
							c-4.771-1.739-12.646-3.025-17.255-0.196c-5.557,3.412-5.262,11.83,1.759,13.218c4.932,0.975,13.281-1.205,14.61-6.879
							c0.809-3.455,0.236-6.195-1.491-9.271c-1.954-3.478-2.721-7.115-3.794-10.976c-1.971,2.587-3.941,5.174-5.912,7.761
							c1.699-0.04,3.534,0.162,4.935,1.263c1,0.785,0.712,4.207,1.517,5.524c2.008,3.289,5.159,5.834,9.168,5.827
							c3.367-0.005,5.873-2.336,7.704-4.894c0.651-0.909,1.085-1.606,1.646-2.209c-0.585,0.516-1.328,0.676-2.228,0.482
							c2.713,0.48,0.679-5.771-0.792-3.47c-1.325,2.072-3.424,3.533-4.619,5.76c-1.738,3.24-1.318,8.669,1.73,11.136
							c3.265,2.643,6.437,3.044,10.492,2.222c1.577-0.319,3.109-0.998,4.609-1.561c0.667-0.25,3.55-0.631,1.884-1.012
							c8.063,1.843,11.413-10.115,3.418-12.398c1.154,1.557,1.1,1.505-0.164-0.152c-0.681-0.681-1.539-1.186-2.386-1.627
							c-2.974-1.548-7.065-0.307-7.901,3.215c-1.339,5.635,1.68,9.46,7.033,10.963c1.139-4.133,2.279-8.266,3.418-12.398
							c-3.072-0.688-5.832-0.03-8.713,1.037c-1.528,0.566-3.032,1.148-4.604,1.583c0.65,1.097,1.604,1.941,2.86,2.534
							c0.617,1.529-1.246,3.347,0.101,1.779c5.03-5.853,8.801-12.793,0.863-18.279c-3.521-2.434-7.885-2.296-11.591-0.62
							c-2.375,1.075-4.441,4.632-5.41,5.873c-1.516,1.456-0.153,1.39,4.088-0.198c1.293,0.673,0.434-0.447,0.265-1.663
							c-0.342-2.465-1.977-4.491-3.6-6.24c-3.271-3.524-9.12-4.922-13.722-4.737c-3.898,0.156-7.081,3.808-5.912,7.761
							c1.165,3.939,1.992,8.072,3.857,11.754c1.779,3.513,0.775,0.473,3-0.398c-2.572,1.007-1.712-1.202,0.448,1.445
							c0.608,1.469,1.217,2.938,1.825,4.406c-0.164,4.686-3.966,4.261-1.306,3.942c1.225-0.146,2.595-0.159,3.817,0.03
							c1.003,0.156,2.494,0.328,3.306,1.008c-0.503-0.422,0.235-1.686-0.26-1.103c-2.896,3.412-10.763-0.278-8.19-4.817
							C601.206,954.88,596.216,950.888,593.207,954.01L593.207,954.01z"/>
					</g>
				</g>
				<g>
					<g>
						<path fill="#FFE2D0" d="M666.039,887.326c4.716,0,4.716-7.313,0-7.313S661.323,887.326,666.039,887.326L666.039,887.326z"/>
					</g>
				</g>
				<g>
					<g>
						<path fill="#FFE2D0" d="M676.256,867.766c5.713,0,5.713-8.859,0-8.859S670.543,867.766,676.256,867.766L676.256,867.766z"/>
					</g>
				</g>
				<g>
					<g>
						<path fill="#FFE2D0" d="M685.583,868.57c1.763,0,3.234-1.471,3.234-3.234s-1.471-3.234-3.234-3.234s-3.234,1.471-3.234,3.234
							S683.82,868.57,685.583,868.57L685.583,868.57z"/>
					</g>
				</g>
				<g>
					<g>
						<path fill="#FFE2D0" d="M548.346,923.729c3.945,0,3.945-6.117,0-6.117S544.401,923.729,548.346,923.729L548.346,923.729z"/>
					</g>
				</g>
				<g>
					<g>
						<path fill="#FFE2D0" d="M518.588,945.257c5.486,0,5.486-8.508,0-8.508S513.102,945.257,518.588,945.257L518.588,945.257z"/>
					</g>
				</g>
				<g>
					<g>
						<path fill="#FFE2D0" d="M1152.35,919.09c-0.073-0.042-0.146-0.086-0.217-0.131c-1.787-1.105-4.136,0.329-4.136,2.373
							c0,2.115,2.326,3.384,4.136,2.374c0.073-0.04,0.146-0.081,0.217-0.124C1154.044,922.593,1154.026,920.083,1152.35,919.09
							L1152.35,919.09z"/>
					</g>
				</g>
				<g>
					<g>
						<path fill="#FFE2D0" d="M1142.154,907.413c4.398,0,4.398-6.82,0-6.82S1137.756,907.413,1142.154,907.413L1142.154,907.413z"/>
					</g>
				</g>
				<g>
					<g>
						<path fill="#FFE2D0" d="M1158.143,898.027c2.013,0,3.691-1.679,3.691-3.691s-1.679-3.691-3.691-3.691
							s-3.691,1.679-3.691,3.691S1156.13,898.027,1158.143,898.027L1158.143,898.027z"/>
					</g>
				</g>
				<g>
					<g>
						<path fill="#FFE2D0" d="M1164.359,912.886c1.571,0,2.883-1.312,2.883-2.883s-1.312-2.883-2.883-2.883
							s-2.883,1.312-2.883,2.883S1162.788,912.886,1164.359,912.886L1164.359,912.886z"/>
					</g>
				</g>
				<g>
					<g>
						<path fill="#F8AD3B" d="M1262.731,914.1c1.141,0.734,2.189,1.426,3.473,1.909c1.789,0.673,4.231-0.404,5.082-2.068
							c0.951-1.862,1.284-3.533,0.996-5.611c-0.271-1.954-1.723-3.398-3.237-4.492c0.689,0.896,1.379,1.793,2.068,2.689
							c-0.549-1.509-1.2-2.493-2.595-3.383c-1.447-0.922-3.446-0.851-4.9,0c-1.608,0.943-2.196,2.433-2.403,4.191
							c-0.242,2.049,0.29,3.807,1.283,5.605c1.113,2.019,3.64,2.975,5.829,2.372c2.151-0.592,3.876-2.695,3.79-4.978
							c-0.052-1.379-0.289-2.45-0.886-3.679c-0.211-0.434-0.516-0.812-0.729-1.246c-1.006-2.044-3.701-2.937-5.799-2.359
							c-2.017,0.555-4.021,2.717-3.77,4.951c0.184,1.634,0.549,2.578,1.599,3.848c0.845,1.021,2.486,1.52,3.732,1.515
							c2.69-0.011,5.186-2.638,4.938-5.363c-3.189,0.864-6.379,1.728-9.568,2.592c0.204,0.439,0.501,0.823,0.702,1.262
							c-0.173-0.41-0.346-0.82-0.52-1.23c0.065,0.185,0.105,0.358,0.136,0.552c-0.062-0.457-0.123-0.914-0.185-1.371
							c0.02,0.176,0.027,0.353,0.024,0.529c3.206-0.868,6.413-1.737,9.619-2.605c-0.235-0.449-0.531-0.839-0.798-1.267
							c-0.369-0.593,0.515,1.407,0.31,0.737c-0.064-0.212-0.086-0.441-0.115-0.66c0.059,0.436,0.117,0.871,0.176,1.307
							c-0.021-0.17-0.042-0.341-0.063-0.512c-2.048,1.56-4.096,3.12-6.144,4.681c0.491,0.188,1.007,0.275,1.546,0.263
							c1.559-0.212,1.708-0.23,0.449-0.056c-0.757-0.205-1.514-0.41-2.271-0.614c-0.582-0.48-0.709-0.568-0.384-0.266
							c-0.466-0.657-0.579-0.8-0.34-0.429c-0.299-0.797-0.379-0.982-0.24-0.556c0.096,0.453,0.067,0.237-0.085-0.647
							c0.042,0.702,0.307-1.308,0.022-0.233c-0.287,1.085,0.391-0.77,0.038-0.08c1.694-0.689,3.388-1.378,5.082-2.068
							c-0.864-0.326-1.892-0.355-2.805-0.492c-1.794-0.267-3.505,0.15-4.486,1.826
							C1260.176,910.594,1260.914,912.931,1262.731,914.1L1262.731,914.1z"/>
					</g>
				</g>
				<g>
					<g>
						<path fill="#F8AD3B" d="M1353.698,948.664c-2.494,0.682-4.67,1.999-5.45,4.622c-0.478,1.604-0.059,3.152,0.635,4.595
							c0.367,0.765,0.973,1.375,1.505,2.026c-0.292-0.378-0.584-0.757-0.877-1.135c0.187,0.242,0.342,0.492,0.469,0.771
							c0.806,1.771,3.069,2.819,4.915,2.819c2.466,0,4.902-1.728,5.488-4.179c0.002-0.004,0.003-0.009,0.004-0.013
							c-0.191,0.454-0.383,0.907-0.574,1.36c0.013-0.03,0.031-0.055,0.051-0.081c-0.297,0.385-0.595,0.77-0.892,1.154
							c1.636-2.079,2.937-3.917,3.105-6.691c0.143-2.345-1.449-5.098-3.63-6.031c-1.527-0.653-2.332-0.87-4.04-1.008
							c-0.874-0.071-1.75,0.055-2.62,0.104c-2.729,0.151-4.551,1.669-5.489,4.179c-1.261,3.372,0.154,7,3.063,8.943
							c1.255,0.839,2.61,1.034,4.071,1.17c0.714,0.067,1.504-0.12,2.21-0.314c0.514-0.142,1.587-0.629,1.724-0.709
							c1.078-0.632,1.453-1.24,2.189-2.217c0.883-1.171,0.955-3.108,0.583-4.458c-0.514-1.868-2.102-3.612-4.04-4.041
							c-1.327-0.293-2.285-0.197-3.595,0.039c0.523-0.07,1.046-0.141,1.569-0.211c-0.36,0.045-0.733,0.065-1.095,0.031
							c0.522,0.07,1.046,0.141,1.569,0.211c-0.192-0.031-0.368-0.078-0.55-0.15c0.467,0.197,0.935,0.395,1.401,0.591
							c-0.125-0.063-0.236-0.13-0.349-0.213c0.394,0.305,0.788,0.609,1.182,0.914c-0.07-0.058-0.136-0.122-0.194-0.191
							c0.303,0.393,0.606,0.786,0.91,1.179c-0.089-0.117-0.158-0.229-0.224-0.361c0.194,0.462,0.39,0.923,0.584,1.385
							c-0.058-0.15-0.097-0.292-0.128-0.451c0.069,0.511,0.138,1.022,0.206,1.534c-0.027-0.252-0.021-0.489,0.006-0.741
							c-0.067,0.507-0.136,1.014-0.204,1.521c0.021-0.146,0.051-0.291,0.089-0.433c-1.325,1.325-2.65,2.65-3.976,3.976
							c0.174-0.034,0.348-0.064,0.522-0.092c-0.502,0.067-1.003,0.135-1.505,0.202c0.801-0.067,1.603-0.103,2.401-0.001
							c-0.503-0.068-1.007-0.135-1.511-0.203c0.294,0.045,0.576,0.109,0.853,0.218c-0.453-0.191-0.906-0.382-1.359-0.574
							c0.144,0.065,0.275,0.138,0.401,0.233c-0.385-0.297-0.769-0.594-1.153-0.891c0.061,0.052,0.114,0.105,0.167,0.165
							c-0.297-0.384-0.594-0.769-0.891-1.153c0.059,0.078,0.105,0.156,0.146,0.245c-0.191-0.454-0.383-0.908-0.574-1.362
							c0.032,0.089,0.054,0.175,0.067,0.268c-0.068-0.505-0.136-1.011-0.204-1.516c0.011,0.122,0.007,0.238-0.009,0.359
							c0.067-0.505,0.136-1.011,0.204-1.517c-0.032,0.182-0.085,0.354-0.152,0.526c0.191-0.455,0.384-0.91,0.575-1.365
							c-0.215,0.508-0.528,0.963-0.859,1.401c-0.784,1.041-1.148,2.251-1.218,3.565c3.536-0.958,7.071-1.915,10.607-2.873
							c-0.504-0.722-1.019-1.445-1.704-2.001c-0.673-0.545-1.33-0.913-1.989-1.406c0.36,0.278,0.721,0.557,1.081,0.835
							c-0.045-0.036-0.086-0.076-0.122-0.121c0.275,0.356,0.551,0.713,0.826,1.07c-0.034-0.042-0.063-0.089-0.084-0.139
							c0.177,0.417,0.353,0.833,0.528,1.25c-0.021-0.052-0.034-0.105-0.038-0.161c0.062,0.459,0.123,0.918,0.185,1.378
							c-0.004-0.063,0-0.127,0.012-0.189c-0.061,0.454-0.122,0.908-0.183,1.362c0.029-0.124,0.068-0.235,0.118-0.353
							c-0.169,0.398-0.337,0.796-0.505,1.195c0.165-0.332,0.999-1.399,0.142-0.332c1.284-1.6,1.811-3.563,0.704-5.454
							C1357.76,948.989,1355.646,948.131,1353.698,948.664L1353.698,948.664z"/>
					</g>
				</g>
				<g>
					<g>
						<path fill="#F8AD3B" d="M606.765,955.51c-2.141,5.191,3.057,10.221,7.686,11.363c3.38,0.833,6.536-0.326,8.611-3.066
							c1.963-2.592,1.259-6-0.67-8.308c-2.738-3.278-8.356-2.5-11.721-0.911c-2.636,1.245-3.914,4.426-3.18,7.165
							c0.88,3.284,4.311,5.16,7.475,5.312c1.708,0.082,3.564-1.009,4.37-2.507c1.159-2.156,1.381-4.787-0.49-6.658
							c-0.813-0.814-2.057-1.412-3.223-1.357c-0.429,0.019-0.854,0.075-1.276,0.167c0.159-0.044-2.276,1.051-0.726,0.413
							c1.641,0.434,3.283,0.867,4.924,1.301c-0.587-0.532-1.17-1.059-1.858-1.466c-0.173-0.082-0.343-0.171-0.509-0.268
							c-0.851-0.474,0.981,0.881,0.384,0.306c1.766,1.705,1.422,4.421-0.045,6.165c0.219-0.26-1.36,0.821-0.263,0.28
							c-1.575,0.776-0.82,0.348-0.303,0.224c1.239-0.297-1.391,0.095-0.099,0.015c0.357-0.022,0.714-0.003,1.069,0.029
							c-1.046-0.162-1.312-0.19-0.795-0.086c0.439,0.094,1.093,0.468-0.567-0.288c0.439,0.25,0.22,0.064-0.658-0.556
							c0.352,0.352,0.172,0.111-0.541-0.72c-0.376-0.637-0.568-1.325-0.577-2.065c0.047-0.349,0.093-0.698,0.14-1.048
							c0.418-0.847,0.499-1.045,0.243-0.595c0.295-0.539,0.705-0.968,1.228-1.289c0.277-0.116,0.555-0.232,0.833-0.348
							c-0.523,0.133-0.298,0.117,0.676-0.049c-0.438,0.051-2.03-0.125-0.266,0.122c-0.495-0.069-0.975-0.225-1.443-0.395
							c1.458,0.529-0.066-0.083-0.42-0.304c0.575,0.474,0.671,0.547,0.289,0.22c-0.288-0.25-0.684-0.948,0.028,0.109
							c-0.229-0.425-0.185-0.299,0.135,0.378c-0.241-0.681-0.022,0.826-0.054,1.032c0.363-2.347-0.559-4.679-3.045-5.363
							C609.624,951.776,607.67,953.315,606.765,955.51L606.765,955.51z"/>
					</g>
				</g>
				<g>
					<g>
						<path fill="#FFE2D0" d="M564.825,888.285c-1.434,0.505-2.678,1.16-3.866,2.095c-1.995,1.57-1.757,4.483-0.779,6.506
							c1.33,2.751,4.622,4.084,7.509,4.172c3.572,0.109,7.042-2.542,7.6-6.122c0.662-4.241-1.53-8.283-5.472-10.091
							c-4.754-2.18-10.544-1.631-12.557,3.918c-1.783,4.918,4.035,9.114,8.275,6.63c0.277-0.162,3.385-3.375,1.425-1.234
							c0.35-0.382,1.006-0.647-0.494,0.333c-0.316,0.13-0.633,0.259-0.949,0.389c0.563-0.15,0.303-0.134-0.779,0.05
							c0.475-0.063,1.791,0.138-0.092-0.138c0.534,0.078,2.332,0.861,0.723,0.11c0.485,0.227,2.004,1.311,0.713,0.237
							c0.348,0.289,0.7,0.979-0.109-0.228c0.706,1.054-0.392-2.646-0.356-1.285c0.027,1.011,0.267-1.183,0.028-0.288
							c0.373-0.792,0.444-0.976,0.214-0.549c0.564-0.674,0.685-0.836,0.36-0.488c0.818-0.855,0.767-0.535,0.3-0.28
							c1.162-0.634,0.809-0.319,0.345-0.204c-0.833,0.208,1.262-0.104,0.392-0.072c-0.367,0.013-1.182-0.132,0.359,0.096
							c-0.213-0.032-0.422-0.091-0.629-0.15c-0.804-0.23,1.048,0.507,0.314,0.137c-0.322-0.162-0.864-0.639,0.257,0.265
							c-0.785-0.632,0.436,0.74,0.134,0.2c0.062,0.11,0.45,1.923,0.402,1.361c-0.068-0.795-0.107-0.914-0.258-1.46
							c0.171,0.623,0.272,0.895-0.177,1.699c0.42-0.75-0.439,0.453,0.245-0.321C569.842,891.379,568.026,887.156,564.825,888.285
							L564.825,888.285z"/>
					</g>
				</g>
			</g>
			<path fill="none" d="M352.2,907.57c-2.881-4.311-6.221-9.271-9.83-14.641c-5.48-8.109-11.58-17.13-17.71-26.18l3.22-4.21
				c5.729,11.15,11.61,22.33,17.02,32.14C347.46,899.34,349.92,903.68,352.2,907.57z"/>
			<path fill="none" d="M2880,537v464.61l-419.995-53.28c0,0-48.327,45-116.017-54.2l-43.97-57.07l-27.979,13.98l33.311,65.979
				l14.65,34.99l-33.311,0.99l-31.97-69c0,0-21.32-3-22.661,1c-1.33,4-25.309,59-25.309,61s-67.95-152-62.621-163
				c5.331-11-63.959,27.5-63.959,27.5s42.64,115.5,61.29,134.5h-19.99l-86.6-101.75l-9.33,14.88c0,0,31.979,72.93,38.64,81.93
				s-7.99-11.029-22.65-1.029l-54.63-42.011l-7.989,37.99l-66.62-30.5L1893.629,945H1868v-51l-22.825-3l-9.077,41l-11.87-39
				l-7.938,37l-22.619-30c-11.95,2.99-11.97,22.87-11.97,23c0,0-13.04-19.84-15.991-17c-4.659,4.5-4.319,10.5-2.819,15.38
				c1.5,4.87,4.16,8.62,4.16,8.62l2.67,11l-29.31-7l2.659,10l-17.319-8l19.99-10l-27.99-37c0,0-57.101,7.65-93.7,30.33l67.06-50.33
				l-27.98-21l-34.65,30l22.65-32c-11.989-6-75.939,69-75.939,69l-13.33-5l45.301-83l-7.99-9l-66.62,83l-8-3l51.97-86l-25.319-15
				c0,0-49.301,61-55.96,92l-13.32-13l-2.67-78l-70.61,7c0,0,13.32,61,21.311,85l-46.631-80l-15.989,6c0,0,37.31,95,50.63,123
				l-379.731,17.25l-28.648-45.12l-8.99,32.94l-46.47,6.97c0,0-9.735-16.021-13.735-17.521C936.395,932.02,924,929,924,933.5
				s0,9.5,0,9.5l-20-2v-20h-16v19c0,0-10.34-34.75-15.67-28.87C867,917,852,924,852,924v20l-52.455,2l-19.898-28
				c0,0-39.928,33-39.928,30s33.339-53.5,33.339-53.5L750.419,853l-46.629,81l21.319-108c-8-4-61.29,137-61.29,137l23.98-172
				c0,0-19.98-20-23.98-14S646.5,815,646.5,815l-13.33-39.12c0,0-35.97,24.12-35.97,27.12c0,2.98,43.29,135.9,43.96,137.98
				L575.88,831l-27.98,19c0,0,28.65,61,52.96,82.5c2.471,2.18-65.27-12.22-93.55-6.65c12.771-3.18,20.749-5.18,20.749-5.18
				L446.34,794l-22.65,7c0,0,34.801,72.39,55.44,107.57c-21.36-31.88-67.44-99.57-67.44-99.57s-21.31,3-21.31,6
				c0,2.98,43.29,75.85,43.96,76.99l-54.62-55.98l-20.86,17.46L319.63,793l-22.87,7c0,0,12.16,25.29,26.36,53.23
				c-1.471,1.17-3.19,2.46-5.04,3.8c-3.08-4.54-6.11-9-9.011-13.28c-1.04-1.53-2.06-3.03-3.06-4.51
				c-12.07-17.76-21.24-31.24-21.24-31.24s-21.319,3-21.319,6c0,1.3,8.22,15.87,17.55,31.99l-5.8,11.979L252.79,835l-15.25,12.76
				L233.149,827l-2.92,26.87l-0.95,8.76l-3.92,36.15L221.33,896l-9.5-65l-18.65,1l1.65,21.3c-9.28,7.12-25.65,17.71-24.65,14.7
				c1.33-4,13.32-28,13.32-28l-22.65-9l-11.24,23.2l-1.729-2.2l-21.321,10.5l9.231,20.21L123.54,908l-17.32-82l-9.33,86l-11.99-82
				l-18.649,1l6.66,86l-51.965-66L0,861.31V537H2880z"/>
		</g>
	</g>
	<g>
		<g>
			<path fill="#FFE2D0" d="M659,847.279c-4.45-1.278-8.759-2.58-12.655-5.148c-3.52-2.32-4.972-5.932-6.652-9.563
				c-2.482-5.363-11.13-2.643-10.919,2.958c0.259,6.915,6.041,11.313,11.199,14.944c5.765,4.059,13.288,6.444,19.868,3.234
				C662.678,852.32,661.752,848.069,659,847.279L659,847.279z"/>
		</g>
	</g>
	<g>
		<g>
			<path fill="#FFE2D0" d="M664.058,825.235c-0.338,1.667-0.318,3.195,0.301,4.781c0.769,1.969,0.542-2.492,0.015-0.635
				c-0.479,1.684,0.704-1.059-0.336,0.535c0.482-0.739-1.533,1.327-1.977,1.701c-1.274,1.076-2.522,2.184-3.793,3.265
				c-4.977,4.236-10.765,9.259-8.874,16.567c2.442,9.436,15.767,5.277,14.284-3.938c0.167,1.034,0.067,1.578-0.342,2.516
				c0.069-0.158,1.18-1.742,0.346-0.708c0.973-1.206,2.295-2.188,3.483-3.169c2.875-2.373,5.543-4.437,7.804-7.447
				c2.319-3.087,3.313-6.595,2.461-10.405c-0.995-4.446-5.388-7.55-9.808-6.628C666.002,822.009,664.388,823.608,664.058,825.235
				L664.058,825.235z"/>
		</g>
	</g>
	<g>
		<g>
			<path fill="#FFE2D0" d="M652.205,823.761c-4.167,3.207-5.164,9.002-5.517,14.005c-0.433,6.126,2.491,11.702,7.692,14.876
				c4.243,2.589,9.216-0.02,10.728-4.364c1.32-3.797,1.308-7.349,2.062-11.021c0.917-4.459,5.99-4.362,7.381-9.525
				c0.8-2.969-0.547-5.68-2.989-7.345c-0.203-0.138-0.405-0.276-0.608-0.414c-2.264-1.544-5.221-1.146-7.516,0
				c-4.99,2.492-7.857,6.63-9.666,11.778c-1.438,4.092-1.197,8.566-2.75,12.644c3.576-1.455,7.152-2.909,10.728-4.364
				c-1.798-1.069-1.169-2.798-1.229-5.117c-0.093-3.619,0.441-7.831-2.699-10.428C656.359,823.275,653.938,822.428,652.205,823.761
				L652.205,823.761z"/>
		</g>
	</g>
	<g>
		<g>
			<path fill="#FFE2D0" d="M662.734,848.771c-2.079-4.926-5.118-9.446-7.358-14.325c-2.129-4.639-1.544-10.536-5.59-14.042
				c-2.824-2.448-8.447-2.802-10.215,1.316c-2.65,6.171,0.317,12.321,2.581,18.301c2.478,6.544,6.488,13.069,12.649,16.684
				C660.299,859.931,664.844,853.771,662.734,848.771L662.734,848.771z"/>
		</g>
	</g>
	<g>
		<g>
			<path fill="#F8AD3B" d="M650.731,848.1c0.772,0.497,1.545,1.108,2.39,1.468c1.173,0.501,2.194,0.809,3.479,0.456
				c1.116-0.308,2.125-1.064,2.699-2.075c1.736-3.062,1.794-7.193-1.195-9.556c0.403,0.692,0.807,1.385,1.211,2.078
				c-0.407-1.588-1.307-2.669-2.673-3.539c-1.521-0.97-3.621-0.895-5.148,0c-1.69,0.99-2.308,2.556-2.525,4.403
				c-0.247,2.091,0.304,3.896,1.316,5.729c1.167,2.114,3.814,3.116,6.107,2.485c2.254-0.62,4.061-2.824,3.971-5.215
				c-0.054-1.432-0.3-2.528-0.919-3.803c-0.211-0.435-0.516-0.812-0.729-1.246c-1.054-2.143-3.878-3.077-6.077-2.473
				c-2.114,0.581-4.213,2.847-3.95,5.188c0.128,1.146,0.156,1.823,0.748,2.834c0.449,0.766,1.296,1.691,2.11,2.07
				c1.931,0.897,4.755,1.105,6.26-0.808c0.931-1.184,1.789-2.501,1.644-4.097c-3.342,0.905-6.685,1.811-10.027,2.716
				c0.205,0.439,0.5,0.823,0.702,1.262c-0.181-0.43-0.363-0.859-0.544-1.289c0.065,0.185,0.104,0.358,0.135,0.552
				c-0.064-0.479-0.128-0.958-0.193-1.437c0.019,0.176,0.027,0.353,0.024,0.529c3.359-0.91,6.719-1.82,10.078-2.729
				c-0.271-0.518-0.665-0.963-0.912-1.489c0.177,0.419,0.354,0.839,0.531,1.259c-0.112-0.292-0.156-0.592-0.198-0.9
				c0.062,0.458,0.123,0.915,0.185,1.372c-0.021-0.17-0.042-0.341-0.063-0.512c-2.152,1.64-4.304,3.278-6.456,4.918
				c1.145,0.392,2.166,0.236,3.313,0.012c-1.209-0.159-2.419-0.316-3.629-0.475c0.408,0.274,0.273,0.167-0.404-0.319
				c0.324,0.345,0.209,0.186-0.346-0.478c0.225,0.409,0.147,0.209-0.232-0.6c0.115,0.459,0.093,0.231-0.064-0.682
				c0.008,0.127,0.007,0.253-0.001,0.38c0.143-0.892,0.166-1.101,0.068-0.63c-0.081,0.369-0.534,1.282,0.085-0.07
				c1.7-0.692,3.399-1.384,5.099-2.075c-0.887-0.291-1.886-0.34-2.808-0.478c-1.794-0.267-3.505,0.15-4.486,1.826
				C648.176,844.594,648.914,846.931,650.731,848.1L650.731,848.1z"/>
		</g>
	</g>
	<g id="Florcitas_2_">
		<g>
			<g>
				<path fill="#FFE2D0" d="M225.203,894.749c-0.395,0.02-0.781-0.05-1.159-0.208c1.318,2.323,2.637,4.646,3.956,6.968
					c0.298-1.198,0.134-1.11-0.493,0.266c0.477-0.304,1.262-0.253,1.82-0.294c1.853-0.139,3.615,0.124,5.386,0.628
					c1.824,0.521,3.191,1.984,5.106,2.496c2.615,0.698,5.64,0.025,8.143-0.771c7.402-2.356,4.237-14.034-3.215-11.661
					c-0.747,0.284-1.517,0.483-2.308,0.596c0.896,0.402,0.925,0.351,0.088-0.154c-1.397-0.961-3.04-1.511-4.631-2.051
					c-2.645-0.897-5.811-0.949-8.569-0.797c-6.241,0.344-12.043,3.457-12.453,10.236c-0.286,4.731,4.922,6.461,8.523,4.891
					c2.252-0.982,3.031-2.606,3.908-4.76C230.343,897.585,227.742,894.656,225.203,894.749L225.203,894.749z"/>
			</g>
		</g>
		<g>
			<g>
				<path fill="#FFE2D0" d="M240.371,891.003c0.045-0.745,0.166-1.869,0.47-2.213c-0.073,0.083-1.517,0.187-0.094,0.046
					c1.044-0.103,1.925-0.449,2.935-0.68c1.507-0.344,1.713-0.244,3.208-0.154c2.162,0.131,4.373-1.444,5.437-3.18
					c2.937-4.793-3.729-9.733-7.65-5.903c-0.575,0.526-0.268,0.372,0.922-0.461c-0.548,0.171-1.063,0.409-1.542,0.716
					c1-0.206,1.076-0.248,0.226-0.127c-0.597,0.072-1.194,0.151-1.79,0.235c-2.318,0.338-4.695,1.025-6.017,3.138
					c-0.071,0.114-0.868,0.678-1.086,0.919c-0.525,0.581-0.965,1.238-1.294,1.945c-0.843,1.807-1.022,3.745-0.966,5.719
					C233.263,895.699,240.09,895.64,240.371,891.003L240.371,891.003z"/>
			</g>
		</g>
		<g>
			<g>
				<path fill="#FFE2D0" d="M232.648,883.246c-0.615-1.225-1.366-2.203-2.355-3.152c-0.402-0.386-0.794-0.781-1.177-1.187
					c-0.228-0.242-0.441-0.496-0.653-0.752c0.726,0.876,0.045,0.014-0.078-0.155c-1.442-1.978-3.879-2.949-6.157-1.615
					c-1.006,0.59-1.759,1.564-2.068,2.689c-0.466,1.695,0.134,3.072,1.157,4.378c0.895,1.142,2.184,2.007,3.351,2.84
					c0.543,0.388,1.1,0.758,1.654,1.13c0.657,0.44,1.649,0.634,2.395,0.936c1.114,0.45,2.586-0.095,3.386-0.896
					C233.262,886.306,233.356,884.657,232.648,883.246L232.648,883.246z"/>
			</g>
		</g>
		<g>
			<g>
				<path fill="#FFE2D0" d="M263,854.279c-4.45-1.278-8.759-2.58-12.656-5.148c-3.519-2.32-4.972-5.932-6.652-9.563
					c-2.482-5.363-11.13-2.643-10.919,2.958c0.259,6.915,6.041,11.313,11.199,14.944c5.765,4.059,13.288,6.444,19.868,3.234
					C266.678,859.32,265.752,855.069,263,854.279L263,854.279z"/>
			</g>
		</g>
		<g>
			<g>
				<path fill="#FFE2D0" d="M266.682,858.975c-2.544-6.273-6.143-12.032-8.213-18.49c-0.925-2.885-1.598-5.875-2.262-8.828
					c-0.993-4.415,1.914,1.034-4.508,1.854c-0.751,0.096-1.559-0.851-0.41,0.336c1.234,1.276-0.919,9.149-0.966,11.019
					c-0.155,6.229,2.835,11.509,8.089,14.721c4.212,2.575,9.125-0.028,10.633-4.325c1.452-4.14,0.342-13.514,5.142-15.337
					c-2.328-0.615-4.655-1.23-6.983-1.846c2.339,1.97,0.414,0.74,0.784-1.548c-0.123,0.764,0.115-0.007-0.688,0.862
					c-2.142,2.315-4.825,4.144-7.252,6.14c-6.005,4.94-10.473,13.412-2.597,19.087c3.384,2.438,8.636-0.065,9.554-3.887
					c0.202-0.838,0.5-1.676,0.795-2.489c-0.713,1.957,0.766-0.675-0.207,0.512c0.493-0.602,1.07-1.138,1.628-1.678
					c2.488-2.401,5.324-4.409,7.794-6.834c5.987-5.879,7.175-14.521,0.339-20.315c-1.855-1.572-4.503-2.778-6.983-1.846
					c-6.16,2.317-9.813,5.843-12.345,11.883c-1.781,4.247-1.37,9.114-2.941,13.447c3.544-1.442,7.089-2.884,10.633-4.326
					c-1.824-1.142-0.627-5.051-0.412-6.823c0.422-3.476,0.669-6.714-0.224-10.155c-1.836-7.07-8.859-11.454-15.863-10.354
					c-9.635,1.514-6.931,13.913-5.174,19.993c2.687,9.304,7.916,19.271,16.957,23.595
					C263.678,864.623,268.093,862.455,266.682,858.975L266.682,858.975z"/>
			</g>
		</g>
		<g>
			<g>
				<path fill="#FFE2D0" d="M333.198,886.759c-10.626,3.939-17.766,25.319-2.801,28.542c8.761,1.888,15.089-3.737,16.517-11.962
					c0.39-2.249-0.545,0.692-1.971,0.367c1.439,0.328,2.747,1.246,4.234,1.557c5.611,1.177,9.57-2.169,12.521-6.541
					c-3.361,0.881-6.722,1.762-10.083,2.644c5.263,2.491,11.448,2.824,14.72-2.933c2.292-4.032,1.092-8.845,0.202-13.084
					c-0.912-4.344-5.37-5.769-9.192-5.22c-4.116,0.591-7.886,2.988-11.596,4.743c-3.053,1.445-0.685-0.19,0.246,2.245
					c-0.388-1.016,0.163-2.138,0.014-3.53c-0.592-5.549-7.396-9.858-11.894-4.927c-5.36,5.877-3.014,16.991,4.149,20.415
					c8.715,4.165,14.952-3.418,23.053-4.534c-3.064-1.74-6.128-3.479-9.192-5.22c0.159,0.778,0.331,1.554,0.487,2.333
					c0.157,0.894,0.175,0.99,0.054,0.29c0.011,0.252,0.022,0.504,0.033,0.755c-0.239,3.276,1.879,1.923,6.354-4.061
					c-3.779-1.64-7.755-1.063-10.083,2.644c1.04-1.655,5.138,0.627,1.593-0.81c-0.918-0.372-1.784-0.663-2.752-0.876
					c-2.764-0.608-6.248-0.289-8.7,1.246c-4.414,2.762-5.568,6.559-6.496,11.376c-0.475,2.465,3.744-1.612,0.571-0.816
					c-0.004,0.001,2.274,1.538,1.668,1.056c0.284,0.515,0.568,1.029,0.852,1.543c-0.2-0.779-0.225-0.838-0.074-0.18
					c-0.047-0.769,0.084-1.564,0.158-2.327c0.184-1.922,1.815-6.161,2.768-7.765C340.56,890.363,337.223,885.268,333.198,886.759
					L333.198,886.759z"/>
			</g>
		</g>
		<g>
			<g>
				<path fill="#FFE2D0" d="M331.798,839.542c-1.093,0.587-2.037,1.481-2.67,2.549c0.242-0.313,0.483-0.626,0.725-0.938
					c-0.801,0.988-0.976,1.304-1.457,2.478c-0.364,0.89-0.225,2.167-0.033,3.072c0.208,0.98,0.829,2.053,1.537,2.761
					c1.487,1.487,3.482,1.782,5.463,1.342c1.261-0.279,2.41-1.252,3.051-2.346c0.858-1.466,1.033-3.705,0-5.152
					c-0.326-0.456-0.644-0.92-1.024-1.334c-0.661-0.656-1.44-1.11-2.337-1.362c-0.502-0.075-1.005-0.142-1.509-0.201
					c0.465,0.063,0.93,0.125,1.394,0.187c-0.098-0.019-0.188-0.042-0.281-0.078c0.406,0.171,0.813,0.343,1.219,0.514
					c-0.081-0.04-0.15-0.081-0.222-0.136c0.335,0.259,0.671,0.519,1.006,0.777c-0.042-0.036-0.081-0.076-0.116-0.12
					c0.255,0.33,0.51,0.659,0.765,0.989c-0.051-0.072-0.09-0.141-0.125-0.221c0.16,0.379,0.32,0.759,0.48,1.138
					c-0.022-0.056-0.039-0.114-0.051-0.173c0.056,0.414,0.111,0.829,0.167,1.243c-0.003-0.033-0.007-0.066-0.01-0.1
					c-0.055,0.411-0.11,0.822-0.166,1.233c0.029-0.149,0.072-0.286,0.131-0.426c-0.153,0.363-0.307,0.726-0.46,1.089
					c0.097-0.2,0.211-0.38,0.346-0.556c-0.231,0.3-0.463,0.6-0.695,0.9c0.063-0.078,0.128-0.154,0.198-0.228
					c1.334-1.472,1.723-3.558,0.687-5.325C336.568,838.998,333.908,838.407,331.798,839.542L331.798,839.542z"/>
			</g>
		</g>
		<g>
			<g>
				<path fill="#FFE2D0" d="M329.516,828.336c0.017,0.074,0.017,0.148,0.002,0.222c0.053-0.394,0.105-0.788,0.159-1.181
					c-0.224,0.931-0.385,1.798-0.082,2.754c0.338,1.067,0.971,1.962,1.95,2.536c1.077,0.63,2.085,0.601,3.27,0.428
					c0.865-0.126,1.592-0.732,2.205-1.306c0.734-0.688,0.966-1.353,1.336-2.256c0.432-1.054,0.095-2.53-0.454-3.468
					c-0.589-1.006-1.564-1.758-2.689-2.068c-1.162-0.319-2.428-0.155-3.467,0.454C330.498,825.181,329.338,826.813,329.516,828.336
					L329.516,828.336z"/>
			</g>
		</g>
		<g>
			<g>
				<path fill="#FFE2D0" d="M321.902,811.438c-0.896,1-1.52,2.164-1.478,3.549c0.03,0.987,0.235,1.578,0.686,2.45
					c0.583,1.128,1.646,1.658,2.762,2.098c0.745,0.293,1.695,0.136,2.438-0.015c0.749-0.151,1.292-0.607,1.853-1.08
					c1.265-1.065,1.524-3.086,1.157-4.568c0.054,0.4,0.108,0.8,0.162,1.201c-0.001-0.029-0.003-0.058-0.004-0.086
					c-0.054,0.401-0.108,0.802-0.162,1.203c0.006-0.027,0.011-0.053,0.017-0.08c-0.152,0.36-0.305,0.722-0.457,1.083
					c0.013-0.025,0.027-0.05,0.04-0.075c-0.237,0.307-0.474,0.613-0.711,0.92c0.022-0.023,0.044-0.046,0.066-0.069
					c-0.308,0.237-0.615,0.475-0.922,0.712c0.032-0.021,0.063-0.043,0.094-0.065c1.007-0.7,1.766-1.516,2.101-2.731
					c0.324-1.18,0.157-2.466-0.461-3.521C327.652,809.925,323.887,809.221,321.902,811.438L321.902,811.438z"/>
			</g>
		</g>
		<g>
			<g>
				<path fill="#FFE2D0" d="M343.016,812.929c-0.071,0.013-0.142,0.025-0.213,0.038c-1.556,0.277-2.87,1.807-3.265,3.265
					c-0.337,1.242-0.229,2.545,0.426,3.663c0.867,1.48,2.403,2.226,4.082,2.256c1.548,0.026,3.333-0.888,4.037-2.316
					c0.031-0.064,0.063-0.128,0.094-0.192c0.736-1.495,0.871-3.126,0-4.613c-0.406-0.687-0.953-1.233-1.64-1.64
					C345.403,812.726,344.269,812.706,343.016,812.929L343.016,812.929z"/>
			</g>
		</g>
		<g>
			<g>
				<path fill="#FFE2D0" d="M483.689,822.17c2.453,0,4.5-2.047,4.5-4.5s-2.047-4.5-4.5-4.5s-4.5,2.047-4.5,4.5
					S481.236,822.17,483.689,822.17L483.689,822.17z"/>
			</g>
		</g>
		<g>
			<g>
				<path fill="#FFE2D0" d="M467.207,808.117c-0.044,0.029-0.088,0.059-0.133,0.087c0.358-0.151,0.717-0.302,1.075-0.454
					c-0.035,0.015-0.069,0.029-0.104,0.043c0.399-0.053,0.797-0.107,1.196-0.161c-0.026,0.001-0.052,0.003-0.078,0.005
					c0.757,0.205,1.514,0.409,2.271,0.614c-0.901-0.451-1.347-0.602-2.364-0.644c-0.803,0.002-1.551,0.205-2.244,0.607
					c-1.053,0.616-1.645,1.534-2.043,2.657c-0.005,0.014-0.009,0.027-0.014,0.041c-0.637,1.794,0.374,4.233,2.068,5.082
					c1.581,0.792,3.385,0.896,4.911-0.107c2.045-1.346,2.904-3.956,1.615-6.157C472.173,807.701,469.258,806.768,467.207,808.117
					L467.207,808.117z"/>
			</g>
		</g>
		<g>
			<g>
				<path fill="#FFE2D0" d="M469.345,801.003c0.083,0.706,0.183,1.409,0.282,2.113c0.167,1.197,1.01,2.141,1.714,3.039
					c0.371,0.472,0.761,0.909,1.223,1.294c1.274,1.061,2.19,1.679,3.797,2.194c1.452,0.466,2.973,0.275,4.426,0
					c2.81-0.531,4.773-3.558,4.773-6.269c0-3.457-2.958-6.618-6.502-6.502c-0.127,0.009-0.254,0.008-0.38-0.002
					c0.579,0.078,1.157,0.156,1.735,0.233c-0.392-0.053-0.771-0.179-1.142-0.318c0.52,0.22,1.04,0.439,1.56,0.659
					c-0.435-0.194-0.823-0.439-1.204-0.724c0.432,0.334,0.864,0.668,1.297,1.002c-0.608-0.487-1.24-1.195-1.904-1.519
					c-0.714-0.349-1.445-0.648-2.199-0.896c-1.469-0.482-3.241-0.172-4.551,0.596C470.636,796.86,469.109,799.005,469.345,801.003
					L469.345,801.003z"/>
			</g>
		</g>
		<g>
			<g>
				<path fill="#FFE2D0" d="M488.131,792.433c5.713,0,5.713-8.859,0-8.859S482.418,792.433,488.131,792.433L488.131,792.433z"/>
			</g>
		</g>
		<g>
			<g>
				<path fill="#FFE2D0" d="M502.648,805.979c0.008-0.036,0.016-0.073,0.023-0.109c-0.166,0.393-0.331,0.785-0.497,1.178
					c0.052-0.116,0.117-0.216,0.188-0.323c0.54-0.812,0.641-1.781,0.69-2.721c0.089-1.672-0.982-3.34-2.389-4.164
					c-1.522-0.892-3.342-0.832-4.868,0c-1.848,1.007-2.691,2.81-2.816,4.831c-0.135,2.166,1.601,4.192,3.613,4.746
					C499.063,810.095,502.09,808.604,502.648,805.979L502.648,805.979z"/>
			</g>
		</g>
		<g>
			<g>
				<path fill="#FFE2D0" d="M644.467,832.17c2.453,0,4.5-2.047,4.5-4.5s-2.047-4.5-4.5-4.5s-4.5,2.047-4.5,4.5
					S642.014,832.17,644.467,832.17L644.467,832.17z"/>
			</g>
		</g>
		<g>
			<g>
				<path fill="#FFE2D0" d="M623.089,852.003c0.107,1.789,0.946,3.684,2.688,4.458c1.156,0.514,2.203,0.803,3.471,0.454
					c1.126-0.31,2.103-1.063,2.692-2.07c0.609-1.041,0.774-2.309,0.454-3.471c-0.326-1.186-1.074-2.02-2.07-2.692
					c-0.04-0.027-0.08-0.054-0.119-0.081c0.305,0.235,0.609,0.471,0.914,0.707c-0.099-0.09-0.188-0.178-0.273-0.281
					c0.236,0.305,0.471,0.609,0.707,0.914c-0.018-0.034-0.036-0.068-0.053-0.103c0.151,0.358,0.303,0.718,0.455,1.077
					c-0.008-0.036-0.017-0.072-0.025-0.108c-0.445-1.939-2.403-3.304-4.339-3.304C625.247,847.503,622.942,849.552,623.089,852.003
					L623.089,852.003z"/>
			</g>
		</g>
		<g>
			<g>
				<path fill="#FFE2D0" d="M650.401,862.572c-0.015-0.021-0.029-0.043-0.044-0.065c0.16,0.378,0.319,0.756,0.479,1.135
					c-0.006-0.021-0.012-0.043-0.018-0.064c0.056,0.415,0.111,0.831,0.167,1.246c0-0.022-0.001-0.045-0.002-0.067
					c-0.055,0.41-0.11,0.82-0.165,1.23c0.01-0.075,0.023-0.148,0.033-0.223c0.053-0.393,0.106-0.786,0.159-1.18
					c-0.002-0.801-0.205-1.547-0.606-2.239c-0.823-1.405-2.245-2.113-3.832-2.198c-0.092-0.005-0.182-0.018-0.274-0.009
					c-0.458-0.031-0.892,0.032-1.303,0.188c-1.103,0.407-1.24,0.538-2.159,1.272c-0.597,0.601-1.01,1.309-1.239,2.125
					c-0.229,0.854-0.229,1.707,0,2.561c0.445,1.619,1.746,2.919,3.364,3.364c1.658,0.456,3.471-0.024,4.686-1.238
					C651.102,866.955,651.605,864.349,650.401,862.572L650.401,862.572z"/>
			</g>
		</g>
		<g>
			<g>
				<path fill="#FFE2D0" d="M651.903,847.675c-0.063,0.1-0.125,0.198-0.18,0.303c-0.864,1.647-0.961,3.546,0,5.188
					c0.457,0.772,1.072,1.387,1.844,1.844c1.095,0.642,2.73,0.986,3.96,0.518c0.108-0.041,0.219-0.073,0.331-0.105
					c3.26-0.954,4.896-4.769,3.152-7.746c-0.939-1.604-2.694-2.612-4.554-2.612C654.553,845.063,652.9,846.086,651.903,847.675
					L651.903,847.675z"/>
			</g>
		</g>
		<g>
			<g>
				<path fill="#FFE2D0" d="M673.312,862.2c0.039-0.047,0.083-0.088,0.132-0.123c-0.321,0.249-0.643,0.497-0.963,0.745
					c0.114-0.077,0.231-0.141,0.354-0.203c0.962-0.491,1.69-1.543,1.971-2.563c0.332-1.205,0.06-2.207-0.432-3.304
					c-0.017-0.037-0.033-0.074-0.049-0.11c0.148,0.351,0.296,0.701,0.444,1.052c-0.216-0.514-0.354-1.085-0.675-1.543
					c-0.444-0.75-1.041-1.347-1.791-1.791c-0.778-0.452-1.618-0.679-2.52-0.682c-2.22,0-4.225,1.523-4.814,3.665
					c-0.594,2.16,0.364,4.507,2.294,5.638C669.165,864.095,671.77,863.816,673.312,862.2L673.312,862.2z"/>
			</g>
		</g>
		<g>
			<g>
				<path fill="#FFE2D0" d="M808.216,862.664c-3.956-0.668-10.042-2.81-13.627-0.305c-3.055,2.134-4.417,6.852-1.245,9.661
					c3.714,3.288,7.475,3.331,12.187,2.913c1.535-0.091,1.015-0.891-1.56-2.397c0.105,1.353,0.088,2.608,0.304,3.967
					c0.372,2.334,1.48,4.035,2.957,5.842c2.246,2.75,7.044,2.413,9.349,0c1.195-1.25,2.23-2.638,3.108-4.128
					c-0.043,0.074,1.3-1.916,0.57-1.072c-1.36,1.572-3.022,0.453,0.101,1.251c6.396,1.634,11.19-6.316,6.45-11.08
					c-1.677-1.685-3.783-2.784-5.872-3.86c-1.144-0.588-2.282-1.181-3.403-1.812c-0.51-0.294-1.006-0.609-1.488-0.946
					c1.42,0.949,0.411,5.743,1.274,3.468c1.948-5.133-4.804-9.95-9.185-7.061c-5.117,3.375-5,9.477-0.763,13.538
					c1.712,1.642,3.915,2.758,6.001,3.834c0.837,0.433,1.678,0.856,2.513,1.293c1.149,0.602,1.19,0.564,1.547,0.921
					c2.15-3.693,4.3-7.387,6.45-11.08c-3.877-0.979-7.518-1.277-11.13,0.703c-2.779,1.522-3.54,4.596-5.522,6.682
					c3.116,0,6.232,0,9.349,0c0.576,0.998,0.722,0.844,0.44-0.46c-0.07-1.271-0.283-2.538-0.629-3.759
					c-0.687-2.42-2.422-3.889-4.339-5.341c-3.238-2.454-9.234,0.476-11.253-1.077c0.415,3.22,0.83,6.44,1.245,9.661
					c0.072-0.059,0.144-0.116,0.215-0.174c-1.441,1.258-1.188,1.529,0.761,0.811c1.738-0.308,3.459-0.953,5.197-1.313
					C812.44,870.464,812.613,863.406,808.216,862.664L808.216,862.664z"/>
			</g>
		</g>
		<g>
			<g>
				<path fill="#FFE2D0" d="M144.349,860.09c-0.073-0.042-0.145-0.086-0.216-0.131c-1.787-1.105-4.136,0.329-4.136,2.373
					c0,2.115,2.326,3.385,4.136,2.374c0.073-0.04,0.145-0.081,0.216-0.124C146.044,863.593,146.027,861.083,144.349,860.09
					L144.349,860.09z"/>
			</g>
		</g>
		<g>
			<g>
				<path fill="#FFE2D0" d="M134.154,848.413c4.398,0,4.398-6.82,0-6.82S129.756,848.413,134.154,848.413L134.154,848.413z"/>
			</g>
		</g>
		<g>
			<g>
				<path fill="#FFE2D0" d="M150.143,839.027c2.012,0,3.691-1.679,3.691-3.691s-1.679-3.691-3.691-3.691s-3.691,1.679-3.691,3.691
					S148.13,839.027,150.143,839.027L150.143,839.027z"/>
			</g>
		</g>
		<g>
			<g>
				<path fill="#FFE2D0" d="M156.359,853.886c1.571,0,2.883-1.312,2.883-2.883s-1.312-2.883-2.883-2.883s-2.883,1.312-2.883,2.883
					S154.788,853.886,156.359,853.886L156.359,853.886z"/>
			</g>
		</g>
		<g>
			<g>
				<path fill="#F8AD3B" d="M254.731,855.1c0.772,0.497,1.545,1.108,2.39,1.468c1.173,0.501,2.194,0.809,3.479,0.456
					c1.116-0.308,2.125-1.064,2.699-2.075c1.736-3.062,1.794-7.193-1.195-9.556c0.403,0.692,0.807,1.385,1.211,2.078
					c-0.407-1.588-1.307-2.669-2.673-3.539c-1.521-0.97-3.621-0.895-5.148,0c-1.69,0.99-2.308,2.556-2.525,4.403
					c-0.247,2.091,0.304,3.896,1.316,5.729c1.167,2.114,3.814,3.116,6.107,2.485c2.254-0.62,4.061-2.824,3.971-5.215
					c-0.054-1.432-0.3-2.528-0.919-3.803c-0.211-0.435-0.516-0.812-0.729-1.246c-1.054-2.143-3.878-3.077-6.077-2.473
					c-2.114,0.581-4.213,2.847-3.95,5.188c0.128,1.146,0.156,1.823,0.748,2.834c0.449,0.766,1.296,1.691,2.11,2.07
					c1.931,0.897,4.755,1.105,6.26-0.808c0.931-1.184,1.789-2.501,1.644-4.097c-3.342,0.905-6.685,1.811-10.027,2.716
					c0.204,0.439,0.5,0.823,0.702,1.262c-0.181-0.43-0.363-0.859-0.544-1.289c0.065,0.185,0.104,0.358,0.135,0.552
					c-0.064-0.479-0.128-0.958-0.193-1.437c0.019,0.176,0.027,0.353,0.024,0.529c3.359-0.91,6.719-1.82,10.078-2.729
					c-0.271-0.518-0.665-0.963-0.913-1.489c0.177,0.419,0.354,0.839,0.532,1.259c-0.112-0.292-0.156-0.592-0.198-0.9
					c0.062,0.458,0.123,0.915,0.185,1.372c-0.021-0.17-0.042-0.341-0.063-0.512c-2.152,1.64-4.304,3.278-6.456,4.918
					c1.145,0.392,2.166,0.236,3.313,0.012c-1.209-0.159-2.419-0.316-3.629-0.475c0.408,0.274,0.273,0.167-0.404-0.319
					c0.324,0.345,0.209,0.186-0.346-0.478c0.225,0.409,0.147,0.209-0.232-0.6c0.115,0.459,0.093,0.231-0.064-0.682
					c0.008,0.127,0.007,0.253-0.001,0.38c0.143-0.892,0.166-1.101,0.068-0.63c-0.081,0.369-0.534,1.282,0.085-0.07
					c1.7-0.692,3.399-1.384,5.099-2.075c-0.887-0.291-1.886-0.34-2.808-0.478c-1.794-0.267-3.505,0.15-4.486,1.826
					C252.176,851.594,252.914,853.931,254.731,855.1L254.731,855.1z"/>
			</g>
		</g>
		<g>
			<g>
				<path fill="#F8AD3B" d="M345.698,889.664c-2.661,0.358-4.896,1.896-5.688,4.557c-0.498,1.671-0.063,3.281,0.66,4.785
					c0.376,0.783,0.998,1.409,1.544,2.077c-0.305-0.395-0.611-0.79-0.916-1.185c0.187,0.242,0.342,0.492,0.469,0.771
					c0.841,1.848,3.202,2.941,5.127,2.941c2.573,0,5.115-1.803,5.726-4.36c0.001-0.004,0.002-0.008,0.003-0.013
					c-0.2,0.473-0.399,0.946-0.599,1.419c0.013-0.029,0.031-0.055,0.051-0.081c-0.31,0.401-0.62,0.803-0.93,1.204
					c1.68-2.136,3.004-4.014,3.178-6.865c0.147-2.422-1.497-5.279-3.752-6.243c-1.586-0.678-2.389-0.897-4.165-1.042
					c-0.874-0.071-1.749,0.055-2.62,0.104c-2.847,0.158-4.748,1.741-5.727,4.36c-1.3,3.479,0.182,7.22,3.176,9.221
					c1.295,0.866,2.689,1.063,4.195,1.204c0.736,0.069,1.549-0.122,2.276-0.323c0.531-0.147,1.66-0.662,1.782-0.734
					c1.125-0.66,1.509-1.285,2.278-2.305c0.92-1.221,0.995-3.24,0.608-4.647c-0.536-1.947-2.191-3.765-4.212-4.212
					c-1.379-0.305-2.364-0.206-3.726,0.039c0.545-0.073,1.09-0.147,1.635-0.22c-0.36,0.045-0.733,0.065-1.095,0.031
					c0.545,0.073,1.09,0.146,1.635,0.22c-0.193-0.031-0.369-0.077-0.55-0.15c0.487,0.206,0.974,0.411,1.46,0.617
					c-0.126-0.063-0.236-0.13-0.35-0.214c0.411,0.317,0.822,0.635,1.232,0.952c-0.071-0.058-0.136-0.122-0.195-0.191
					c0.316,0.409,0.633,0.819,0.95,1.229c-0.089-0.117-0.159-0.229-0.225-0.361c0.203,0.481,0.406,0.962,0.609,1.444
					c-0.058-0.15-0.097-0.292-0.127-0.451c0.071,0.533,0.143,1.066,0.215,1.599c-0.027-0.252-0.022-0.489,0.006-0.741
					c-0.071,0.529-0.142,1.058-0.213,1.586c0.021-0.146,0.051-0.291,0.089-0.433c-1.383,1.382-2.766,2.765-4.148,4.147
					c0.174-0.033,0.348-0.063,0.522-0.091c-0.523,0.071-1.046,0.141-1.57,0.211c0.8-0.067,1.603-0.103,2.402-0.001
					c-0.525-0.071-1.051-0.142-1.576-0.212c0.293,0.045,0.576,0.109,0.853,0.218c-0.473-0.199-0.946-0.399-1.418-0.599
					c0.144,0.065,0.275,0.138,0.401,0.233c-0.401-0.31-0.802-0.62-1.203-0.93c0.061,0.053,0.114,0.105,0.167,0.166
					c-0.31-0.401-0.62-0.803-0.929-1.203c0.059,0.078,0.105,0.156,0.146,0.245c-0.2-0.474-0.399-0.947-0.6-1.421
					c0.033,0.089,0.054,0.175,0.068,0.268c-0.071-0.527-0.142-1.054-0.212-1.582c0.01,0.122,0.006,0.238-0.009,0.359
					c0.071-0.528,0.142-1.055,0.212-1.583c-0.031,0.183-0.084,0.354-0.152,0.527c0.2-0.474,0.4-0.949,0.601-1.423
					c-0.215,0.508-0.529,0.963-0.859,1.401c-0.811,1.075-1.18,2.334-1.251,3.689c3.688-0.999,7.377-1.998,11.065-2.997
					c-0.514-0.737-1.041-1.482-1.743-2.051c-0.69-0.56-1.363-0.938-2.039-1.444c0.377,0.291,0.754,0.582,1.13,0.873
					c-0.045-0.036-0.086-0.076-0.122-0.12c0.288,0.373,0.577,0.746,0.865,1.119c-0.035-0.042-0.063-0.089-0.083-0.139
					c0.184,0.437,0.369,0.873,0.553,1.31c-0.021-0.052-0.034-0.105-0.038-0.161c0.064,0.48,0.129,0.962,0.194,1.443
					c-0.005-0.063-0.001-0.126,0.012-0.189c-0.064,0.476-0.128,0.952-0.192,1.427c0.046-0.226,0.099-0.434,0.185-0.648
					c-0.17,0.402-0.339,0.805-0.509,1.208c0.16-0.355,0.347-0.691,0.546-1.025c0.821-1.379,0.808-3.163,0-4.543
					c-0.4-0.676-0.938-1.214-1.615-1.614C348.015,889.443,346.962,889.494,345.698,889.664L345.698,889.664z"/>
			</g>
		</g>
	</g>
</g>
<g id="Floating_forms">
</g>
<g id="Logo">
</g>
<g id="All">
</g>
</svg>
