<?xml version="1.0" encoding="utf-8"?>
<!-- Generator: Adobe Illustrator 16.0.0, SVG Export Plug-In . SVG Version: 6.00 Build 0)  -->
<!DOCTYPE svg PUBLIC "-//W3C//DTD SVG 1.1//EN" "http://www.w3.org/Graphics/SVG/1.1/DTD/svg11.dtd">
<svg version="1.1" xmlns="http://www.w3.org/2000/svg" xmlns:xlink="http://www.w3.org/1999/xlink" x="0px" y="0px" width="210.5px"
	 height="212.195px" viewBox="0 0 210.5 212.195" enable-background="new 0 0 210.5 212.195" xml:space="preserve">
<g id="Imgs">
</g>
<g id="Sky">
</g>
<g id="Clouds">
</g>
<g id="Leaves">
</g>
<g id="Buildings">
</g>
<g id="Mountains">
</g>
<g id="City">
</g>
<g id="Aspas_2_">
	<g>
		<path fill="#FFFFFF" d="M101.478,106.606c0.132,0.396,4.49,3.698,4.49,4.225c0,0.528-0.615,23.636-0.615,23.636l-34.641,41.065
			c0,0-8.715-1.585-7.526-4.225C64.372,168.666,101.478,106.606,101.478,106.606z"/>
		<path fill="#FFFFFF" d="M64.505,37.284c0,0,2.113-3.433,3.696-2.641c1.587,0.792,42.651,55.326,42.651,55.326l-0.924,18.882
			l-9.508,0.792L64.505,37.284z"/>
		<path fill="#FFFFFF" d="M105.353,105.286l84.064-2.772c0,0,0.396,5.941,0,6.338c-0.395,0.395-65.096,12.147-65.229,11.75
			c-0.132-0.396-18.836-10.958-18.836-10.958"/>
		<path fill="#4D8E99" d="M111.69,106.738c0-3.5-2.841-6.337-6.338-6.337c-3.503,0-6.339,2.837-6.339,6.337
			c0,3.502,2.836,6.338,6.339,6.338C108.85,113.076,111.69,110.24,111.69,106.738z"/>
	</g>
</g>
<g id="Rock">
</g>
<g id="Ground">
</g>
<g id="Floating_forms">
</g>
<g id="Logo">
</g>
<g id="All">
</g>
</svg>
