<?xml version="1.0" encoding="utf-8"?>
<!-- Generator: Adobe Illustrator 16.0.0, SVG Export Plug-In . SVG Version: 6.00 Build 0)  -->
<!DOCTYPE svg PUBLIC "-//W3C//DTD SVG 1.1//EN" "http://www.w3.org/Graphics/SVG/1.1/DTD/svg11.dtd">
<svg version="1.1" xmlns="http://www.w3.org/2000/svg" xmlns:xlink="http://www.w3.org/1999/xlink" x="0px" y="0px" width="500px"
	 height="500px" viewBox="0 0 500 500" enable-background="new 0 0 500 500" xml:space="preserve">
<g id="Imgs">
</g>
<g id="Sky">
</g>
<g id="Clouds">
</g>
<g id="Buildings">
</g>
<g id="Mountains">
</g>
<g id="City">
</g>
<g id="Aspas_2_">
</g>
<g id="Rock">
</g>
<g id="Ground">
</g>
<g id="Floating_forms">
</g>
<g id="Logo">
	<g>
		<path fill="#FFFFFF" d="M142.444,417.333c0,0,132.554-62.667,125.887-200c0,0,2.001,98-82.666,152c0,0-38.167-79.635-4-122
			c34.167-42.363,96.605-90.548,100.666-166.667c0,0,158.956,346.896-75.112,302.008c0,0-35.538,32.966-50.222,43.654
			C156.997,426.329,134.117,426.493,142.444,417.333z"/>
		<path fill="none" stroke="#FFFFFF" stroke-width="14" stroke-linecap="round" stroke-miterlimit="10" d="M147.756,422.362
			c15.241,48.972,91.121,66.791,134.561,62.305C404.997,472,491.663,388.07,491.663,250c0-138.072-102.002-240.667-237.999-240.667
			C117.666,9.333,7.51,111.929,7.51,250c0,79.333,32.153,150,98.153,174.108"/>
	</g>
</g>
<g id="All">
</g>
</svg>
