<?xml version="1.0" encoding="utf-8"?>
<!-- Generator: Adobe Illustrator 16.0.0, SVG Export Plug-In . SVG Version: 6.00 Build 0)  -->
<!DOCTYPE svg PUBLIC "-//W3C//DTD SVG 1.1//EN" "http://www.w3.org/Graphics/SVG/1.1/DTD/svg11.dtd">
<svg version="1.1" xmlns="http://www.w3.org/2000/svg" xmlns:xlink="http://www.w3.org/1999/xlink" x="0px" y="0px" width="1920px"
	 height="1080px" viewBox="0 0 1920 1080" enable-background="new 0 0 1920 1080" xml:space="preserve">
<g id="Imgs">
</g>
<g id="Sky">
</g>
<g id="Clouds">
</g>
<g id="Leaves">
</g>
<g id="Buildings">
</g>
<g id="Mountains">
</g>
<g id="City">
</g>
<g id="Aspas_2_">
</g>
<g id="Rock">
	<g>
		<defs>
			<rect id="SVGID_23_" x="-2" width="1920" height="1080"/>
		</defs>
		<clipPath id="SVGID_2_">
			<use xlink:href="#SVGID_23_"  overflow="visible"/>
		</clipPath>
		<g clip-path="url(#SVGID_2_)">
			<g>
				<path fill="#004444" d="M-2.355,682.132c0,0,129.261,1.484,191.797,18.912c62.539,17.428,164.556,41.822,199.904,41.822
					c35.347,0,118.304,4.725,201.233,47.05c0,0,106.644,0.232,145.495,4.774c63.896,7.469,63.896,7.447,160.418,69.727
					c37.535,24.218,148.785-0.031,148.785-0.031s1.557,14.92,27.671,24.878c26.112,9.959,61.812,31.882,85.428,76.697
					c23.616,44.814,34.491,114.039,34.491,114.039H-2.141L-2.355,682.132z"/>
				<path fill="#002731" d="M-2.141,896.719c0,0,706.945-79.668,738.215-102.076c31.268-22.406-95.167,4.98-138.671-17.427
					c-43.505-22.407-142.75-39.835-175.378-42.324c-32.627-2.49-393.396-92.117-423.738-77.179L-2.141,896.719z"/>
				<path fill="#002731" d="M220.818,988.836c-4.077,0.158,454.077,9.958,505.738,0c51.661-9.958,320.817-107.055,320.817-107.055
					l-2.095-24.896l-130.429,9.958l-130.649-64.73C784.201,802.113,284.715,986.347,220.818,988.836z"/>
				<path fill="#002731" d="M659.941,1080c8.157,0,436.402-180.757,436.402-180.757c5.438,16.44-384.742,180.757-388.82,180.757
					C703.444,1080,659.941,1080,659.941,1080z"/>
				<path fill="#002731" d="M1125.748,919.126c4.583,4.979,60.323,84.648,60.323,84.648s-36.706,19.917-73.414,0
					c-36.706-19.917-55.058-37.344-36.365-49.792C1094.983,941.533,1125.748,919.126,1125.748,919.126z"/>
				<path fill="#002731" d="M1061.678,1080c8.834,0,132.322-67.374,132.322-67.374V1080C1194,1080,1054.204,1080,1061.678,1080z"/>
			</g>
			<polygon fill="#001420" points="125.653,797.134 113.418,744.852 80.79,782.196 			"/>
			<polygon fill="#001420" points="144.686,799 95.744,678.563 133.811,663.16 155.562,695.294 146.045,662.808 171.877,648.747 
				218.101,799 			"/>
			<path fill="#001420" d="M229.996,799L190.91,649h19.033l32.628,122.613l-16.314-105.187c0,0,69.335,91.573,82.931,132.573
				H229.996z"/>
			<path fill="#001420" d="M919.947,874.312l114.953-15.406c0,0,10.461-31.906,7.743-31.906c-2.72,0-45.544,0-45.544,0
				s1.359,9.961-5.438,9.961s-10.141-11.821-10.141-11.821S937.28,845.682,919.947,874.312z"/>
			<path fill="#001420" d="M1039.924,864.353l7.45-39.833c0,0,24.497,17.428,24.497,19.917c0,2.49-10.481,52.283-10.481,52.283
				L1039.924,864.353z"/>
			<path fill="#001420" d="M1068.884,896.719l6.388-47.303c0,0,15.332,27.269,17.862,52.847
				C1095.664,927.84,1068.884,896.719,1068.884,896.719z"/>
			<polygon fill="#001420" points="1147.326,965.875 1152.764,912.352 1173.835,1002.529 			"/>
			<path fill="#001420" d="M1157.379,897.706c-1.07,6.127,22.621,108.728,22.621,108.728V1080h48.217l12.235-33.688l-10.878-101.905
				l-18.352,75.744l10.875-107.704l-16.993-51.779l-3.4,58.482l-2.631-6.786l-4.846-71.657c0,0-6.797-24.9-8.156-21.166
				c-1.358,3.734-4.079,29.874-4.079,29.874l-2.037-24.897l-12.237,13.693l6.117,36.1l-10.354-13.693
				C1163.481,860.619,1160.951,877.245,1157.379,897.706z"/>
			<polygon fill="#001420" points="1430.783,1080 1423.306,1044.376 1442.338,1022.354 1464.771,1080 			"/>
			<path fill="#001420" d="M1612,1080h-132.954c-0.681-4.979-14.274-77.948-14.274-77.948s71.914-91.731,148.046-78.038"/>
			<path fill="#001420" d="M1645.586,1080c-0.681-7.469-14.956-96.621-12.915-96.621c2.04,0,46.223-34.183,46.223-34.183
				l8.157-27.533l19.712,10.006c0,0,46.224,21.737,65.937,69.113c-2.719,6.297-40.104,56.811-46.902,79.217H1645.586z"/>
			<path fill="#001420" d="M1754.344,1080c0,0,18.355-65.5,26.513-64.255l12.233,17.813c0,0-12.233,31.504-12.233,46.442H1754.344z"
				/>
			<polygon fill="#001420" points="1793.09,1080 1798.529,1048.247 1824.361,1080 			"/>
		</g>
	</g>
</g>
<g id="Ground">
</g>
<g id="Floating_forms">
</g>
<g id="Logo">
</g>
<g id="All">
</g>
</svg>
